<?xml version="1.0" encoding="utf-8"?>
<!-- Generator: Adobe Illustrator 21.1.0, SVG Export Plug-In . SVG Version: 6.00 Build 0)  -->
<svg version="1.1" id="Layer_1" xmlns="http://www.w3.org/2000/svg" xmlns:xlink="http://www.w3.org/1999/xlink" x="0px" y="0px"
	 viewBox="0 0 150 24" style="enable-background:new 0 0 150 24;" xml:space="preserve">
<style type="text/css">
	.st0{fill:#D8232A;}
</style>
<polyline id="Fill-4" class="st0" points="49.5,23.3 49.5,6.6 43.7,6.6 43.7,0.5 62.9,0.5 62.9,6.6 57,6.6 57,23.3 49.5,23.3 "/>
<path id="Fill-5" class="st0" d="M121.3,23.3l-0.9-3.2h-6.5l-0.9,3.2h-7.7l7.9-22.7h7.8l7.7,22.7H121.3z M119,15.1l-1.7-7.3H117
	l-1.7,7.3H119L119,15.1z"/>
<path id="Fill-6" class="st0" d="M15.9,23.3L15,20H8.5l-0.9,3.2H0L7.9,0.5h7.8l7.7,22.7H15.9z M13.6,15.1l-1.7-7.3h-0.2L10,15.1
	H13.6L13.6,15.1z"/>
<path id="Fill-7" class="st0" d="M73.8,23.7c-3,0-5.8-1.1-7.8-3.2c-2.1-2.2-3.2-5.2-3.2-8.7c0-3.5,1.1-6.5,3.2-8.7
	C68,1.1,70.7,0,73.8,0c3,0,5.8,1.1,7.8,3.2c2.1,2.2,3.2,5.2,3.2,8.7c0,3.5-1.1,6.5-3.2,8.7C79.6,22.6,76.8,23.7,73.8,23.7 M73.8,6
	c-2.2,0-3.7,2.4-3.7,5.9s1.5,5.9,3.7,5.9c2.2,0,3.7-2.4,3.7-5.9S75.9,6,73.8,6"/>
<path id="Fill-8" class="st0" d="M96.7,23.7c-3,0-5.8-1.1-7.8-3.2c-2.1-2.2-3.2-5.2-3.2-8.7c0-3.5,1.1-6.5,3.2-8.7
	c2-2.1,4.8-3.2,7.8-3.2c2.7,0,5.1,0.9,6.9,2.5c1.9,1.7,3.1,4.1,3.5,7l0,0.3h-6.6l0-0.2c-0.5-2.3-2-3.6-3.8-3.6
	c-2.2,0-3.7,2.4-3.7,5.9s1.5,5.9,3.7,5.9c1.8,0,3.2-1.4,3.8-3.6l0-0.2h6.6l0,0.3c-0.4,2.9-1.6,5.3-3.5,7
	C101.8,22.9,99.4,23.7,96.7,23.7"/>
<path id="Fill-9" class="st0" d="M32.2,23.7c-3,0-5.6-0.8-7.3-2.3c-2-1.7-3.1-4.4-3.1-7.8V0.5h7.5v11.7c0,4.1,0.6,5.2,2.9,5.2
	c2.3,0,2.9-1.1,2.9-5.2V0.5h7.5v13.1c0,3.5-1,6.1-3.1,7.8C37.8,22.9,35.3,23.7,32.2,23.7"/>
<path id="Fill-10" class="st0" d="M142.1,23.3l-3-6.8h-2.2v6.8h-7.4V0.5H140c8.4,0,9.6,5.1,9.6,8.1c0,2.8-1.3,5.2-3.5,6.5l3.7,8.1
	H142.1z M138.9,11.4c2.5,0,3.5-0.8,3.5-2.8c0-1.9-1.1-2.8-3.5-2.8h-2v5.5H138.9L138.9,11.4z"/>
</svg>
