<?xml version="1.0" encoding="UTF-8"?><svg id="Layer_1" xmlns="http://www.w3.org/2000/svg" xmlns:xlink="http://www.w3.org/1999/xlink" viewBox="0 0 42.36 44.04"><defs><style>.cls-1{fill:none;}.cls-2{clip-path:url(#clippath);}.cls-3,.cls-4{fill:#004e7c;}.cls-5{clip-path:url(#clippath-1);}.cls-4{fill-rule:evenodd;}</style><clipPath id="clippath"><rect class="cls-1" x="0" y="0" width="42.36" height="44.04"/></clipPath><clipPath id="clippath-1"><rect class="cls-1" x="0" y="0" width="42.36" height="44.04"/></clipPath></defs><g id="_100_Day"><g class="cls-2"><polygon class="cls-4" points="15.96 4.76 15.95 4.76 15.51 7.11 16.42 7.11 15.96 4.76"/><g class="cls-5"><path class="cls-4" d="M19.8,8.21c.05,.06,.14,.09,.24,.09s.19-.03,.25-.08c.07-.06,.11-.14,.14-.24,.03-.1,.05-.24,.06-.38,0-.15,.01-.32,.01-.5,0-.16,0-.32-.01-.47,0-.15-.03-.28-.06-.4-.03-.12-.07-.21-.14-.28-.07-.07-.15-.1-.26-.1-.18,0-.3,.1-.35,.31-.06,.2-.09,.51-.09,.89,0,.18,0,.35,.01,.5,0,.15,.03,.28,.05,.4,.03,.11,.07,.2,.13,.27"/><path class="cls-4" d="M38.66,1.68h-1.51c.04-.12,.08-.25,.08-.39,0-.72-.58-1.29-1.29-1.29s-1.29,.58-1.29,1.29c0,.14,.04,.26,.08,.39h-4.95c.04-.12,.08-.25,.08-.39,0-.72-.58-1.29-1.29-1.29s-1.29,.58-1.29,1.29c0,.14,.03,.26,.08,.39h-4.95c.04-.12,.08-.25,.08-.39,0-.72-.58-1.29-1.29-1.29s-1.29,.58-1.29,1.29c0,.14,.04,.26,.08,.39h-4.95c.04-.12,.08-.25,.08-.39,0-.72-.58-1.29-1.29-1.29s-1.29,.58-1.29,1.29c0,.14,.04,.26,.08,.39H7.64c.05-.12,.09-.25,.09-.39,0-.72-.59-1.29-1.29-1.29s-1.29,.58-1.29,1.29c0,.14,.03,.26,.08,.39h-1.52C1.65,1.68,0,3.34,0,5.38V40.34c0,2.04,1.65,3.7,3.7,3.7h30.79l7.87-7.87V5.38c0-2.04-1.65-3.7-3.7-3.7m1.68,33.65l-.42,.41h-3.17c-1.48,0-2.69,1.21-2.69,2.69v3.17l-.41,.42H3.7c-.93,0-1.68-.75-1.68-1.68V12.1H40.34v23.23Z"/></g><g><path class="cls-3" d="M20.36,22.27c0,1.87-1.43,3.13-3.56,3.13s-3.58-1.23-3.58-3.09c0-1.32,.48-2.25,1.31-3.41l2.38-3.15h2.96l-2.87,3.63h.36c1.57,0,3,1.14,3,2.89Zm-2.74,.03c0-.55-.33-.93-.84-.93s-.84,.37-.84,.93,.33,.91,.84,.91,.84-.36,.84-.91Z"/><path class="cls-3" d="M21.11,20.5c0-2.93,1.56-4.89,3.88-4.89s3.88,1.96,3.88,4.89-1.56,4.89-3.88,4.89-3.88-1.96-3.88-4.89Zm5.03,0c0-1.62-.45-2.7-1.15-2.7s-1.14,1.08-1.14,2.7,.46,2.7,1.14,2.7,1.15-1.08,1.15-2.7Z"/></g><g><path class="cls-3" d="M17.34,32.01c0,2.33-1.54,3.88-3.86,3.88h-3.45v-7.72h3.45c2.32,0,3.86,1.53,3.86,3.84Zm-2.22,0c0-1.24-.64-2.07-1.59-2.07h-1.36v4.17h1.36c.95,0,1.59-.85,1.59-2.11Z"/><path class="cls-3" d="M23.04,34.83h-3.01l-.4,1.05h-2.3l3.21-7.72h1.99l3.19,7.72h-2.3l-.4-1.05Zm-.67-1.77l-.82-2.21-.83,2.21h1.66Z"/><path class="cls-3" d="M32.37,28.16l-2.66,5.16v2.57h-2.15v-2.57l-2.66-5.16h2.29l1.46,3.26,1.45-3.26h2.28Z"/></g></g></g></svg>