<?xml version="1.0" encoding="UTF-8"?> <svg xmlns="http://www.w3.org/2000/svg" id="Layer_1" viewBox="0 0 800 800"><defs><style>.cls-1{fill:#707070;}</style></defs><g id="BMW_Group_Next"><g><path class="cls-1" d="m206.51,391.31h38.57c12.32,0,19.79-2.11,25.26-6.72,5.72-4.6,8.46-11.82,8.46-20.66,0-5.85-1.62-10.83-3.86-14.06-2.24-2.99-4.6-5.1-7.34-7.09,1.37-2.24,3.23-5.23,4.98-8.21,2.61-4.73,4.23-8.83,4.23-14.68,0-7.59-3.36-14.19-8.96-18.04-4.98-3.36-11.2-4.36-20.78-4.36h-40.57v93.82h0Zm15.06-14.18v-26.38h24.64c5.72,0,9.21.5,12.07,2.24,3.73,2.61,5.23,6.1,5.23,10.95,0,4.36-1.12,7.59-3.86,9.83-2.74,2.36-6.72,3.36-14.31,3.36h-23.77Zm0-40.57v-24.89h24.14c5.48,0,9.33.25,11.82,1.74,2.86,1.62,3.98,4.23,3.98,7.96s-1.24,6.35-2.99,9.46c-1.12,1.87-2.36,3.98-3.48,5.72h-33.47Z"></path><polygon class="cls-1" points="304.32 391.31 304.32 320.01 326.34 372.64 340.15 372.64 362.18 320.01 362.18 391.31 376.98 391.31 376.98 297.48 357.08 297.48 333.43 354.1 309.67 297.48 289.51 297.48 289.51 391.31 304.32 391.31"></polygon><polygon class="cls-1" points="422.15 391.31 437.71 332.7 453.26 391.31 473.05 391.31 491.46 297.48 476.28 297.48 461.85 371.77 445.8 311.67 429.74 311.67 413.69 371.77 399.26 297.48 383.83 297.48 402.24 391.31 422.15 391.31"></polygon><path class="cls-1" d="m273.33,499.41v-49.28h-14.93v36.96c-3.36.37-9.83,1.12-15.93,1.12-10.58,0-16.67-2.61-20.03-9.33-2.74-5.48-3.61-13.56-3.61-24.51s1-19.41,3.73-25.01c3.48-7.34,8.83-10.2,19.66-10.2,3.36,0,7.09.5,10.95,1.24,5.85,1.12,11.95,2.49,17.05,3.73v-14.68c-3.86-1-9.21-2.24-14.93-3.36-4.6-.87-9.71-1.62-14.56-1.62-17.3,0-25.26,6.47-30.49,15.31-4.98,8.34-6.72,19.54-6.72,34.84s1.87,25.38,6.1,32.73c5.1,8.84,12.57,15.18,30.61,15.18,10.83,0,24.14-1.62,33.1-3.11h0Z"></path><path class="cls-1" d="m299.4,500.4v-34.22h22.02l20.16,34.22h17.54l-21.53-36.46c2.36-2.49,6.22-6.84,9.21-10.45,4.85-5.97,7.84-11.82,7.84-20.28s-2.99-15.8-8.34-20.28c-5.97-5.1-12.94-6.35-24.39-6.35h-37.58v93.82h15.06Zm0-48.65v-30.73h20.91c7.96,0,11.95.62,14.68,2.49,3.24,2.24,4.36,5.48,4.36,9.83,0,4.98-2.12,8.59-4.85,12.07-1.62,1.99-3.73,4.48-5.48,6.35h-29.62Z"></path><path class="cls-1" d="m399.95,404.46c-18.42,0-27,5.97-32.85,15.93-4.85,8.21-6.35,20.78-6.35,33.35,0,14.56,2.24,26.75,7.09,34.59,5.72,9.21,13.81,14.18,32.1,14.18,15.93,0,24.39-4.36,30.98-13.94,5.6-7.96,8.09-20.66,8.09-34.84,0-13.44-1.99-26.75-8.09-35.46-6.47-9.33-14.93-13.81-30.98-13.81h0Zm0,14.43c8.46,0,15.06,2.12,19.04,9.08,3.61,6.1,4.73,15.68,4.73,25.76s-1.12,21.03-5.97,27.25c-4.36,5.6-10.33,7.09-17.79,7.09-8.46,0-15.55-1.37-19.66-8.46-3.23-5.85-4.23-15.93-4.23-25.88s.87-19.91,4.11-25.76c4.11-7.47,11.32-9.08,19.79-9.08h0Z"></path><path class="cls-1" d="m448.63,406.58v57.74c0,13.31,1.49,22.9,7.84,29.62,6.22,6.84,14.43,8.59,27.13,8.59,11.95,0,20.28-1.99,26.63-8.34,6.72-6.72,8.21-15.8,8.21-29.86v-57.74h-15.06v58.11c0,9.83-.62,15.68-4.73,19.54-3.48,3.11-8.83,3.86-15.06,3.86s-11.82-.75-15.18-3.98c-4.11-3.98-4.73-9.83-4.73-19.41v-58.11h-15.06Z"></path><path class="cls-1" d="m544.46,500.4v-33.6c9.83,0,18.17,0,23.39-.37,8.71-.5,15.8-2.36,21.03-7.71,5.47-5.72,7.59-13.81,7.59-22.77s-2.36-16.55-7.34-21.78c-5.23-5.35-11.95-7.59-22.27-7.59h-37.45v93.82h15.06Zm0-48.03v-31.36h20.78c5.97,0,9.58.62,12.19,3.24,2.61,2.61,3.73,6.59,3.73,11.7s-.62,8.96-3.11,11.7c-2.49,2.99-6.1,3.98-11.7,4.36-5.72.37-13.56.37-21.9.37h0Z"></path></g></g></svg> 