<?xml version="1.0" encoding="UTF-8"?> <svg xmlns="http://www.w3.org/2000/svg" id="Layer_1" viewBox="0 0 800 800"><defs><style>.cls-1{fill:#fff;}.cls-2{fill:#1f3a6e;}</style></defs><g id="layer1"><path id="path737" class="cls-2" d="m403.79,300.6c-147.13,0-265.08,44.1-265.08,99.4s118.92,99.4,265.08,99.4,265.08-44.59,265.08-99.4-118.92-99.4-265.08-99.4"></path><path id="path741" class="cls-1" d="m508.2,421.05c.07.46.67.89,1.25,1.1.21.07.32.21.09.7-1.65,3.54-3.17,5.58-5.24,8.65-1.9,2.84-4.05,5.06-6.64,7.19-3.92,3.24-9.35,6.77-13.85,4.4-2-1.04-2.86-3.83-2.82-6.09.09-6.36,2.93-12.89,8.15-19.31,6.37-7.84,13.41-11.91,18.04-9.69,4.78,2.28,3.26,7.82,1.11,12.16-.17.34-.17.62-.09.9m51.32-49.57c.34-.61-.02-1.05-.78-1.05-3.99,0-9.24,0-13.4,0-.99,0-1.5.12-1.97,1.04-1.54,2.94-20.26,31-23.74,36.45-.59.83-1.3.71-1.39-.24-.35-3.24-3.15-6.96-7.55-8.74-3.36-1.36-6.64-1.61-10.05-1.15-6.16.83-11.64,4.08-16.47,7.74-7.27,5.53-13.54,12.69-21.64,17.98-4.42,2.88-10.47,5.39-14.52,1.64-3.66-3.4-3.25-10.94,2.36-16.78.59-.61,1.3-.09,1.19.45-.53,2.64.12,5.26,2.12,7.11,2.45,2.19,5.95,2.44,8.94.98,3.54-1.75,5.61-5.14,6.22-8.98.94-5.96-3.65-11.21-9.39-11.63-4.66-.33-9.13,1.29-13.49,4.89-2.18,1.81-3.42,3.15-5.31,5.84-.46.66-1.17.73-1.15-.25.21-7.63-2.94-11.92-9.24-12.06-4.89-.12-10.12,2.54-14.2,5.79-4.47,3.59-8.37,8.34-12.56,12.81-.52.55-.97.52-1.12-.54-.12-5.05-1.4-9.95-3.73-13.42-.83-1.21-2.57-1.81-4.03-.99-.68.37-3.03,1.45-4.74,2.83-.85.7-1.18,1.71-.8,3.01,2.26,7.55,1.76,16.13-1.3,23.38-2.81,6.64-8.28,12.63-14.7,14.65-4.23,1.34-8.63.69-11.35-3.07-3.74-5.18-2.23-14.18,3.34-21.66,4.92-6.58,12.03-10.77,19.13-13.46.83-.32,1.01-.86.77-1.57-.38-1.17-1-2.76-1.25-3.48-.65-1.73-2.47-2.01-4.7-1.77-5.16.6-9.81,2.37-14.4,4.83-12.03,6.44-18.06,18.91-20.71,25.58-1.27,3.2-2.36,5.2-3.77,6.98-1.9,2.38-4.28,4.55-8.63,8.38-.39.35-.69,1.08-.36,1.76.44.92,2.71,4.12,3.35,4.4.71.35,1.53-.14,1.86-.37,3.05-2.07,6.69-5.34,8.47-7.56.63-.76,1.27-.44,1.6.71,1.66,5.94,6.02,10.79,12.05,12.82,11.03,3.72,22.47-1.66,31.11-11.04,5.49-5.96,7.47-9.79,9.57-12.4,3.57-4.42,10.6-14.3,18.98-20.65,3.07-2.34,6.71-4.13,8.54-2.94,1.47.95,1.94,3.16-.41,7.44-8.54,15.6-21.11,33.92-23.41,38.37-.42.77-.05,1.38.75,1.38,4.47-.02,8.9-.01,12.96-.01.68-.02.98-.34,1.32-.82,6.55-10.26,12.72-20.03,19.34-30.12.37-.6.71-.14.73.12.14,2.34.71,5.55,2.1,7.65,2.5,3.89,6.04,5.56,9.97,5.59,3.13.05,4.71-.44,8.08-1.7,2.74-1.02,4.94-2.35,6.63-3.56.99-.69,1.16.46,1.14.64-1.52,8.15.36,17.8,8.45,21.8,9.69,4.78,20.33-1.94,26.46-8,.6-.58,1.24-.52,1.3.74.14,2.31,1.18,5.06,3.09,6.98,5.13,5.15,15.49,3.11,25.88-4.93,6.67-5.15,13.65-12.43,19.96-20.13.24-.3.41-.78-.05-1.26-.96-1.01-2.35-2.16-3.3-3.04-.43-.37-1.07-.26-1.44.01-6.46,6.15-12.28,13.16-20.69,18.96-2.84,1.98-7.36,3.58-9.39.83-.79-1.07-.7-2.54.07-4.48,2.45-6.12,41.27-65.22,43.29-68.71"></path><path id="path745" class="cls-1" d="m376.86,378.62c.17.88.51,1.05.91.97,1.98-.4,4.14-2.02,5.42-3.91,1.17-1.71,1.71-4.18.55-5.16-1.03-.89-2.72-.64-3.96.46-2.49,2.2-3.24,5.31-2.92,7.64m-98.95,76.09c-14.48.09-27.23-8.84-28.69-24.33-.81-8.58,1.61-16.23,6.47-22.53,4.31-5.61,11.6-10.28,17.77-11.42,2.01-.37,4.71-.14,5.82,1.2,1.75,2.04,1.25,4.27-.5,5.17-4.71,2.4-10.37,6.52-13.18,12.14-2.27,4.59-2.73,10.12.74,15.38,5.81,8.78,22.02,9.02,37.08-4.98,3.73-3.43,7.07-6.72,10.46-10.62,6.64-7.59,8.84-10.35,17.66-22.59.09-.14.14-.33.09-.42-.07-.17-.19-.19-.45-.21-5.89.17-11.02,1.92-16.01,5.65-1.44,1.05-3.51.9-4.41-.48-1.01-1.56-.28-3.59,1.37-4.74,8.03-5.58,16.8-6.6,25.75-8.11,0,0,.62.02,1.13-.65,3.68-4.72,6.45-8.97,10.37-13.74,3.95-4.84,9.05-9.29,12.95-12.63,5.44-4.68,8.93-6.25,12.47-8.18.93-.49-.12-1.07-.4-1.07-19.79-3.72-40.37-8.53-60.02-1.26-13.61,5.08-19.58,15.88-16.71,23.09,2.04,5.12,8.77,5.95,15.07,2.87,5.23-2.56,10.08-6.7,13.51-12.02,1.92-2.95,5.97-.82,3.78,4.31-5.75,13.52-16.74,24.24-30.13,24.7-11.39.37-18.74-8.01-18.72-18.35.05-20.39,22.75-33.83,46.61-35.84,28.73-2.37,55.95,5.28,84.48,8.74,21.86,2.65,42.82,2.7,64.79-2.35,2.6-.56,4.42,1.09,4.25,3.72-.21,3.79-3.15,7.44-10.39,11.39-8.23,4.51-16.84,5.88-25.83,5.96-21.74.19-42-8.29-62.96-12.85.02.92.27,2.01-.5,2.59-11.61,8.56-22.1,17.26-29.13,29.47-.24.28-.12.55.3.52,6.1-.32,11.59-.48,17.29-.94,1-.09,1.03-.33.95-1.06-.51-4.21.73-9.01,4.43-12.31,3.79-3.4,8.54-3.78,11.68-1.34,3.58,2.79,3.26,7.8,1.3,11.56-1.99,3.81-5.28,5.85-8.44,6.84,0,0-.66.14-.56.74.12.96,4.43,3.35,4.79,3.98.36.6.17,1.54-.48,2.26-.46.52-1.17,1.01-2.08.99-.74-.01-1.19-.27-2.13-.78-1.93-1.05-4.34-2.76-5.95-4.79-.55-.69-.83-.7-2.2-.62-6.16.36-15.78,1.29-22.29,2.1-1.58.19-1.81.49-2.14,1.04-10.38,17.12-21.47,35.59-33.64,47.95-13.06,13.26-23.91,16.74-35.43,16.84"></path><path id="path749" class="cls-1" d="m403.78,316.86c-135.36,0-245.08,37.4-245.08,83.17s109.72,83.18,245.08,83.18,245.07-37.41,245.07-83.18-109.71-83.17-245.07-83.17m0,173.89c-140.29,0-254.01-40.62-254.01-90.72s113.72-90.72,254.01-90.72,253.99,40.61,253.99,90.72-113.72,90.72-253.99,90.72"></path></g></svg> 