<svg id="Layer_1" data-name="Layer 1" xmlns="http://www.w3.org/2000/svg" xmlns:xlink="http://www.w3.org/1999/xlink" viewBox="0 0 49.65 31.78"><defs><style>.cls-1,.cls-4{fill:none;}.cls-2{clip-path:url(#clip-path);}.cls-3{fill:#004e7c;}.cls-4{stroke:#004e7c;stroke-miterlimit:10;stroke-width:0.41px;}</style><clipPath id="clip-path"><rect class="cls-1" width="49.65" height="31.78"/></clipPath></defs><g id="Truck"><g class="cls-2"><g class="cls-2"><path class="cls-3" d="M17.28,7.26H.81a.52.52,0,0,1-.53-.52.53.53,0,0,1,.53-.53H17.28a.53.53,0,0,1,.53.53.52.52,0,0,1-.53.52"/><path class="cls-4" d="M17.28,7.26H.81a.52.52,0,0,1-.53-.52.53.53,0,0,1,.53-.53H17.28a.53.53,0,0,1,.53.53A.52.52,0,0,1,17.28,7.26Z"/><path class="cls-3" d="M17.28,7.34H.81a.61.61,0,0,1,0-1.21H17.28a.61.61,0,1,1,0,1.21M.81,6.28a.46.46,0,0,0-.45.46.45.45,0,0,0,.45.45H17.28a.46.46,0,0,0,.46-.45.47.47,0,0,0-.46-.46Z"/><path class="cls-4" d="M17.28,7.34H.81a.61.61,0,0,1,0-1.21H17.28a.61.61,0,1,1,0,1.21ZM.81,6.28a.46.46,0,0,0-.45.46.45.45,0,0,0,.45.45H17.28a.46.46,0,0,0,.46-.45.47.47,0,0,0-.46-.46Z"/><path class="cls-3" d="M20.77,12.23H5.45a.53.53,0,1,1,0-1.06H20.77a.53.53,0,0,1,0,1.06"/><path class="cls-4" d="M20.77,12.23H5.45a.53.53,0,1,1,0-1.06H20.77a.53.53,0,0,1,0,1.06Z"/><path class="cls-3" d="M20.77,12.3H5.45a.6.6,0,1,1,0-1.2H20.77a.6.6,0,0,1,0,1.2M5.45,11.25a.45.45,0,0,0,0,.9H20.77a.45.45,0,0,0,0-.9Z"/><path class="cls-4" d="M20.77,12.3H5.45a.6.6,0,1,1,0-1.2H20.77a.6.6,0,0,1,0,1.2ZM5.45,11.25a.45.45,0,0,0,0,.9H20.77a.45.45,0,0,0,0-.9Z"/><path class="cls-3" d="M16.12,17.58H.81a.53.53,0,0,1-.53-.53.52.52,0,0,1,.53-.52H16.12a.52.52,0,0,1,.53.52.53.53,0,0,1-.53.53"/><path class="cls-4" d="M16.12,17.58H.81a.53.53,0,0,1-.53-.53.52.52,0,0,1,.53-.52H16.12a.52.52,0,0,1,.53.52A.53.53,0,0,1,16.12,17.58Z"/><path class="cls-3" d="M16.12,17.65H.81a.6.6,0,0,1,0-1.2H16.12a.6.6,0,1,1,0,1.2M.81,16.6a.45.45,0,1,0,0,.9H16.12a.45.45,0,1,0,0-.9Z"/><path class="cls-4" d="M16.12,17.65H.81a.6.6,0,0,1,0-1.2H16.12a.6.6,0,1,1,0,1.2ZM.81,16.6a.45.45,0,1,0,0,.9H16.12a.45.45,0,1,0,0-.9Z"/><path class="cls-3" d="M48.39,25.65h-2.2v-.07a5.21,5.21,0,0,0-10.36,0v.07H33.52V6.15h.07l5.95.21,0,0,4.49,7.3a.47.47,0,0,0,.39.22h4Zm-2.07-.15h1.92V14.06h-3.8a.61.61,0,0,1-.52-.29L39.45,6.5l-5.78-.2V25.5h2a5.36,5.36,0,0,1,10.65,0"/><path class="cls-4" d="M48.39,25.65h-2.2v-.07a5.21,5.21,0,0,0-10.36,0v.07H33.52V6.15h.07l5.95.21,0,0,4.49,7.3a.47.47,0,0,0,.39.22h4Zm-2.07-.15h1.92V14.06h-3.8a.61.61,0,0,1-.52-.29L39.45,6.5l-5.78-.2V25.5h2a5.36,5.36,0,0,1,10.65,0Z"/><path class="cls-3" d="M16.81,30.52a4.31,4.31,0,1,1,4.31-4.3,4.31,4.31,0,0,1-4.31,4.3m0-8.46A4.16,4.16,0,1,0,21,26.22a4.16,4.16,0,0,0-4.15-4.16"/><path class="cls-4" d="M16.81,30.52a4.31,4.31,0,1,1,4.31-4.3A4.31,4.31,0,0,1,16.81,30.52Zm0-8.46A4.16,4.16,0,1,0,21,26.22,4.16,4.16,0,0,0,16.81,22.06Z"/><path class="cls-3" d="M48.84,12.93H44.73L40.24,5.64a.5.5,0,0,0-.43-.25l-6.22-.22V.81a.53.53,0,0,0-.53-.53H8.47a.53.53,0,0,0-.53.53V6.15a.52.52,0,0,0,.53.52A.52.52,0,0,0,9,6.15V1.34H32.54V25.58H22.05a4.49,4.49,0,0,1,0,.64c0,.14,0,.27,0,.41H35.74a4.58,4.58,0,0,1,0-.53,4.41,4.41,0,0,1,0-.52H33.59V6.23l5.9.2,4.5,7.3a.5.5,0,0,0,.45.25h3.88v11.6H46.26c0,.17,0,.34,0,.52s0,.36,0,.53h2.58a.53.53,0,0,0,.53-.53V13.46a.52.52,0,0,0-.53-.53"/><path class="cls-4" d="M48.84,12.93H44.73L40.24,5.64a.5.5,0,0,0-.43-.25l-6.22-.22V.81a.53.53,0,0,0-.53-.53H8.47a.53.53,0,0,0-.53.53V6.15a.52.52,0,0,0,.53.52A.52.52,0,0,0,9,6.15V1.34H32.54V25.58H22.05a4.49,4.49,0,0,1,0,.64c0,.14,0,.27,0,.41H35.74a4.58,4.58,0,0,1,0-.53,4.41,4.41,0,0,1,0-.52H33.59V6.23l5.9.2,4.5,7.3a.5.5,0,0,0,.45.25h3.88v11.6H46.26c0,.17,0,.34,0,.52s0,.36,0,.53h2.58a.53.53,0,0,0,.53-.53V13.46A.52.52,0,0,0,48.84,12.93Z"/><path class="cls-3" d="M48.84,26.7H46.17v-.08a4.53,4.53,0,0,0,0-.52,4.67,4.67,0,0,0,0-.52V25.5h2.07V14.06h-3.8a.61.61,0,0,1-.52-.29L39.45,6.5l-5.78-.19V25.5h2.15v.08a4.67,4.67,0,0,0,0,.52,4.53,4.53,0,0,0,0,.52v.08H22v-.08c0-.15,0-.27,0-.4s0-.4,0-.64V25.5H32.46V1.41H9.07V6.15a.61.61,0,0,1-1.21,0V.81a.6.6,0,0,1,.61-.6H33.06a.6.6,0,0,1,.61.6V5.1l6.15.21a.62.62,0,0,1,.49.29l4.46,7.25h4.07a.61.61,0,0,1,.61.61V26.1a.6.6,0,0,1-.61.6m-2.5-.15h2.5a.46.46,0,0,0,.46-.45V13.46a.47.47,0,0,0-.46-.46H44.69l0,0L40.18,5.68a.47.47,0,0,0-.37-.22l-6.29-.21V.81a.46.46,0,0,0-.46-.45H8.47A.46.46,0,0,0,8,.81V6.15a.46.46,0,0,0,.46.45.45.45,0,0,0,.45-.45V1.26H32.61V25.65H22.14c0,.21,0,.39,0,.57s0,.22,0,.33H35.66c0-.15,0-.3,0-.45s0-.3,0-.45H33.52V6.15l6,.21,0,0,4.49,7.3a.47.47,0,0,0,.39.22h4V25.65h-2c0,.15,0,.31,0,.45s0,.3,0,.45"/><path class="cls-4" d="M48.84,26.7H46.17v-.08a4.53,4.53,0,0,0,0-.52,4.67,4.67,0,0,0,0-.52V25.5h2.07V14.06h-3.8a.61.61,0,0,1-.52-.29L39.45,6.5l-5.78-.19V25.5h2.15v.08a4.67,4.67,0,0,0,0,.52,4.53,4.53,0,0,0,0,.52v.08H22v-.08c0-.15,0-.27,0-.4s0-.4,0-.64V25.5H32.46V1.41H9.07V6.15a.61.61,0,0,1-1.21,0V.81a.6.6,0,0,1,.61-.6H33.06a.6.6,0,0,1,.61.6V5.1l6.15.21a.62.62,0,0,1,.49.29l4.46,7.25h4.07a.61.61,0,0,1,.61.61V26.1A.6.6,0,0,1,48.84,26.7Zm-2.5-.15h2.5a.46.46,0,0,0,.46-.45V13.46a.47.47,0,0,0-.46-.46H44.69l0,0L40.18,5.68a.47.47,0,0,0-.37-.22l-6.29-.21V.81a.46.46,0,0,0-.46-.45H8.47A.46.46,0,0,0,8,.81V6.15a.46.46,0,0,0,.46.45.45.45,0,0,0,.45-.45V1.26H32.61V25.65H22.14c0,.21,0,.39,0,.57s0,.22,0,.33H35.66c0-.15,0-.3,0-.45s0-.3,0-.45H33.52V6.15l6,.21,0,0,4.49,7.3a.47.47,0,0,0,.39.22h4V25.65h-2c0,.15,0,.31,0,.45S46.35,26.4,46.34,26.55Z"/><path class="cls-3" d="M11.57,25.58H9V18.91a.52.52,0,0,0-.52-.53.53.53,0,0,0-.53.53V26.1a.53.53,0,0,0,.53.53h3.08c0-.14,0-.27,0-.41a4.49,4.49,0,0,1,0-.64"/><path class="cls-4" d="M11.57,25.58H9V18.91a.52.52,0,0,0-.52-.53.53.53,0,0,0-.53.53V26.1a.53.53,0,0,0,.53.53h3.08c0-.14,0-.27,0-.41A4.49,4.49,0,0,1,11.57,25.58Z"/><path class="cls-3" d="M11.63,26.71H8.47a.61.61,0,0,1-.61-.61V18.91a.61.61,0,0,1,1.21,0V25.5h2.58v.08a5.1,5.1,0,0,0,0,.64c0,.13,0,.25,0,.4ZM8.47,18.46a.46.46,0,0,0-.46.45V26.1a.46.46,0,0,0,.46.45h3c0-.11,0-.22,0-.33s0-.36,0-.57H8.92V18.91a.45.45,0,0,0-.45-.45"/><path class="cls-4" d="M11.63,26.71H8.47a.61.61,0,0,1-.61-.61V18.91a.61.61,0,0,1,1.21,0V25.5h2.58v.08a5.1,5.1,0,0,0,0,.64c0,.13,0,.25,0,.4ZM8.47,18.46a.46.46,0,0,0-.46.45V26.1a.46.46,0,0,0,.46.45h3c0-.11,0-.22,0-.33s0-.36,0-.57H8.92V18.91A.45.45,0,0,0,8.47,18.46Z"/><path class="cls-3" d="M22.05,25.58a5.28,5.28,0,0,0-10.48,0,4.49,4.49,0,0,0,0,.64c0,.14,0,.27,0,.41a5.28,5.28,0,0,0,10.52,0c0-.14,0-.27,0-.41a4.49,4.49,0,0,0,0-.64m-5.24,4.87A4.23,4.23,0,1,1,21,26.22a4.24,4.24,0,0,1-4.23,4.23"/><path class="cls-4" d="M22.05,25.58a5.28,5.28,0,0,0-10.48,0,4.49,4.49,0,0,0,0,.64c0,.14,0,.27,0,.41a5.28,5.28,0,0,0,10.52,0c0-.14,0-.27,0-.41A4.49,4.49,0,0,0,22.05,25.58Zm-5.24,4.87A4.23,4.23,0,1,1,21,26.22,4.24,4.24,0,0,1,16.81,30.45Z"/><path class="cls-3" d="M16.81,31.58a5.38,5.38,0,0,1-5.34-4.94c0-.16,0-.29,0-.42a5.14,5.14,0,0,1,0-.65,5.36,5.36,0,0,1,10.64,0,5.14,5.14,0,0,1,0,.65c0,.13,0,.26,0,.42a5.38,5.38,0,0,1-5.34,4.94m0-10.57a5.22,5.22,0,0,0-5.17,4.57,5.1,5.1,0,0,0,0,.64c0,.13,0,.25,0,.4a5.21,5.21,0,0,0,10.38,0c0-.15,0-.27,0-.4s0-.4,0-.64A5.22,5.22,0,0,0,16.81,21m0,9.51a4.31,4.31,0,1,1,4.31-4.3,4.31,4.31,0,0,1-4.31,4.3m0-8.46A4.16,4.16,0,1,0,21,26.22a4.16,4.16,0,0,0-4.15-4.16"/><path class="cls-4" d="M16.81,31.58a5.38,5.38,0,0,1-5.34-4.94c0-.16,0-.29,0-.42a5.14,5.14,0,0,1,0-.65,5.36,5.36,0,0,1,10.64,0,5.14,5.14,0,0,1,0,.65c0,.13,0,.26,0,.42A5.38,5.38,0,0,1,16.81,31.58Zm0-10.57a5.22,5.22,0,0,0-5.17,4.57,5.1,5.1,0,0,0,0,.64c0,.13,0,.25,0,.4a5.21,5.21,0,0,0,10.38,0c0-.15,0-.27,0-.4s0-.4,0-.64A5.22,5.22,0,0,0,16.81,21Zm0,9.51a4.31,4.31,0,1,1,4.31-4.3A4.31,4.31,0,0,1,16.81,30.52Zm0-8.46A4.16,4.16,0,1,0,21,26.22,4.16,4.16,0,0,0,16.81,22.06Z"/><path class="cls-3" d="M46.26,25.58a5.29,5.29,0,0,0-10.52,0,4.41,4.41,0,0,0,0,.52,4.58,4.58,0,0,0,0,.53,5.29,5.29,0,0,0,10.52,0c0-.17,0-.35,0-.53s0-.35,0-.52M41,30.33a4.24,4.24,0,0,1-4.2-3.7,4.58,4.58,0,0,1,0-.53,4.41,4.41,0,0,1,0-.52,4.23,4.23,0,0,1,8.39,0,4.38,4.38,0,0,1,0,.52,4.55,4.55,0,0,1,0,.53A4.23,4.23,0,0,1,41,30.33"/><path class="cls-4" d="M46.26,25.58a5.29,5.29,0,0,0-10.52,0,4.41,4.41,0,0,0,0,.52,4.58,4.58,0,0,0,0,.53,5.29,5.29,0,0,0,10.52,0c0-.17,0-.35,0-.53S46.27,25.75,46.26,25.58ZM41,30.33a4.24,4.24,0,0,1-4.2-3.7,4.58,4.58,0,0,1,0-.53,4.41,4.41,0,0,1,0-.52,4.23,4.23,0,0,1,8.39,0,4.38,4.38,0,0,1,0,.52,4.55,4.55,0,0,1,0,.53A4.23,4.23,0,0,1,41,30.33Z"/><path class="cls-3" d="M41,31.46a5.33,5.33,0,0,1-5.33-4.82,4.79,4.79,0,0,1,0-1.07,5.36,5.36,0,0,1,10.66,0,4.79,4.79,0,0,1,0,1.07A5.34,5.34,0,0,1,41,31.46m0-10.57a5.19,5.19,0,0,0-5.18,4.69,4.67,4.67,0,0,0,0,.52,4.53,4.53,0,0,0,0,.52,5.21,5.21,0,0,0,10.36,0,4.53,4.53,0,0,0,0-.52,4.67,4.67,0,0,0,0-.52A5.19,5.19,0,0,0,41,20.89m0,9.52a4.31,4.31,0,0,1-4.27-3.77,3.6,3.6,0,0,1,0-1.07,4.3,4.3,0,0,1,8.54,0,4.79,4.79,0,0,1,0,1.07A4.31,4.31,0,0,1,41,30.41M41,22a4.16,4.16,0,0,0-4.12,3.64,3.16,3.16,0,0,0,0,.51,3.28,3.28,0,0,0,0,.52,4.15,4.15,0,0,0,8.24,0,5,5,0,0,0,0-.52,4.77,4.77,0,0,0,0-.51A4.16,4.16,0,0,0,41,22"/><path class="cls-4" d="M41,31.46a5.33,5.33,0,0,1-5.33-4.82,4.79,4.79,0,0,1,0-1.07,5.36,5.36,0,0,1,10.66,0,4.79,4.79,0,0,1,0,1.07A5.34,5.34,0,0,1,41,31.46Zm0-10.57a5.19,5.19,0,0,0-5.18,4.69,4.67,4.67,0,0,0,0,.52,4.53,4.53,0,0,0,0,.52,5.21,5.21,0,0,0,10.36,0,4.53,4.53,0,0,0,0-.52,4.67,4.67,0,0,0,0-.52A5.19,5.19,0,0,0,41,20.89Zm0,9.52a4.31,4.31,0,0,1-4.27-3.77,3.6,3.6,0,0,1,0-1.07,4.3,4.3,0,0,1,8.54,0,4.79,4.79,0,0,1,0,1.07A4.31,4.31,0,0,1,41,30.41ZM41,22a4.16,4.16,0,0,0-4.12,3.64,3.16,3.16,0,0,0,0,.51,3.28,3.28,0,0,0,0,.52,4.15,4.15,0,0,0,8.24,0,5,5,0,0,0,0-.52,4.77,4.77,0,0,0,0-.51A4.16,4.16,0,0,0,41,22Z"/></g></g></g></svg>