<?xml version="1.0" encoding="UTF-8"?> <svg xmlns="http://www.w3.org/2000/svg" id="Layer_1" viewBox="0 0 800 800"><defs><style>.cls-1{fill:#5b676f;}</style></defs><path class="cls-1" d="m229.4,357.02v17.42h-94.67q-1.14,0-1.14,1.14v49.23q0,1.14,1.14,1.14h75.74q1.14,0,1.14-1.14v-16.28h-59.45v-15.91c0-.76.38-1.14,1.14-1.14h76.12c.76,0,1.14,0,1.14,1.14v50.37h-100.35c-7.2,0-12.88-4.92-14.39-11.74-.76-.76-.76-1.89-.76-2.65v-57.18c0-7.57,5.68-13.63,13.25-14.39,0,0,101.11,0,101.11,0Zm250.32,17.04h-88.24v16.28q0,1.14,1.14,1.14h84.07q1.51,0,1.51,1.51v15.53h-87.1v16.28q0,1.14,1.14,1.14h87.48v17.04h-92.78c-7.2,0-12.88-4.92-14.01-12.12v-74.22h106.41c.38,6.06.38,11.74.38,17.42Zm-231.76-17.04h106.41v17.04h-87.1c-1.51,0-1.14,0-1.14,1.14v14.77q0,1.14,1.14,1.14h85.21c.38,0,.76,0,.76.76v16.66h-85.58c-1.51,0-1.51-.38-1.51,1.51v14.39q0,1.14,1.14,1.14h85.96c1.51,0,1.51-.38,1.51,1.51v15.53h-93.16c-7.2,0-12.88-5.3-13.63-12.12,0,0,0-73.47,0-73.47Zm310.15,0h23.48c.76,0,1.14,0,1.51.76,12.5,12.5,24.99,25.37,37.87,37.87.38.38.38.76.76,1.14l.76-.76,37.49-37.49c.38-.38,1.14-.76,1.89-.76h23.1c-.38.38-.38.76-.76.76l-36.35,36.35-16.66,16.66c-.38.38-.76.76-.76,1.51v29.16q0,1.14-1.14,1.14h-17.04v-30.67c0-.76-.38-1.14-.76-1.51-17.8-17.8-35.6-35.22-53.02-53.02,0-.76-.38-.76-.38-1.14Zm35.98,68.92v17.04h-81.04c-7.2,0-13.63-5.68-14.39-12.5-.38-1.14-.38-2.65-.38-4.17v-69.68h18.18v67.79q0,1.14,1.14,1.14h75.36c.38.38.76.38,1.14.38Z"></path></svg> 