<?xml version="1.0" encoding="UTF-8"?> <svg xmlns="http://www.w3.org/2000/svg" id="Layer_1" viewBox="0 0 800 800"><defs><style>.cls-1{fill:#010101;}.cls-2{fill:#cc1517;}</style></defs><path class="cls-2" d="m584,406.83v-9.8l9.87-1.14c2.36-.43,4.36-2.07,5.29-4.29l24.68-40.06c.93-1.07,1.14-2.57.57-3.86-.5-1.29-1.72-2.22-3.15-2.36l-12.95-1.5v-9.94h56.15c2.72.21,5.08,1.72,6.44,4.01l32.76,50.07c2.57,4.01,4.58,7.15,7.87,7.58l10.3,1.14v10.01h-63.09v-9.87l8.01-1c3.86-.43,7.01-2.22,3.86-6.87l-3-4.58h-44.78l-3.43,5.58c-2.15,3.43,0,5.44,3.29,5.87l8.01,1v9.87l-46.71.14m46.78-35.26h28.32l-14.31-22.46-14.02,22.46"></path><path class="cls-2" d="m542.13,333.94h-72.17v9.94l9.08.93c1.43.21,2.79.93,3.65,2.15.86,1.14,1.29,2.65,1.07,4.08v39.2c.36,2.72-1.43,5.22-4.15,5.72l-9.73,1.22v9.58l72.17.07c33.26,0,47.49-16.17,47.49-37.48.07-19.17-14.16-35.41-47.42-35.41m-11.09,58.87h-18.6v-44.92h18.6c17.74,0,25.18,4.15,25.18,22.46s-7.51,22.46-25.18,22.46"></path><path class="cls-2" d="m78.16,406.83h58.37v-9.73l-10.01-1.14c-2.29-.29-4.58-1.72-4.58-6.58v-11.73h44.92v11.16c0,3.29-.57,6.44-4.43,6.87l-10.16,1.14v10.01h58.37v-10.01l-10.3-1.14c-2-.29-4.29-1.86-4.29-6.01v-37.91c0-3.86,1.43-6.44,4.43-6.72l10.16-1.14v-9.94h-58.37v9.8l10.16,1.29c3.43.43,4.43,3.15,4.43,6.72v11.3h-44.92v-11.44c0-4.29,1.72-6.29,4.72-6.58l9.87-1.14v-9.94h-58.22v9.94l9.73,1.14c3.86.43,4.86,3.29,4.72,7.01v36.91c0,4.15-1.14,6.58-4.86,7.01l-9.73,1.14v9.73"></path><path class="cls-2" d="m213.55,370.04c0-22.89,18.45-38.91,59.65-38.91s59.44,16.02,59.44,38.91-18.45,39.34-59.44,39.34-59.65-15.88-59.65-39.34m59.51-24.89c-16.59,0-26.04,6.15-26.04,25.03s9.44,25.32,26.04,25.32,26.04-6.15,26.04-25.32c.07-18.88-9.37-25.03-26.04-25.03"></path><path class="cls-2" d="m335.91,406.83h46.64v-9.73l-10.01-1.14c-2.93-.43-4.94-3.08-4.58-6.01v-37.05l38.77,51.07c1.5,1.79,3.72,2.86,6.01,2.86h36.62v-55.22c0-2.57.64-6.15,4.43-6.58l10.16-1.14v-9.94h-46.64v9.8l10.16,1.29c3.58.43,4.43,3.43,4.43,6.87v36.05l-38.48-50.78c-1.36-2-3.58-3.22-6.01-3.22h-51.5v9.94l9.73,1.14c3.43.5,4.72,2.22,4.72,7.01v36.91c0,4.36-1.22,6.44-4.86,7.01l-9.58,1.14v9.73"></path><path class="cls-1" d="m101.82,437.88h14.81v30.33h5.36v-30.33h14.59v-4.01h-34.76v4.01Z"></path><path class="cls-1" d="m158.15,441.31c-4.29-.21-8.37,1.79-10.87,5.29v-12.8h-5.22v34.33h5.15v-12.16c-.36-2.86.57-5.79,2.5-7.87,1.93-2.15,4.72-3.29,7.65-3.22,5.15,0,7.94,3,7.94,8.73v14.66h5.15v-14.88c0-7.87-4.36-12.09-12.3-12.09Z"></path><path class="cls-1" d="m284.18,444c-3.43-2.72-7.72-4.08-12.09-3.72-4.29-.21-8.58,1.14-11.95,3.93-5.51,5.87-5.51,15.02,0,20.89,3.36,2.72,7.58,4.01,11.95,3.72,10.37,0,16.09-5.08,16.09-14.23.29-4.01-1.22-7.87-4.01-10.59Zm-1.36,10.44c.21,2.86-.86,5.72-2.93,7.72s-4.86,3.08-7.72,2.86c-2.93.14-5.79-.93-7.87-3-1.86-2.07-2.79-4.72-2.72-7.51.07-5.79,4.86-10.44,10.66-10.44s10.44,4.58,10.59,10.37h0Z"></path><path class="cls-1" d="m438.1,444c-3.43-2.72-7.72-4.08-12.09-3.72-4.36-.21-8.58,1.14-11.95,3.93-2.79,2.72-4.36,6.44-4.15,10.3,0,9.23,5.72,14.23,16.09,14.23,4.29.29,8.58-1.07,11.95-3.72,5.58-5.94,5.58-15.02.14-21.03h0Zm-19.96,2.93c2.15-2,5.01-3.08,7.94-2.93,2.86-.36,5.79.64,7.87,2.72,2.07,2.07,3.15,4.94,2.86,7.8.14,2.86-.93,5.65-2.93,7.72-2.07,2-4.86,3.08-7.72,2.86-2.86.21-5.72-.79-7.72-2.86-2.07-2-3.15-4.86-2.93-7.72-.21-2.79.79-5.51,2.65-7.58Z"></path><path class="cls-1" d="m542.3,440.61c-4.22.36-7.94,3-9.66,6.87v-6.65h-4.65v27.4h5.22v-14.45c.07-2.5,1.14-4.79,3-6.44,1.93-1.65,4.43-2.57,7.01-2.43l2.57-.07v-4.29h-.07c-1.14,0-2.29,0-3.43.07Z"></path><path class="cls-1" d="m238.08,433.86l-15.59.07v34.33h5.36v-13.16h11.02c3.79.21,7.58-.86,10.66-3.08,2.29-2,3.58-4.86,3.43-7.87.07-2.43-.79-4.79-2.5-6.58-3.5-2.86-7.94-4.15-12.37-3.72Zm9.16,10.23c0,4.86-2.72,7.01-8.87,7.01h-10.59v-13.38h10.16c6.37,0,9.3,2.07,9.3,6.37Z"></path><path class="cls-1" d="m515.75,438.31c-4.36-3.29-9.87-4.86-15.31-4.43h-15.31v34.4h15.52c5.29.36,10.51-1.22,14.73-4.43,6.8-7.08,6.94-18.24.36-25.54Zm-25.18-.5h8.65c6.22,0,10.3,1.07,12.66,3.36,2.43,2.72,3.58,6.29,3.15,9.87,0,8.94-4.94,13.23-15.02,13.23h-9.44v-26.47Z"></path><path class="cls-1" d="m610.42,462.4v-11.37c.43-2.86-.64-5.72-2.86-7.58-3-2.22-6.72-3.29-10.44-3.15-4.15,0-11.23,1.22-12.59,6.87h5.65c1.5-2.29,4.22-3.5,6.87-3.22,4.86,0,8.23,2.15,8.23,6.37v.93h-4.36c-4.79,0-12.02.21-15.52,3.72-1.29,1.36-2,3.15-1.93,5.08,0,5.08,4.43,8.73,10.94,8.73,4.22.57,8.51-1.14,11.09-4.58,0,1.36.14,2.72.29,4.08h4.94c-.14-2-.29-3.93-.29-5.87Zm-5.08-6.37c0,6.01-3.15,9.08-9.58,9.08-4.36,0-6.8-1.86-6.8-5.08,0-1.07.36-2.07,1.14-2.79,3-1.93,6.58-2.79,10.16-2.36h5.08v1.14Z"></path><path class="cls-1" d="m651.6,440.3c-4.36-.07-8.3,2.57-9.94,6.58-1.36-3.93-5.08-6.51-9.23-6.58-4.01-.14-7.8,2.15-9.58,5.72,0,0,0-2.5-.21-5.22h-4.86c.14,2.07.14,4.51.14,6.72v20.74h5.15v-13.16c0-7.51,4.15-10.94,8.23-10.94,4.29,0,6.22,3.22,6.22,10.16v13.95h5.15v-13.16c-.29-3.29.86-6.51,3.15-8.87,1.36-1.29,3.08-2,4.94-2.07,2.07-.21,4.08.79,5.08,2.57,1.07,2.43,1.57,5.15,1.36,7.8v13.66h5.15v-15.74c.29-3.36-.86-6.72-3.08-9.3-2-1.93-4.79-2.93-7.65-2.86Z"></path><path class="cls-1" d="m689.09,453.3l-8.58-1.79c-4.08-.79-5.87-1.93-5.87-3.79,0-2.5,3.22-3.79,7.94-3.79,3.86,0,6.58,1,7.51,3.15h5.58c-.36-2.36-1.93-4.36-4.08-5.29-2.79-1.14-5.79-1.72-8.87-1.57-3.08-.14-6.15.57-8.94,1.93-2.5,1.14-4.15,3.65-4.29,6.37,0,3.65,2.65,5.79,7.51,6.87l8.15,1.72c2.79.57,5.65,1.36,5.65,3.72,0,2.86-3,4.22-8.37,4.22-4.51,0-7.15-1.29-8.08-3.93h-5.65c1.07,6.22,7.65,7.58,13.09,7.58,9.73,0,14.45-2.79,14.45-8.58,0-3.72-2.07-5.72-7.15-6.8Z"></path><path class="cls-1" d="m460.68,433.32c-2.57-.21-5.22.43-7.3,2-1.07.93-1.86,2.07-2.29,3.43-.5,1.79-.72,3.72-.64,5.58h-5.65v3.72h5.65v20.17h5.22v-20.17h9.51v-3.72h-9.51c0-3.79.14-5.01,1.29-6.08,1.22-1,2.79-1.43,4.36-1.22,1.36,0,2.79.14,4.08.43v-3.79c-1.5-.29-3.15-.36-4.72-.36Z"></path><path class="cls-1" d="m329.8,452.99c-1,3.29-2.15,7.01-3.5,11.66h0c-1.07-3.72-2.29-7.51-3.5-11.37l-3.65-11.09v-.07h-7.94l-3.65,11.16c-1.22,3.72-2.43,7.58-3.5,11.37h0c-1.36-4.65-2.43-8.37-3.5-11.66l-3.36-10.87v-.07h-5.72l8.44,26.11v.07h8.01l3.79-11.3c.29-1,.57-1.93.93-2.86.86-2.72,1.72-5.51,2.57-8.37h0c.86,2.93,1.79,5.87,2.72,8.73l.79,2.5,3.72,11.3v.07h8.01l8.44-26.04v-.07h-5.72l-3.36,10.8Z"></path><path class="cls-1" d="m392.12,440.61c-4.22.36-7.94,3-9.66,6.87v-6.65h-4.65v27.4h5.22v-14.45c.07-2.5,1.14-4.79,3-6.44,1.93-1.65,4.43-2.57,7.01-2.43l2.57-.07v-4.29h-.07c-1.14,0-2.29,0-3.43.07Z"></path><path class="cls-1" d="m367.21,444.06c-2.79-2.65-6.58-4.01-10.44-3.79-4.01-.43-8.01,1-10.94,3.86-2.86,2.86-4.29,6.87-3.93,10.87-.14,3.72,1.22,7.3,3.86,9.87,3,2.65,6.94,4.01,10.94,3.86,3.08.07,6.15-.72,8.87-2.22,2.22-1.14,3.93-3.08,4.72-5.44h-5.72c-1.79,2.72-4.94,4.22-8.15,3.93-3.43.21-6.65-1.72-8.23-4.79-.64-1.36-1.07-2.86-1.22-4.36h23.75v-1.57c.36-3.72-.93-7.44-3.5-10.23Zm-20.03,8.23c.5-4.79,4.65-8.44,9.51-8.37,2.29-.21,4.58.64,6.22,2.22,1.65,1.57,2.57,3.86,2.5,6.15h-18.24Z"></path><path class="cls-1" d="m573.72,444.06c-2.79-2.65-6.58-4.01-10.44-3.79-4.01-.43-8.01,1-10.94,3.86-2.86,2.86-4.29,6.87-3.93,10.87-.14,3.72,1.22,7.3,3.86,9.87,3,2.65,6.94,4.01,10.94,3.86,3.08.07,6.15-.72,8.87-2.22,2.22-1.14,3.93-3.08,4.72-5.44h-5.72c-1.79,2.72-4.94,4.22-8.15,3.93-3.43.21-6.65-1.72-8.23-4.79-.64-1.36-1.07-2.86-1.22-4.36h23.75c.07-1.14,0-2.29-.07-3.43-.07-3.08-1.29-6.08-3.43-8.37Zm-20.03,8.23c.5-4.79,4.65-8.44,9.51-8.37,2.29-.21,4.58.64,6.22,2.22,1.65,1.57,2.57,3.86,2.5,6.15h-18.24Z"></path><path class="cls-1" d="m201.9,444.06c-2.79-2.65-6.58-4.01-10.44-3.79-4.01-.43-8.01,1-10.94,3.86-2.86,2.86-4.29,6.87-3.93,10.87-.14,3.72,1.22,7.3,3.86,9.87,3,2.65,6.94,4.01,10.94,3.86,3.08.07,6.15-.72,8.87-2.22,2.22-1.14,3.93-3.08,4.72-5.44h-5.72c-1.79,2.72-4.94,4.22-8.15,3.93-3.43.21-6.65-1.72-8.23-4.79-.64-1.36-1.07-2.86-1.22-4.36h23.75v-1.57c.36-3.72-.93-7.44-3.5-10.23Zm-20.03,8.23c.07-.5.14-1,.29-1.5.93-4.29,4.86-7.22,9.23-6.87,2.29-.21,4.58.64,6.22,2.22,1.65,1.57,2.57,3.86,2.5,6.15h-18.24Z"></path></svg> 