<?xml version="1.0" encoding="UTF-8"?> <svg xmlns="http://www.w3.org/2000/svg" xmlns:xlink="http://www.w3.org/1999/xlink" id="Layer_1" viewBox="0 0 800 800"><defs><style>.cls-1{mask:url(#mask);}.cls-2{fill:#fff;}.cls-2,.cls-3{fill-rule:evenodd;}.cls-3{fill:#010101;}.cls-4{mask:url(#mask-3);}.cls-5{mask:url(#mask-2);}.cls-6{mask:url(#mask-5);}.cls-7{mask:url(#mask-4);}.cls-8{mask:url(#mask-1);}</style><mask id="mask" x="559.14" y="316.64" width="71.19" height="77.57" maskUnits="userSpaceOnUse"><g id="b"><path id="a" class="cls-2" d="m559.14,316.64h71.19v77.57h-71.19v-77.57Z"></path></g></mask><mask id="mask-1" x="386.93" y="316.64" width="71.31" height="77.57" maskUnits="userSpaceOnUse"><g id="d"><path id="c" class="cls-2" d="m386.93,316.64h71.31v77.57h-71.31v-77.57Z"></path></g></mask><mask id="mask-2" x="300.36" y="316.64" width="71.3" height="77.57" maskUnits="userSpaceOnUse"><g id="f"><path id="e" class="cls-2" d="m300.36,316.64h71.3v77.57h-71.3v-77.57Z"></path></g></mask><mask id="mask-3" x="473.55" y="316.64" width="71.27" height="77.57" maskUnits="userSpaceOnUse"><g id="h"><path id="g" class="cls-2" d="m473.55,316.64h71.27v77.57h-71.27v-77.57Z"></path></g></mask><mask id="mask-4" x="211.37" y="316.64" width="82.9" height="77.57" maskUnits="userSpaceOnUse"><g id="j"><path id="i" class="cls-2" d="m211.37,316.64h82.9v77.57h-82.9v-77.57Z"></path></g></mask><mask id="mask-5" x="133.96" y="316.64" width="532.08" height="167.6" maskUnits="userSpaceOnUse"><g id="l"><path id="k" class="cls-2" d="m133.96,484.24h532.08v-167.6H133.96v167.6Z"></path></g></mask></defs><path class="cls-3" d="m187.16,315.76v31.06h-36.2v-31.06h-17v79.56h17v-32.95h36.2v32.95h17v-79.56h-17Z"></path><g><g class="cls-1"><path class="cls-3" d="m580.78,331.79h32.23v22.52h-36.63v-18.09c.06-.89-.11-2.5.66-3.46.81-1,2.12-.92,3.74-.96m-17.78-10.74c-3.63,3.65-3.76,8.97-3.86,12.08v61.08h17.25v-24.76h36.63v24.76h17.32v-77.57h-53.82c-5.11.04-9.91.77-13.51,4.42"></path></g><g class="cls-8"><path class="cls-3" d="m440.86,316.64h-53.93v77.57h17.28v-62.42h32.37c1.61.05,2.92-.04,3.73.97.78.95.63,2.57.67,3.46v57.99h17.26v-61.07c-.09-3.11-.23-8.43-3.84-12.08-3.63-3.65-8.41-4.38-13.55-4.42"></path></g><g class="cls-5"><path class="cls-3" d="m354.4,374.62c-.07.91.09,2.49-.67,3.46-.81,1.01-2.12.93-3.73.97h-32.37v-62.4h-17.28v77.57h53.92c5.13-.04,9.91-.8,13.52-4.44,3.62-3.65,3.76-8.97,3.86-12.08v-61.05h-17.26s0,57.97,0,57.97Z"></path></g><g class="cls-4"><path class="cls-3" d="m527.63,374.62c-.07.91.08,2.49-.67,3.46-.8,1.01-2.13.93-3.74.97h-32.4v-47.25h32.41c1.61.05,2.93-.04,3.74.97.75.95.59,2.57.66,3.46v38.39h0Zm17.19-41.48c-.08-3.11-.23-8.43-3.83-12.07-3.62-3.65-8.4-4.39-13.52-4.42h-53.92v77.57h53.92c5.12-.04,9.9-.8,13.52-4.44,3.59-3.65,3.75-8.97,3.83-12.08v-44.56Z"></path></g><g class="cls-7"><path class="cls-3" d="m252.83,350.58l-20.96-33.93h-20.51l32.24,48.91v28.67h18.44v-28.67l32.23-48.91h-20.52l-20.92,33.93Z"></path></g><g class="cls-6"><path class="cls-3" d="m647.63,394.22h18.41v-77.57h-18.41v77.57Zm-513.67,31.98h532.08v-11.69H133.96v11.69Zm344.63,37.42c-.02.37-.07.76-.29,1.05-.38.47-.99.44-1.73.44h-15.35v-9.44h15.35c.74,0,1.35-.02,1.73.45.22.28.27.69.3,1.04v6.46h0Zm1.37,8.92c1.68-.19,3.22-.68,4.47-1.95,1.68-1.69,1.75-4.15,1.79-5.59v-9.21c-.03-1.44-.11-3.9-1.79-5.59-1.67-1.68-3.88-2.03-6.25-2.05h-25.06v36.11h8.1v-11.61h10.25l7.89,11.61h8.55s-7.94-11.7-7.94-11.7Zm-99.4-8.92c-.03.37-.08.76-.3,1.05-.37.47-.99.44-1.73.44h-15.36v-9.44h15.36c.73,0,1.36-.02,1.73.45.22.28.27.69.3,1.04,0,0,0,6.46,0,6.46Zm1.35,8.92c1.7-.19,3.24-.68,4.48-1.95,1.68-1.69,1.75-4.15,1.79-5.59v-9.21c-.03-1.44-.11-3.9-1.79-5.59-1.66-1.68-3.88-2.03-6.26-2.05h-25.06v36.11h8.1v-11.61h10.25l7.89,11.61h8.55s-7.94-11.7-7.94-11.7Zm-104.81-24.4v7.91h12.52v28.19h8.04v-28.18h12.53v-7.91h-33.09Zm-83.67,0v36.1h8.02v-22.84l7.84,22.84h7.09l7.85-22.84v22.84h8.02v-36.1h-10.64l-8.77,25.43-8.78-25.43h-10.63Zm405.49,16.74c0,.36-.05.76-.27,1.04-.38.47-1,.45-1.74.45h-15.36v-10.72h15.36c.74.02,1.36,0,1.74.46.22.28.26.68.27,1.03v7.73Zm-25.38,19.36h8.01v-10.34h16.97c2.38-.01,4.6-.37,6.25-2.05,1.68-1.71,1.76-4.16,1.81-5.59v-10.48c-.05-1.45-.13-3.9-1.81-5.59-1.65-1.68-3.87-2.04-6.25-2.06h-24.98v36.1Zm-152.27-27.75c.37-.46.97-.43,1.71-.45h23.06v-7.9h-25.05c-2.37.03-4.59.37-6.26,2.06-1.68,1.69-1.75,4.15-1.78,5.58v20.83c.03,1.44.1,3.89,1.78,5.58,1.67,1.68,3.89,2.04,6.26,2.05h17.02c2.37,0,4.58-.37,6.26-2.05,1.67-1.69,1.75-4.15,1.78-5.58v-13.99h-17.29v7.05h9.27v5.18c-.01.37-.06.77-.29,1.05-.37.47-.98.44-1.73.44h-13.01c-.74,0-1.35.02-1.71-.45-.23-.27-.28-.67-.29-1.04v-17.31c0-.36.06-.76.29-1.04m137.2,18.66c-.03.42.06,1.16-.29,1.61-.39.47-1,.44-1.75.45h-15.02v-29.06h-8.01v36.1h25.04c2.37,0,4.59-.37,6.28-2.05,1.68-1.7,1.75-4.17,1.78-5.61v-28.45h-8.02v27.01Zm-39.94-.3c0,.37-.05.77-.28,1.04-.37.47-.98.44-1.73.45h-13.01c-.74,0-1.36.02-1.71-.45-.24-.27-.29-.67-.31-1.04v-17.31c.01-.36.07-.76.31-1.03.35-.47.97-.44,1.71-.46h13.01c.75.03,1.36,0,1.73.46.23.28.27.67.28,1.03v17.32h0Zm6.24-24.65c-1.66-1.68-3.87-2.03-6.25-2.06h-17.02c-2.36.03-4.57.38-6.25,2.06-1.68,1.7-1.74,4.15-1.79,5.59v20.82c.06,1.44.12,3.89,1.79,5.58,1.68,1.68,3.88,2.04,6.25,2.05h17.02c2.38,0,4.59-.37,6.25-2.05,1.69-1.69,1.76-4.15,1.8-5.58v-20.82c-.03-1.45-.11-3.89-1.8-5.59Zm-184.6,24.65c-.02.37-.06.77-.28,1.04-.37.47-.99.44-1.73.45h-13.02c-.74,0-1.36.02-1.71-.45-.23-.27-.29-.67-.3-1.04v-17.31c.01-.36.07-.76.3-1.03.36-.47.97-.44,1.71-.46h13.01c.75.03,1.36,0,1.74.46.22.28.26.67.28,1.03v17.32h0Zm6.24-24.65c-1.66-1.68-3.88-2.03-6.26-2.06h-17.02c-2.36.03-4.58.38-6.26,2.06-1.68,1.7-1.74,4.15-1.78,5.59v20.82c.05,1.44.11,3.89,1.78,5.58,1.68,1.68,3.89,2.04,6.26,2.05h17.02c2.37,0,4.6-.37,6.26-2.05,1.68-1.69,1.76-4.15,1.78-5.58v-20.82c-.02-1.45-.1-3.89-1.78-5.59Zm-82.24,24.65c-.02.37-.07.77-.29,1.04-.36.47-.97.44-1.72.45h-13.02c-.74,0-1.34.02-1.71-.45-.23-.27-.28-.67-.29-1.04v-17.31c.01-.36.07-.76.29-1.03.37-.47.97-.44,1.71-.46h13.02c.75.03,1.36,0,1.72.46.23.28.28.67.29,1.03v17.32h0Zm6.23-24.65c-1.65-1.68-3.87-2.03-6.25-2.06h-17.01c-2.37.03-4.58.38-6.26,2.06-1.68,1.7-1.74,4.15-1.8,5.59v20.82c.06,1.44.12,3.89,1.8,5.58,1.68,1.68,3.89,2.04,6.26,2.05h17.01c2.38,0,4.6-.37,6.25-2.05,1.69-1.69,1.76-4.15,1.79-5.58v-20.82c-.03-1.45-.1-3.89-1.79-5.59Z"></path></g></g></svg> 