<?xml version="1.0" encoding="UTF-8"?> <svg xmlns="http://www.w3.org/2000/svg" id="Layer_1" viewBox="0 0 800 800"><defs><style>.cls-1{fill:#e30518;}</style></defs><path id="path11" class="cls-1" d="m363.34,448.38c2.01,0,14.23-.07,24.09-.75,11.92-.83,18.07-4.92,22.57-10.78,5.58-7.25,5.55-20.84,5.54-31.42,0-11.81.16-46.04.11-49.09-.04-3.06-1.2-4.65-4.7-4.63-3.51.02-13.39,0-16.79.03l-6.05-.03c-3.51-.03-4.66,1.56-4.71,4.63v3.28c.05,3.62-.05,38.15-.06,46.25v3.59c-.09,7.46-1,14.71-11.55,15.83-4.55.48-6.63.69-12.27.69s-7.72-.21-12.33-.69c-10.54-1.11-11.18-8.38-11.28-15.83v-3.59c-.01-8.1-.11-42.62-.07-46.25v-3.28c-.04-3.06-1.21-4.65-4.71-4.63l-6.05.03c-3.39-.03-13.27,0-16.78-.03-3.5-.03-4.66,1.56-4.7,4.63-.05,3.05-.01,37.28-.03,49.09,0,10.58-.04,24.17,5.54,31.42,4.49,5.86,10.55,9.94,22.43,10.78,9.86.69,21.72.75,24.35.75h7.44,0Zm-214.28-4.44c-.07,3.32-1.05,4.64-4.45,4.72-3.42.1-20.13.04-23.17.02-3.03-.03-4.9-.95-4.91-4.2-.02-3.25-.02-84.92-.04-88.03,0-3.09,1.45-4.55,4.65-4.45,3.19.08,19.61-.09,23.96-.01,3.3-.03,4.07,1.87,4.08,5.27.08,4.56-.04,83.39-.12,86.69m455.32-33.04c.06,7.67,1.91,12.8,10.7,14.16,7.03.73,16.55.88,23.85.13,6.69-.73,11.83-3.44,12.14-11.01.34-6.39.37-7.49.39-14.23.04-16.36-.14-40.12-.09-42.45l.03-.99c-.05-3.62,1.6-5.15,4.67-5.15l1.83-.06c3.49.03,17.54.06,20.94.06,3.07,0,4.72,1.53,4.67,5.15l-.04,1.13c.07,3.42-.04,39.6-.08,50.28-.19,5.36-.57,17.85-4.71,25.78-3.6,6.87-10.04,12.16-20.98,13.25-21.04,2.1-40.23,1.22-55,.61-10.98-.57-18.05-3.03-23.92-9.55-6.64-7.48-6.99-20.26-6.89-34.91-.13-32.34-.23-41.66-.17-44.75v-1.83c-.05-3.62,1.6-5.15,4.67-5.15l1.82-.06c3.52.03,18.1.06,21.51.06,3.06,0,4.72,1.53,4.66,5.15-.05,3.64-.01,45.05,0,54.18m-163.67-59.04c3.28-.1,62.03-.03,80.4.07,16.26.18,22.28,2.5,26.69,8.4,5.09,6.83,5.62,15.38,1.5,22.42-2.95,5.05-8.42,9.45-16.62,13.45-6.51,3.34-17.9,8.42-29.04,13.32-14.92,6.59-28.42,12.29-30.69,13.48-3.07,1.61-1.91,4.03.53,3.99,6.37-.08,67.91-.58,71.19-.58,3.3,0,4.37,1.18,4.37,4.73,0,3.71.03,10.04.04,12.92-.08,3.46-1.18,4.4-4.45,4.43-3.74.04-69.29.06-73.95.08-10.36-.03-21.03.01-27.4-3.07-7.95-3.86-10.64-11.61-10.65-17.03.38-13.23,7.75-17.47,21.03-23.62,14.77-6.7,58.37-25.56,60.97-26.77,3.22-1.5,2.22-4.45-.77-4.35-2.29.05-69.08.39-72.38.39-3.29-.01-5.38-.54-5.38-3.73,0-3.18-.03-11.14-.03-14.42s1.32-3.99,4.62-4.09m-172.48,49.75c-14.77-6.14-57.88-19.77-63.6-22.6-2.75-1.18-2.57-4.7,1.16-4.7,6.37.09,69.55.22,72.85.24,3.3,0,4.68-1.28,4.68-4.83.01-3.7-.01-10.5-.05-13.48-.04-3.03-1.14-4.18-3.86-4.19-2.73,0-75.7.09-75.7.09-20.37-.05-25.59,2.95-31.36,9.88-7.52,9.04-5.13,21.28-.81,27.59,4.86,7.06,12.89,10.18,25.66,14.65,15.47,5.03,51.91,17.85,51.91,17.85,3.34,1.44,3.08,4.94-1.04,4.94,0,0-69.5-.62-72.8-.63-3.3,0-4.91,1.61-4.92,4.79,0,3.19-.03,9.03-.04,12.34,0,3.28.95,5.15,4.25,5.26,3.28.11,63.04-.11,81.42-.15,13.98-.04,27.49-4.36,30.26-19.8,1.66-13.31-3.97-21.55-18-27.25"></path></svg> 