<?xml version="1.0" encoding="UTF-8"?> <svg xmlns="http://www.w3.org/2000/svg" xmlns:xlink="http://www.w3.org/1999/xlink" id="Layer_1" viewBox="0 0 800 800"><defs><style>.cls-1{fill:url(#linear-gradient-3);}.cls-1,.cls-2{opacity:.4;}.cls-1,.cls-2,.cls-3{isolation:isolate;}.cls-2{fill:url(#linear-gradient-4);}.cls-3{fill:url(#linear-gradient-8);opacity:.8;}.cls-4{fill:url(#linear-gradient-7);fill-opacity:.8;}.cls-5{fill:url(#linear-gradient);}.cls-6{fill:#fff;}.cls-7{fill:#fdfdfd;}.cls-8{fill:#334048;}.cls-9{fill:#343e46;}.cls-10{fill:#576166;}.cls-11{fill:rgba(164,170,174,.6);}.cls-12{fill:url(#linear-gradient-9);}.cls-13{fill:url(#linear-gradient-2);}.cls-14{fill:url(#linear-gradient-6);}.cls-15{fill:url(#linear-gradient-5);}.cls-16{fill:url(#linear-gradient-14);}.cls-17{fill:url(#linear-gradient-13);}.cls-18{fill:url(#linear-gradient-12);}.cls-19{fill:url(#linear-gradient-10);}.cls-20{fill:url(#linear-gradient-11);}</style><linearGradient id="linear-gradient" x1="357.14" y1="1213.58" x2="654.51" y2="964.53" gradientTransform="translate(-105.86 1489.06) scale(1 -1)" gradientUnits="userSpaceOnUse"><stop offset="0" stop-color="#fff"></stop><stop offset=".1" stop-color="#e9e8e7"></stop><stop offset=".1" stop-color="#ced0d1"></stop><stop offset=".2" stop-color="#b6bbbd"></stop><stop offset=".2" stop-color="#a6adaf"></stop><stop offset=".3" stop-color="#9ca3a7"></stop><stop offset=".3" stop-color="#99a1a4"></stop><stop offset=".4" stop-color="#838a8f"></stop><stop offset=".5" stop-color="#677176"></stop><stop offset=".6" stop-color="#565d65"></stop><stop offset=".7" stop-color="#48535a"></stop><stop offset=".8" stop-color="#434e55"></stop><stop offset="1" stop-color="#485258"></stop></linearGradient><linearGradient id="linear-gradient-2" x1="366.36" y1="1206.34" x2="645" y2="972.28" gradientTransform="translate(-105.86 1489.06) scale(1 -1)" gradientUnits="userSpaceOnUse"><stop offset="0" stop-color="#0d212b"></stop><stop offset=".2" stop-color="#334048"></stop><stop offset=".5" stop-color="#777f85"></stop><stop offset=".5" stop-color="#81898d"></stop><stop offset=".7" stop-color="#b5b8b8"></stop><stop offset=".8" stop-color="#d3d6d4"></stop><stop offset=".8" stop-color="#dee0dd"></stop><stop offset="1" stop-color="#fdfdfd"></stop></linearGradient><linearGradient id="linear-gradient-3" x1="-976.89" y1="305.03" x2="-841.28" y2="-67.73" gradientTransform="translate(-509.19 281.06) rotate(-180) scale(1 -1)" gradientUnits="userSpaceOnUse"><stop offset="0" stop-color="#e1e3df"></stop><stop offset=".1" stop-color="#c3c5c4"></stop><stop offset=".3" stop-color="#9ca1a1"></stop><stop offset=".5" stop-color="#7e8488"></stop><stop offset=".7" stop-color="#687074" stop-opacity="0"></stop><stop offset=".8" stop-color="#5c656b" stop-opacity="0"></stop><stop offset="1" stop-color="#586267" stop-opacity="0"></stop></linearGradient><linearGradient id="linear-gradient-4" x1="420.38" y1="1237.1" x2="591.34" y2="941.01" gradientTransform="translate(-105.86 1489.06) scale(1 -1)" xlink:href="#linear-gradient-3"></linearGradient><linearGradient id="linear-gradient-5" x1="583.18" y1="1043.26" x2="572.65" y2="1025.92" gradientTransform="translate(-105.86 1489.06) scale(1 -1)" gradientUnits="userSpaceOnUse"><stop offset="0" stop-color="#28363e"></stop><stop offset="1" stop-color="#09121c" stop-opacity="0"></stop></linearGradient><linearGradient id="linear-gradient-6" x1="552.8" y1="1106.92" x2="535.46" y2="1134.78" gradientTransform="translate(-105.86 1489.06) scale(1 -1)" gradientUnits="userSpaceOnUse"><stop offset=".1" stop-color="#09131e"></stop><stop offset=".9" stop-color="#09131e" stop-opacity="0"></stop></linearGradient><linearGradient id="linear-gradient-7" x1="505.73" y1="1062.11" x2="479.72" y2="1054.68" gradientTransform="translate(-105.86 1489.06) scale(1 -1)" gradientUnits="userSpaceOnUse"><stop offset=".2" stop-color="#09131e"></stop><stop offset=".9" stop-color="#09131e" stop-opacity="0"></stop></linearGradient><linearGradient id="linear-gradient-8" x1="436.4" y1="1027.7" x2="432.69" y2="1036.99" gradientTransform="translate(-105.86 1489.06) scale(1 -1)" gradientUnits="userSpaceOnUse"><stop offset="0" stop-color="#09131e"></stop><stop offset=".1" stop-color="#09131e"></stop><stop offset="1" stop-color="#09131e" stop-opacity="0"></stop></linearGradient><linearGradient id="linear-gradient-9" x1="528.13" y1="1180.65" x2="507.08" y2="1178.18" gradientTransform="translate(-105.86 1489.06) scale(1 -1)" gradientUnits="userSpaceOnUse"><stop offset=".3" stop-color="#09131e"></stop><stop offset=".3" stop-color="#09131e"></stop><stop offset=".8" stop-color="#09131e" stop-opacity="0"></stop></linearGradient><linearGradient id="linear-gradient-10" x1="528.81" y1="1181.01" x2="514.56" y2="1179.15" gradientTransform="translate(-105.86 1489.06) scale(1 -1)" gradientUnits="userSpaceOnUse"><stop offset=".4" stop-color="#28363e"></stop><stop offset="1" stop-color="#3c484e" stop-opacity="0"></stop></linearGradient><linearGradient id="linear-gradient-11" x1="305.46" y1="1083.86" x2="478.22" y2="984.17" gradientTransform="translate(-105.86 1489.06) scale(1 -1)" gradientUnits="userSpaceOnUse"><stop offset="0" stop-color="#25313b" stop-opacity="0"></stop><stop offset="0" stop-color="#26343d" stop-opacity="0"></stop><stop offset=".1" stop-color="#28363e"></stop></linearGradient><linearGradient id="linear-gradient-12" x1="505.58" y1="1055.58" x2="505.58" y2="1085.3" gradientTransform="translate(-105.86 1489.06) scale(1 -1)" gradientUnits="userSpaceOnUse"><stop offset=".3" stop-color="#a5abaf"></stop><stop offset="1" stop-color="#a5abaf" stop-opacity="0"></stop></linearGradient><linearGradient id="linear-gradient-13" x1="602.8" y1="1273.01" x2="602.8" y2="895.18" gradientTransform="translate(-105.86 1489.06) scale(1 -1)" gradientUnits="userSpaceOnUse"><stop offset="0" stop-color="#dee0dd"></stop><stop offset="0" stop-color="#c7cac8"></stop><stop offset="0" stop-color="#9fa4a5"></stop><stop offset="0" stop-color="#82898c"></stop><stop offset="0" stop-color="#72797e"></stop><stop offset="0" stop-color="#6b7479"></stop><stop offset=".2" stop-color="#334048"></stop><stop offset=".5" stop-color="#28363e"></stop><stop offset=".8" stop-color="#334048"></stop><stop offset="1" stop-color="#434e55"></stop></linearGradient><linearGradient id="linear-gradient-14" x1="662.53" y1="1237.01" x2="578.93" y2="1114.41" gradientTransform="translate(-105.86 1489.06) scale(1 -1)" gradientUnits="userSpaceOnUse"><stop offset=".7" stop-color="#28363e"></stop><stop offset=".7" stop-color="#2a373f"></stop><stop offset=".7" stop-color="#36424b"></stop><stop offset=".7" stop-color="#4a565e"></stop><stop offset=".8" stop-color="#656e74" stop-opacity="0"></stop><stop offset=".8" stop-color="#878d93" stop-opacity="0"></stop><stop offset=".8" stop-color="#b0b6b9" stop-opacity="0"></stop><stop offset=".8" stop-color="#e0e2e2" stop-opacity="0"></stop><stop offset=".8" stop-color="#fff" stop-opacity="0"></stop></linearGradient></defs><path class="cls-5" d="m593.87,400c0,107.05-86.63,193.87-193.87,193.87s-193.87-86.63-193.87-193.87,86.63-193.87,193.87-193.87,193.87,86.82,193.87,193.88Zm-193.87-182.04c-100.94,0-182.04,81.1-182.04,182.04s81.67,182.04,182.04,182.04,182.04-81.67,182.04-182.04-81.1-182.04-182.04-182.04Z"></path><path class="cls-13" d="m400,217.96c-100.94,0-182.04,81.1-182.04,182.04s81.67,182.04,182.04,182.04,182.04-81.67,182.04-182.04-81.1-182.04-182.04-182.04Zm0,352.45c-94.08,0-170.21-76.14-170.21-170.21s76.14-170.21,170.21-170.21,170.21,76.14,170.21,170.21-76.14,170.21-170.21,170.21Z"></path><path class="cls-1" d="m400,593.87c107.05,0,193.87-86.63,193.87-193.87s-86.63-193.87-193.87-193.87-193.87,86.63-193.87,193.87,86.82,193.87,193.87,193.87Zm0-391.95c108.96,0,198.07,89.11,198.07,198.07s-89.11,198.07-198.07,198.07-198.07-89.11-198.07-198.07,89.11-198.07,198.07-198.07Z"></path><path class="cls-6" d="m215.48,400.57c0-101.52,82.44-185.1,184.52-185.1s184.52,83.01,184.52,185.1-82.44,183.95-184.52,183.95-184.52-82.24-184.52-183.95Zm57.63-127.47c-32.82,32.82-53.24,78.05-53.24,127.47s20.42,94.65,52.67,126.9c32.82,32.25,78.05,52.67,127.47,52.67s94.65-19.85,126.9-52.67c32.82-32.25,52.67-77.47,52.67-126.9s-20.42-94.65-52.67-127.47c-32.25-32.82-77.47-53.24-126.9-53.24s-94.84,20.42-126.9,53.24Z"></path><path class="cls-2" d="m400,570.98c-45.8,0-88.54-17.94-120.79-50.19s-50.19-74.99-50.19-120.79,17.94-88.54,50.19-120.79,74.99-50.19,120.79-50.19,88.54,17.94,120.79,50.19c32.25,32.25,50.19,74.99,50.19,120.79s-17.94,88.54-50.19,120.79c-32.25,32.25-74.99,50.19-120.79,50.19Zm0-4.96c43.89,0,86.06-17.36,116.97-48.28,31.49-31.49,48.28-73.08,48.28-116.97s-17.36-86.06-48.28-116.97c-31.49-31.49-73.08-48.28-116.97-48.28s-86.06,17.36-116.97,48.28c-31.49,30.34-48.85,72.51-48.85,116.4s17.36,86.06,48.28,116.97c31.49,31.49,73.66,48.85,117.55,48.85Z"></path><path class="cls-6" d="m550.37,480.53c-3.05-2.48-122.51-97.13-122.51-97.13l-27.86-159.15c-1.91.57-4.39,2.48-5.53,4.96l-19.85,154.76-123.27,94.65s-2.48,3.05-3.63,4.96c-.57,1.14-.57,3.05-.57,4.96l152.28-62.59,152.28,62.59c1.14-3.05,0-6.11-1.34-8.01Z"></path><path class="cls-10" d="m401.14,404.96l-1.14,28.43,139.87,56.29c4.96,2.48,8.59,1.14,12.4-1.14l-149.22-84.15c-.57-.57-1.91,0-1.91.57Z"></path><path class="cls-15" d="m401.14,404.96s8.01,14.31,17.36,24.23c12.98,14.31,30.34,24.23,30.34,24.23l91.02,36.45c4.96,2.48,8.59,1.14,12.4-1.14l-149.22-84.34c-.57-.57-1.91,0-1.91.57Z"></path><path class="cls-11" d="m551.7,483.01c0-.57-.57-1.14-1.14-2.48l-127.47-93.5-17.36,11.07s1.14.57,1.91,0c1.91-.57,5.53-1.14,9.35,0,3.05,1.14,134.91,85.49,134.91,85.49v-.57h-.19Z"></path><path class="cls-9" d="m547.31,477.47l-118.88-94.08-5.53,3.63,127.47,94.08c-.57-1.14-1.72-2.48-3.05-3.63Z"></path><path class="cls-10" d="m403.05,395.61l-.57.57s0,1.14,1.14.57c.57-.57,18.51-9.92,24.81-13.55l-21.56-148.46c-.57-5.53-3.05-8.01-7.44-9.92l2.48,172.12s1.14-1.34,1.14-1.34Z"></path><path class="cls-11" d="m392.56,234.75v8.01l-13.55,136.82c0,1.91.57,3.63,2.48,4.96l8.01,6.11,5.53-151.13.57-11.83c-1.91,1.53-2.48,4.01-3.05,7.06Zm-7.44,158.57l-7.44-6.11-125.75,91.02s-3.63,2.48-4.39,4.96l4.39-2.48,131.86-83.01c2.67-1.34,3.24-2.67,1.34-4.39Z"></path><path class="cls-10" d="m398.09,404.96c0-.57-.57-1.14-1.14-.57l-149.8,84.92c3.63,2.48,7.44,3.05,12.4,1.14l139.87-56.29-1.34-29.2Z"></path><path class="cls-14" d="m402.48,396.37l.57-.57-.57.57s0,.57.57.57h.57c.57-.57,18.51-9.92,24.81-13.55l-2.48-17.94-19.08-130.71c0-2.48-.57-4.39-1.91-5.53,0,0,9.35,124.99,9.35,138.73,0,17.94-11.83,28.43-11.83,28.43Z"></path><path class="cls-4" d="m398.09,404.96c0-.57-.57-1.14-1.14-.57l-149.8,84.92c3.63,2.48,7.44,3.05,12.4,1.14l139.87-56.29-1.34-29.2Z"></path><path class="cls-3" d="m259.36,489.88l139.87-56.29-1.14-27.29c-2.48,7.44-6.87,15.46-18.51,21.75-8.59,4.96-91.59,45.8-121.36,60.11-1.91,1.14-4.39,1.91-5.53,2.48,2.48.95,4.2.38,6.68-.76Z"></path><path class="cls-12" d="m403.05,395.61l-.57.57s0,1.14,1.14.57c.57-.57,18.51-9.92,24.81-13.55l-21.56-148.46c-.57-5.53-3.05-8.01-7.44-9.92l2.48,172.12s1.14-1.34,1.14-1.34Z"></path><path class="cls-19" d="m403.05,395.61l-.57.57s0,1.14,1.14.57c.57-.57,18.51-9.92,24.81-13.55l-21.56-148.46c-.57-5.53-3.05-8.01-7.44-9.92l2.48,172.12s1.14-1.34,1.14-1.34Z"></path><path class="cls-20" d="m233.41,476.9c-4.39-9.92-29.2-58.2-1.91-151.13h-10.5c-5.53,18.51-9.92,29.77-12.4,46.37,0,0-1.14,6.11-1.91,12.98s-.57,10.5-.57,14.88c0,37.21,9.35,58.77,9.35,58.77,9.92,30.91,27.29,58.77,50.76,79.95,20.42,17.94,52.09,31.49,78.05,36.45-4.39-.57-78.62-32.06-110.87-98.27Z"></path><path class="cls-18" d="m402.48,403.82h-5.53c.57,0,1.14,0,1.14.57l1.14,28.43h.57l1.34-28.43c0-.57.76-1.34,1.34-.57Z"></path><path class="cls-17" d="m461.83,216.05c65.07,24.81,126.32,92.93,126.32,178.99,0,104-83.01,188.91-188.15,188.91v9.92c105.33,0,193.87-86.63,193.87-193.87,0-85.49-54.58-157.24-132.05-183.95Z"></path><path class="cls-16" d="m566.01,326.92c-43.32-99.61-141.21-105.33-146.74-105.91h-.57c74.99,13.55,122.51,62.59,139.3,113.92v.57c7.44,19.85,11.07,40.84,11.83,63.73.57,21.75-4.39,45.8-13.55,68.12-.57,3.05-1.14,6.87-1.91,6.87h9.92c29.58-55.53,16.41-112.01,1.72-147.31Z"></path><path class="cls-7" d="m215.48,400.57c0-101.52,82.44-185.1,184.52-185.1s184.52,83.01,184.52,185.1-82.44,183.95-184.52,183.95-184.52-82.24-184.52-183.95Zm57.63-127.47c-32.82,32.82-53.24,78.05-53.24,127.47s20.42,94.65,52.67,126.9c32.82,32.25,78.05,52.67,127.47,52.67s94.65-19.85,126.9-52.67c32.82-32.25,52.67-77.47,52.67-126.9s-20.42-94.65-52.67-127.47c-32.25-32.82-77.47-53.24-126.9-53.24s-94.84,20.42-126.9,53.24Z"></path><path class="cls-8" d="m250.78,479.38l126.32-91.02c6.87,3.63,17.94,8.59,19.27,8.59,1.14.57,1.14-.57,1.14-.57l-15.46-12.98c-1.91-1.14-2.48-3.05-2.48-4.96l14.88-149.22c-.57.57-.57,1.91-1.14,2.48-.57,1.14-.57,1.91-.57,3.05l-21.75,149.22-118.88,93.5c-.76.57-1.34,1.14-1.34,1.91Z"></path></svg> 