<?xml version="1.0" encoding="UTF-8"?> <svg xmlns="http://www.w3.org/2000/svg" id="Layer_1" viewBox="0 0 800 800"><defs><style>.cls-1{fill:#e30519;}.cls-2{fill:#241a17;}</style></defs><g id="g44"><g id="g34"><polygon id="polygon2" class="cls-2" points="203.67 509.48 203.67 548.43 191.3 548.43 191.3 493.17 207.35 493.17 220.51 515.8 233.14 493.17 249.46 493.17 249.46 548.43 237.09 548.43 237.09 509.48 220.51 537.38 203.67 509.48"></polygon><rect id="rect4" class="cls-2" x="259.99" y="493.17" width="12.37" height="55.27"></rect><polygon id="polygon6" class="cls-2" points="305.26 504.75 305.26 548.43 292.62 548.43 292.62 504.75 277.88 504.75 277.88 493.17 320.26 493.17 320.26 504.75 305.26 504.75"></polygon><path id="path8" class="cls-2" d="m324.73,547.91v-11.58c2.63.53,8.68,1.58,16.32,1.58,6.32,0,9.47-.79,9.47-4.47,0-3.95-2.63-4.47-11.58-8.68-8.68-3.95-15.26-7.37-15.26-16.84,0-11.58,7.11-15.53,20.79-15.53,7.11,0,12.11.53,15.53,1.05v11.58c-3.16-.26-8.68-1.05-15-1.05-7.37,0-8.95.79-8.95,3.95s3.95,4.74,10,7.37c9.21,4.21,16.58,7.63,16.58,18.16,0,11.05-6.84,16.05-21.58,16.05-5.79-.26-11.05-.79-16.32-1.58"></path><path id="path10" class="cls-2" d="m370.26,529.75v-36.58h12.37v36.06c0,6.32,3.68,8.42,9.74,8.42s9.74-2.11,9.74-8.42v-36.06h12.37v36.58c0,13.42-8.68,19.48-22.11,19.48s-22.11-6.05-22.11-19.48"></path><path id="path12" class="cls-2" d="m425,493.17h24.21c11.32,0,17.63,4.21,17.63,14.21,0,7.9-4.47,10.53-8.68,12.11,5,1.58,10.26,4.21,10.26,13.42,0,9.74-5.79,15.53-18.16,15.53h-25v-55.27h-.26Zm22.37,22.37c5,0,6.84-2.63,6.84-6.32,0-4.47-2.11-5.53-6.84-5.53h-10v11.84h10Zm.79,22.63c5,0,7.11-1.84,7.11-6.58,0-4.21-1.84-6.05-6.58-6.05h-11.32v12.63h10.79Z"></path><rect id="rect14" class="cls-2" x="475.53" y="493.17" width="12.37" height="55.27"></rect><path id="path16" class="cls-2" d="m496.85,547.91v-11.58c2.63.53,8.68,1.58,16.32,1.58,6.32,0,9.47-.79,9.47-4.47,0-3.95-2.63-4.47-11.58-8.68-8.68-3.95-15.26-7.37-15.26-16.84,0-11.58,7.11-15.53,20.79-15.53,7.11,0,12.11.53,15.53,1.05v11.58c-3.16-.26-8.68-1.05-15-1.05-7.37,0-8.95.79-8.95,3.95s3.95,4.74,10,7.37c9.21,4.21,16.58,7.63,16.58,18.16,0,11.05-6.84,16.05-21.58,16.05-5.53-.26-11.05-.79-16.32-1.58"></path><polygon id="polygon18" class="cls-2" points="553.96 548.43 541.59 548.43 541.59 493.17 553.96 493.17 553.96 515.01 573.7 515.01 573.7 493.17 586.07 493.17 586.07 548.43 573.7 548.43 573.7 526.59 553.96 526.59 553.96 548.43"></polygon><rect id="rect20" class="cls-2" x="596.33" y="493.17" width="12.37" height="55.27"></rect><polygon id="polygon22" class="cls-2" points="261.83 583.96 261.83 622.91 249.2 622.91 249.2 567.65 265.25 567.65 278.41 590.02 291.31 567.65 307.62 567.65 307.62 622.91 294.99 622.91 294.99 583.96 278.41 611.86 261.83 583.96"></polygon><path id="path24" class="cls-2" d="m316.05,595.28c0-19.74,7.63-28.42,23.95-28.42s23.95,8.68,23.95,28.42-7.63,28.42-23.95,28.42-23.95-8.68-23.95-28.42m34.74,0c0-11.32-1.84-17.11-11.05-17.11s-11.05,5.79-11.05,17.11,1.84,17.11,11.05,17.11,11.05-5.79,11.05-17.11"></path><polygon id="polygon26" class="cls-2" points="393.16 579.23 393.16 622.91 380.79 622.91 380.79 579.23 365.79 579.23 365.79 567.65 408.16 567.65 408.16 579.23 393.16 579.23"></polygon><path id="path28" class="cls-2" d="m410.26,595.28c0-19.74,7.63-28.42,23.95-28.42s23.95,8.68,23.95,28.42-7.63,28.42-23.95,28.42-23.95-8.68-23.95-28.42m34.74,0c0-11.32-1.84-17.11-11.05-17.11s-11.05,5.79-11.05,17.11,1.84,17.11,11.05,17.11,11.05-5.79,11.05-17.11"></path><path id="path30" class="cls-2" d="m466.32,567.65h22.37c11.84,0,19.48,4.47,19.48,17.63,0,8.68-4.21,14.21-11.32,15.79l13.69,21.84h-14.47l-11.58-19.74h-5.53v19.74h-12.37v-55.27h-.26Zm21.84,24.74c5.53,0,7.37-2.89,7.37-7.11s-1.84-7.11-7.37-7.11h-9.21v14.21h9.21Z"></path><path id="path32" class="cls-2" d="m515.54,622.12v-11.58c2.63.53,8.68,1.58,16.32,1.58,6.32,0,9.47-.79,9.47-4.47,0-3.95-2.63-4.47-11.58-8.68-8.68-3.95-15.26-7.37-15.26-16.84,0-11.58,7.11-15.53,20.79-15.53,7.11,0,12.11.53,15.53,1.05v11.58c-3.16-.26-8.68-1.05-15-1.05-7.37,0-8.95.79-8.95,3.68,0,3.16,3.95,4.74,10,7.37,9.21,4.21,16.58,7.63,16.58,18.16,0,11.05-6.84,16.05-21.58,16.05-5.53.26-11.05-.26-16.32-1.32"></path></g><g id="g42"><polygon id="polygon36" class="cls-1" points="399.21 359.73 452.37 267.88 399.21 176.3 346.31 267.88 399.21 359.73"></polygon><polygon id="polygon38" class="cls-1" points="399.21 359.73 452.37 451.32 558.17 451.32 505.27 359.73 399.21 359.73"></polygon><polygon id="polygon40" class="cls-1" points="399.21 359.73 346.31 451.32 240.51 451.32 293.41 359.73 399.21 359.73"></polygon></g></g></svg> 