<svg xmlns="http://www.w3.org/2000/svg" width="81" height="46" fill="none"><path fill="#C5003E" d="M77.642 21.62h-.727l-.406 1.908h-.287l.406-1.909H75.9l.052-.24h1.743l-.053.24Zm.291-.242h.4l.288 1.849h.005l1.07-1.85h.399l-.458 2.151h-.275l.442-1.883h-.007l-1.102 1.883h-.274l-.282-1.883h-.006l-.378 1.883h-.275l.453-2.15Z"/><path fill="#000" fill-rule="evenodd" d="M8.526 4.73C9.642 2.658 12.233.982 14.316.982h14.582l-9.774 18.384H.772L8.526 4.73Zm29.805 5.46c.788-1.462 2.618-2.647 4.088-2.647h9.975l-4.813 9.177c-.788 1.463-2.618 2.648-4.088 2.648h-9.974l4.812-9.177Z" clip-rule="evenodd"/><path fill="#000" fill-rule="evenodd" d="M55.05 2.42c.418-.774 1.389-1.402 2.166-1.402h5.22L59.64 6.21c-.418.775-1.388 1.403-2.166 1.403h-5.22l2.797-5.191ZM19.124 19.366h14.418L25.837 33.67H11.419l7.705-14.305Z" clip-rule="evenodd"/><path fill="#000" fill-rule="evenodd" d="M25.836 33.67h10.11l-4.606 8.55c-.58 1.075-1.926 1.947-3.008 1.947h-8.15l5.654-10.498Z" clip-rule="evenodd"/><path fill="#C5003E" d="m53.212 23.929-2.768 5.178c-.18.34.046.583.387.615.25.023.511-.004.853-.14l-1.119 2.085c-.385.105-.599.165-.973.165-1.641 0-2.406-1.101-1.678-2.466l4.653-8.704c.303-.568 1.013-1.029 1.584-1.029h1.355l-1.092 2.049h1.405l-1.2 2.247h-1.407Zm-13.998.381-.043.097-1.146 2.143-2.148 4.016c-.181.338-.505.64-.86.829a1.603 1.603 0 0 1-.739.209h-1.393l2.702-5.055 1.198-2.24c.01-.03.023-.06.04-.087.118-.301-.02-.533-.333-.533-.345 0-.772.277-.956.62l-1.197 2.24-2.149 4.017c-.306.573-1.022 1.038-1.598 1.038h-1.393l3.9-7.295c.831-1.705 1.818-2.869 4.636-2.869h3.677c1.407 0 2.576.817 1.485 2.87l-3.343 6.256c-.307.573-1.022 1.038-1.599 1.038h-1.393l2.7-5.055 1.198-2.239c.184-.343.053-.62-.292-.62s-.77.277-.954.62Zm28.838-.434-.87 1.628h-2.354l.703-1.316c.182-.34.052-.615-.29-.615-.342 0-.766.276-.947.616l-2.367 4.426-.21.395c-.182.34-.052.615.29.615.341 0 .765-.22 1.131-.964l.32-.6h-.595l.948-1.768h2.95l-1.617 3.024-.022.04c-.73 1.367-2.653 2.475-4.295 2.475s-2.38-1.106-1.652-2.47l.398-.746 2.556-4.781c.73-1.365 2.653-2.472 4.294-2.472 1.64 0 2.38 1.108 1.653 2.474l-.024.04Zm-13.2 5.132c-.182.34-.052.616.29.616.341 0 .765-.276.947-.616l2.572-4.796c.182-.34.052-.616-.29-.616-.342 0-.766.276-.947.616l-2.573 4.796Zm6.33-5.108-2.903 5.416-.02.04c-.732 1.367-2.655 2.474-4.297 2.474-1.643 0-2.38-1.106-1.653-2.47l2.948-5.503c.732-1.365 2.654-2.471 4.295-2.471s2.382 1.107 1.653 2.473l-.023.041Zm-17.465 5.108c-.182.34-.051.616.29.616.34 0 .765-.276.947-.616l2.573-4.796c.181-.34.051-.616-.29-.616-.341 0-.766.276-.948.616l-2.572 4.796Zm6.227-5.108-2.903 5.416-.02.04c-.731 1.367-2.654 2.474-4.297 2.474-1.643 0-2.38-1.106-1.653-2.47l2.949-5.503c.731-1.365 2.653-2.471 4.296-2.471 1.643 0 2.381 1.107 1.651 2.473l-.023.041Zm21.224.299-.113.203-1.034 1.936h.41c.457 0 1.024-.367 1.267-.822l.707-1.315c.181-.34.052-.615-.29-.615-.34 0-.765.273-.947.613Zm-2.303 4.3-1.113 2.083c-.303.568-1.013 1.029-1.584 1.029h-1.381l2.97-5.557.896-1.681c1.271-2.474 2.83-3.01 4.646-3.01 2.05 0 2.314 1.35 1.422 3.018l-.064.117-.779 1.456-.049.097c-.739 1.381-2.696 2.502-4.372 2.502-.198 0-.396-.018-.592-.054Z"/></svg>