<?xml version="1.0" encoding="UTF-8"?> <svg xmlns="http://www.w3.org/2000/svg" id="Layer_1" viewBox="0 0 800 800"><defs><style>.cls-1{fill:#010101;}</style></defs><path class="cls-1" d="m161.37,433.54c-8.86,0-18.4,5.46-18.4,17.48,0,16.81,14.04,18.12,18.33,18.12s18.37-1.31,18.37-18.12c.04-12.02-9.47-17.48-18.3-17.48m0,29.25c-4.93,0-10.71-3.05-10.71-11.74,0-6.63,4.29-11.06,10.64-11.06s10.71,4.43,10.71,11.06c0,8.69-5.74,11.74-10.64,11.74Z"></path><polyline class="cls-1" points="193.85 468.51 201.15 468.51 201.15 440.28 212.67 440.28 212.67 434.22 182.32 434.22 182.32 440.28 193.85 440.28 193.85 468.51"></polyline><path class="cls-1" d="m234.16,433.54c-8.86,0-18.37,5.46-18.37,17.48,0,16.81,14.04,18.12,18.33,18.12s18.4-1.31,18.4-18.12c-.04-12.02-9.54-17.48-18.37-17.48m0,29.25c-4.93,0-10.71-3.05-10.71-11.74,0-7.66,5.35-11.06,10.64-11.06,6.42,0,10.71,4.43,10.71,11.06,0,8.69-5.71,11.74-10.64,11.74Z"></path><path class="cls-1" d="m280.4,455.56c4.86-1.17,8.12-5.21,8.12-10.11,0-9.33-7.66-11.28-14.08-11.28h-15.96v34.29h7.3v-11.28h6.38l8.19,11.28h9.11l-9.86-12.73.78-.18m-7.45-4.4h-7.06v-10.89h6.88c5.39,0,8.01,1.7,8.01,5.21.04,3.79-2.55,5.67-7.84,5.67Z"></path><path class="cls-1" d="m331.71,462.8c-7.84,0-12.69-4.4-12.69-11.49s4.61-11.42,13.01-11.42c3.94,0,6.81.67,9.29,1.42v-6.38c-3.26-.96-7.34-1.38-9.96-1.38-9.22,0-20,4.65-20,17.8,0,11.31,7.27,17.8,19.89,17.8,3.01,0,6.77-.39,10.14-1.1v-6.81c-2.13.64-5.6,1.52-9.5,1.56h-.18"></path><path class="cls-1" d="m365.11,433.54c-8.86,0-18.4,5.46-18.4,17.48,0,16.81,14.04,18.12,18.33,18.12s18.4-1.31,18.4-18.12c0-12.02-9.5-17.48-18.33-17.48m0,29.25c-4.93,0-10.71-3.05-10.71-11.74,0-7.66,5.35-11.06,10.64-11.06,6.42,0,10.71,4.43,10.71,11.06,0,8.69-5.74,11.74-10.64,11.74Z"></path><path class="cls-1" d="m412.3,455.56c4.86-1.17,8.12-5.21,8.12-10.11,0-9.33-7.66-11.28-14.08-11.28h-15.96v34.29h7.3v-11.28h6.38l8.19,11.28h9.11l-9.86-12.73.78-.18m-7.41-4.4h-7.06v-10.89h6.88c5.39,0,8.01,1.7,8.01,5.21,0,3.79-2.55,5.67-7.84,5.67Z"></path><path class="cls-1" d="m444.15,434.22h-15.74v34.29h7.3v-9.75h8.47c7.16,0,14.79-3.23,14.79-12.3,0-8.26-4.82-12.23-14.82-12.23m-.71,18.47h-7.73v-12.41h7.59c3.72,0,8.01.67,8.01,5.96-.04,5.67-3.97,6.45-7.87,6.45Z"></path><path class="cls-1" d="m482.26,433.54c-8.86,0-18.4,5.46-18.4,17.48,0,16.81,14.04,18.12,18.33,18.12s18.4-1.31,18.4-18.12c0-12.02-9.5-17.48-18.33-17.48m0,29.25c-4.93,0-10.71-3.05-10.71-11.74,0-6.63,4.29-11.06,10.64-11.06s10.71,4.43,10.71,11.06c.04,8.69-5.71,11.74-10.64,11.74Z"></path><path class="cls-1" d="m529.49,455.56c4.86-1.17,8.12-5.21,8.12-10.11,0-9.33-7.66-11.28-14.08-11.28h-15.96v34.29h7.3v-11.28h6.38l8.19,11.28h9.11l-9.86-12.73.78-.18m-7.41-4.4h-7.06v-10.89h6.88c5.39,0,8.01,1.7,8.01,5.21,0,3.79-2.55,5.67-7.84,5.67Z"></path><path class="cls-1" d="m555.27,434.22l-12.87,34.29h7.27l2.3-6.42h17.23l2.06,6.42h8.08l-13.12-34.29h-10.96m-1.21,21.77l6.38-16.84,6.63,16.84h-13.01Z"></path><polyline class="cls-1" points="588.92 468.51 596.23 468.51 596.23 440.28 607.75 440.28 607.75 434.22 577.4 434.22 577.4 440.28 588.92 440.28 588.92 468.51"></polyline><rect class="cls-1" x="614.91" y="434.22" width="7.3" height="34.29"></rect><path class="cls-1" d="m647.96,433.54c-8.86,0-18.37,5.46-18.37,17.48,0,16.81,14.04,18.12,18.33,18.12s18.4-1.31,18.4-18.12c-.04-12.02-9.54-17.48-18.37-17.48m0,29.25c-4.93,0-10.71-3.05-10.71-11.74,0-7.66,5.35-11.06,10.64-11.06,6.38,0,10.71,4.43,10.71,11.06,0,8.69-5.74,11.74-10.64,11.74Z"></path><polyline class="cls-1" points="697.78 457.55 682.03 434.25 673.17 434.25 673.17 468.51 680.33 468.51 680.33 443.51 697.42 468.51 704.94 468.51 704.94 434.25 697.78 434.25 697.78 457.55"></polyline><polyline class="cls-1" points="102.58 434.22 95.06 434.22 95.06 468.51 102.36 468.51 102.36 447.48 113.36 468.51 118.46 468.51 129.49 447.48 129.49 468.51 136.79 468.51 136.79 434.22 129.28 434.22 115.91 459.07 102.58 434.22"></polyline><path class="cls-1" d="m449.11,358.8h-41.49c-1.88,0-3.97-.14-4.96-.43-3.69-.99-5.43-4.22-5.43-7.52,0-2.84,1.56-6.28,5.5-7.48,1.17-.35,2.3-.39,4.72-.39h58.86v-12.13h-59.82c-2.34,0-4.25.07-5.92.32-9.68,1.35-16.7,9.43-16.7,19.71,0,9.18,5.92,18.26,16.45,19.82,2.3.35,5.82.28,6.77.28h40.21c.57,0,2.59.04,3.12.11,4.79.67,7.27,4.36,7.27,8.47,0,3.47-2.13,7.45-6.84,8.3-.6.11-2.73.18-3.44.18h-61.52v12.27h62.48c.74,0,4.22-.04,4.93-.11,11.67-1.06,17.76-10.6,17.76-20.71,0-8.9-5.53-19.32-16.81-20.46-2.38-.28-4.33-.25-5.14-.25Z"></path><path class="cls-1" d="m330.36,358.8h-41.49c-1.88,0-3.97-.14-4.96-.43-3.69-.99-5.43-4.22-5.43-7.52,0-2.84,1.56-6.28,5.5-7.48,1.17-.35,2.3-.39,4.72-.39h58.86v-12.13h-59.82c-2.34,0-4.25.07-5.92.32-9.68,1.35-16.7,9.43-16.7,19.71,0,9.18,5.92,18.26,16.45,19.82,2.3.35,5.82.28,6.77.28h40.21c.57,0,2.59.04,3.12.11,4.79.67,7.27,4.36,7.27,8.47,0,3.47-2.13,7.45-6.84,8.3-.6.11-2.73.18-3.44.18h-61.52v12.27h62.48c.74,0,4.22-.04,4.93-.11,11.67-1.06,17.76-10.6,17.76-20.71,0-8.9-5.57-19.32-16.81-20.46-2.38-.28-4.33-.25-5.14-.25Z"></path><rect class="cls-1" x="218.56" y="330.86" width="13.23" height="69.43"></rect><polygon class="cls-1" points="167.93 386.35 113.57 330.86 95.06 330.86 95.06 400.28 108.29 400.28 108.29 344.44 163.03 400.28 181.15 400.28 181.15 330.86 167.93 330.86 167.93 386.35"></polygon><polygon class="cls-1" points="691.68 386.35 637.32 330.86 618.81 330.86 618.81 400.28 632.04 400.28 632.04 344.44 686.79 400.28 704.91 400.28 704.91 330.86 691.68 330.86 691.68 386.35"></polygon><path class="cls-1" d="m536.05,330.86l-42.9,69.43h16.13l7.91-12.84h53.29l7.91,12.84h16.13l-42.87-69.43h-15.6Zm-12.3,45.53l20.1-32.62,20.07,32.62h-40.17Z"></path></svg> 