<?xml version="1.0" encoding="UTF-8"?> <svg xmlns="http://www.w3.org/2000/svg" id="Layer_1" viewBox="0 0 800 800"><defs><style>.cls-1{fill:#010101;}</style></defs><path class="cls-1" d="m168.81,349.38h19.57l16.98,32.07h24.73l-20.85-35.93c2.87-1.32,5.44-2.96,7.72-4.96,6.71-5.88,10.06-13.94,10.06-24.17s-3.35-18.56-10.06-24.4c-6.71-5.83-16-8.75-27.87-8.75h-41.77v98.2h21.5v-32.07Zm20.89-47.1c4.92,0,8.73,1.25,11.44,3.76,2.71,2.51,4.07,6.06,4.07,10.66s-1.36,7.88-4.07,10.43c-2.71,2.56-6.53,3.84-11.44,3.84h-20.89v-28.7h20.89Zm120.56,53.4h-20.89c-.51,1.84-1.46,3.51-2.84,4.99-1.38,1.48-3.12,2.63-5.22,3.46-2.1.82-4.68,1.22-7.75,1.22-3.79,0-7.22-.77-10.29-2.3-3.07-1.53-5.48-3.94-7.21-7.21-1.04-1.95-1.76-4.26-2.18-6.91h56.69c.1-1.02.31-2.9.31-6.14,0-8.18-1.64-15.21-4.91-21.1-3.28-5.88-7.78-10.43-13.51-13.65-5.74-3.23-12.34-4.83-19.81-4.83s-14.49,1.66-20.42,4.99c-5.94,3.32-10.59,7.98-13.97,13.96-3.38,5.98-5.07,12.97-5.07,20.95s1.74,14.96,5.22,20.95c3.48,5.98,8.27,10.64,14.36,13.96,6.09,3.32,13.03,4.99,20.81,4.99,6.55,0,12.41-1.15,17.58-3.46,5.17-2.3,9.44-5.5,12.82-9.59,3.37-4.1,5.47-8.85,6.29-14.28Zm-47.53-33.22c2.81-1.38,5.91-2.07,9.29-2.07s6.3.64,9.06,1.92c2.77,1.28,5.01,3.25,6.76,5.91,1.2,1.83,1.98,4.04,2.35,6.6h-36.01c.42-2.06,1.02-3.85,1.8-5.37,1.69-3.27,3.93-5.59,6.75-6.97Zm79.3,59h-21.04v-76.72h14.9l3.95,7.88c2.09-2.33,4.6-4.3,7.57-5.89,4.4-2.35,9.47-3.53,15.21-3.53,6.25,0,11.8,1.28,16.66,3.84,4.86,2.56,8.73,6.24,11.6,11.05,2.87,4.81,4.3,10.54,4.3,17.19v46.19h-21.04v-42.96c0-3.48-.67-6.47-2-8.97-1.33-2.51-3.2-4.42-5.61-5.75-2.4-1.33-5.2-1.99-8.37-1.99-4.91,0-8.83,1.46-11.75,4.37-2.92,2.92-4.38,7.04-4.38,12.35v42.96h-.01Zm142.09-76.72h-14.9l-3.95,7.9c-1.67-1.68-3.49-3.16-5.49-4.44-5.17-3.32-11.19-4.99-18.05-4.99s-13.01,1.66-18.74,4.99c-5.73,3.32-10.36,7.98-13.9,13.96-3.53,5.98-5.3,12.97-5.3,20.95s1.77,14.96,5.3,20.95c3.53,5.98,8.16,10.64,13.9,13.96,5.73,3.32,11.98,4.99,18.74,4.99s12.87-1.66,18.05-4.99c2-1.28,3.83-2.76,5.49-4.44l3.95,7.9h14.9v-76.73Zm-29.18,56.92c-2.97,1.74-6.35,2.61-10.13,2.61s-7.17-.87-10.13-2.61c-2.97-1.74-5.32-4.19-7.06-7.37-1.74-3.17-2.61-6.91-2.61-11.2s.87-8.18,2.61-11.36c1.74-3.17,4.09-5.62,7.06-7.37,2.97-1.74,6.35-2.61,10.13-2.61s7.16.87,10.13,2.61c2.97,1.74,5.32,4.19,7.06,7.37,1.74,3.17,2.61,6.96,2.61,11.36s-.87,8.03-2.61,11.2c-1.74,3.17-4.09,5.63-7.06,7.37Zm93.13-56.92h21.04v45.73c0,6.55-1.54,12.28-4.61,17.19-3.07,4.91-7.32,8.7-12.75,11.36-5.43,2.66-11.73,3.99-18.89,3.99-10.85,0-19.61-2.89-26.26-8.67-6.65-5.78-9.98-13.73-9.98-23.86v-45.73h21.04v43.42c0,5.32,1.38,9.34,4.14,12.05,2.77,2.71,6.45,4.07,11.06,4.07s8.42-1.36,11.13-4.07c2.71-2.71,4.07-6.73,4.07-12.05v-43.43h0Zm33.03-21.49h21.04v98.2h-21.04v-98.2Zm-337.88,153.63c.05,1.48.08,2.94.08,4.37,0,9.92-2.2,18.47-6.6,25.62-4.4,7.16-10.36,12.66-17.89,16.5-7.52,3.84-16.05,5.75-25.57,5.75-7.37,0-14.2-1.26-20.5-3.76-6.3-2.51-11.77-6.06-16.43-10.66-4.66-4.6-8.29-9.97-10.9-16.11-2.61-6.14-3.91-12.84-3.91-20.1s1.28-13.96,3.84-20.1c2.56-6.14,6.14-11.48,10.75-16.04,4.61-4.55,10.03-8.1,16.28-10.66,6.25-2.56,13.05-3.84,20.42-3.84,9.22,0,17.22,1.64,24.03,4.91,6.81,3.27,12.29,7.57,16.43,12.89,4.14,5.32,6.73,11.05,7.75,17.18h-22.42c-.72-2.46-2.17-4.86-4.38-7.21-2.2-2.35-5.07-4.3-8.6-5.83-3.53-1.53-7.76-2.3-12.67-2.3-5.73,0-10.83,1.28-15.28,3.84-4.45,2.56-7.93,6.14-10.44,10.74-2.51,4.6-3.76,10.08-3.76,16.42s1.28,11.87,3.84,16.57c2.56,4.71,6.11,8.34,10.67,10.89,4.55,2.56,9.75,3.84,15.59,3.84,5.42,0,10.16-.84,14.21-2.53,4.04-1.69,7.22-4.22,9.52-7.6,1.71-2.51,2.84-5.48,3.39-8.9h-33.11v-18.1h55.28c.19,1.34.31,2.74.37,4.22Zm122.79-22.55c-6.25-3.32-13.31-4.99-21.19-4.99s-14.92,1.66-21.12,4.99c-6.19,3.32-11.08,7.98-14.67,13.96-3.58,5.98-5.38,12.97-5.38,20.95s1.79,14.96,5.38,20.95c3.58,5.98,8.47,10.64,14.67,13.96,6.19,3.32,13.23,4.99,21.12,4.99s14.95-1.66,21.19-4.99c6.25-3.32,11.16-7.98,14.74-13.96,3.58-5.98,5.38-12.97,5.38-20.95s-1.79-14.96-5.38-20.95c-3.58-5.98-8.5-10.64-14.74-13.96Zm-3.68,46.11c-1.74,3.17-4.12,5.63-7.14,7.37-3.02,1.74-6.48,2.61-10.36,2.61s-7.19-.87-10.21-2.61c-3.02-1.74-5.4-4.19-7.14-7.37-1.74-3.17-2.61-6.91-2.61-11.2s.87-8.18,2.61-11.36c1.74-3.17,4.12-5.62,7.14-7.37,3.02-1.74,6.42-2.61,10.21-2.61s7.35.87,10.36,2.61c3.02,1.74,5.4,4.19,7.14,7.37,1.74,3.17,2.61,6.96,2.61,11.36s-.87,8.03-2.61,11.2Zm83.58-49.56h21.04v45.73c0,6.55-1.54,12.28-4.61,17.19-3.07,4.91-7.32,8.7-12.75,11.36-5.43,2.66-11.72,3.99-18.89,3.99-10.85,0-19.61-2.89-26.26-8.67-6.65-5.78-9.98-13.73-9.98-23.86v-45.73h21.04v43.42c0,5.32,1.38,9.33,4.15,12.05,2.77,2.71,6.45,4.07,11.06,4.07s8.42-1.36,11.13-4.07c2.71-2.71,4.07-6.73,4.07-12.05v-43.43h0Zm95.19,3.46c-5.74-3.32-12.03-4.99-18.89-4.99s-12.75,1.66-17.97,4.99c-1.98,1.26-3.8,2.72-5.46,4.36l-3.91-7.82h-14.9v105.88h21.04v-35.53c1.24,1.14,2.57,2.17,3.99,3.08,5.01,3.22,10.75,4.83,17.2,4.83,6.86,0,13.15-1.66,18.89-4.99,5.73-3.32,10.36-7.98,13.9-13.96,3.53-5.98,5.3-12.97,5.3-20.95s-1.77-14.96-5.3-20.95c-3.53-5.98-8.16-10.63-13.9-13.96Zm-4.61,46.11c-1.74,3.17-4.1,5.63-7.06,7.37-2.97,1.74-6.35,2.61-10.13,2.61s-7.17-.87-10.13-2.61c-2.97-1.74-5.32-4.19-7.06-7.37-1.74-3.17-2.61-6.91-2.61-11.2s.87-8.18,2.61-11.36c1.74-3.17,4.09-5.62,7.06-7.37,2.97-1.74,6.35-2.61,10.13-2.61s7.16.87,10.13,2.61c2.97,1.74,5.32,4.19,7.06,7.37,1.74,3.17,2.61,6.96,2.61,11.36,0,4.29-.87,8.03-2.61,11.2Zm-263.65-38.58c7.15-6.2,16.27-11.05,27.38-11.05v20.27c-13.5,0-20.26,5.9-23.64,11.47-2.32,3.81-3.4,8.25-3.4,12.7v32.36h-21.04v-76.72h17.4l3.3,10.98Zm385.67-59.73v19.33h-13.36c-7.37,0-13.36-.99-17.97-2.99-4.61-1.99-7.99-5.12-10.13-9.36-2.15-4.25-3.22-9.64-3.22-16.19v-69.66h21.04v21.48h23.65v17.49h-23.65v29c0,3.79.87,6.55,2.61,8.29,1.74,1.74,4.51,2.61,8.29,2.61h12.74Z"></path></svg> 