<?xml version="1.0" encoding="UTF-8"?> <svg xmlns="http://www.w3.org/2000/svg" xmlns:xlink="http://www.w3.org/1999/xlink" id="Layer_1" viewBox="0 0 800 800"><defs><style>.cls-1,.cls-2,.cls-3{fill:none;}.cls-4{fill:url(#linear-gradient);}.cls-5{fill:#034f91;}.cls-6{fill:#004b8d;}.cls-7{fill:#010101;}.cls-8{fill:#004a8c;}.cls-9{fill:#024d8e;}.cls-10{fill:#024e90;}.cls-11{fill:#024e91;}.cls-12{fill:#055092;}.cls-13{fill:#045091;}.cls-14{fill:#014b8e;}.cls-15{fill:#01498b;}.cls-16{fill:#677eb1;}.cls-17{fill:#697fb2;}.cls-18{fill:#7d8dbb;}.cls-19{fill:#7387b6;}.cls-20{fill:#657cb0;}.cls-21{fill:#7e8ebb;}.cls-22{fill:#7286b6;}.cls-23{fill:#96a1c8;}.cls-24{fill:#6b80b1;}.cls-25{fill:#7c8dba;}.cls-26{fill:#97a2c8;}.cls-27{fill:#6a7fb1;}.cls-28{fill:#929ec6;}.cls-29{fill:#a0aacc;}.cls-30{fill:#9fa9cd;}.cls-31{fill:#939fc6;}.cls-32{fill:#939fc7;}.cls-33{fill:#8a98c1;}.cls-34{fill:#8a97c2;}.cls-35{fill:#8a97c1;}.cls-36{fill:#9da7cc;}.cls-37{fill:#9ea8cc;}.cls-38{fill:#8b99c2;}.cls-39{fill:#8c9ac3;}.cls-40{fill:#8f9cc5;}.cls-41{fill:#909cc5;}.cls-42{fill:#98a4ca;}.cls-43{fill:#667db1;}.cls-44{fill:#335d9b;}.cls-45{fill:#315c9a;}.cls-46{fill:#315c9b;}.cls-47{fill:#8d9ac4;}.cls-48{fill:#335e9c;}.cls-49{fill:#8e9bc4;}.cls-50{fill:#8593be;}.cls-51{fill:#8593bf;}.cls-52{fill:#a4aed0;}.cls-53{fill:#a8b2d2;}.cls-54{fill:#a6afd0;}.cls-55{fill:#a5aed0;}.cls-56{fill:#aab2d2;}.cls-57{fill:#a7b1d2;}.cls-58{fill:#165393;}.cls-59{fill:#245797;}.cls-60{fill:#225696;}.cls-61{fill:#205696;}.cls-62{fill:#1f5596;}.cls-63{fill:#0c4687;}.cls-64{fill:#0a5192;}.cls-65{fill:#4165a0;}.cls-66{fill:#3f65a1;}.cls-67{fill:#064889;}.cls-68{fill:#084788;}.cls-69{fill:#1a5495;}.cls-70{fill:#105293;}.cls-71{fill:#1c5496;}.cls-72{fill:#0e4687;}.cls-73{fill:#0e5193;}.cls-74{fill:#1c5596;}.cls-75{fill:#4065a0;}.cls-76{fill:#355e9c;}.cls-77{fill:#4466a1;}.cls-78{fill:#3e64a0;}.cls-79{fill:#3e629f;}.cls-80{fill:#195394;}.cls-81{fill:#8996c1;}.cls-82{fill:#a3adcf;}.cls-83{fill:#6d81b3;}.cls-84{fill:#6e82b3;}.cls-85{fill:#94a1c8;}.cls-86{fill:#7184b5;}.cls-87{fill:#a2abce;}.cls-88{fill:#95a0c7;}.cls-89{fill:#546fa7;}.cls-90{fill:#4667a2;}.cls-91{fill:#536fa7;}.cls-92{fill:#6c80b2;}.cls-93{fill:#9aa4c9;}.cls-94{fill:#9aa5ca;}.cls-95{fill:#6f84b4;}.cls-96{fill:#6f82b4;}.cls-97{fill:#808fbc;}.cls-98{fill:#808ebc;}.cls-99{fill:#8090bd;}.cls-100{fill:#275998;}.cls-101{fill:#5570a8;}.cls-102{fill:#5570a7;}.cls-103{fill:#2a5a99;}.cls-104{fill:#2a5998;}.cls-105{fill:#647baf;}.cls-106{fill:#4a69a3;}.cls-107{fill:#4868a3;}.cls-108{fill:#4767a2;}.cls-109{fill:#5b75ab;}.cls-110{fill:#5c75ab;}.cls-111{fill:#5c75ac;}.cls-112{fill:#2e5b9a;}.cls-113{fill:#2e5c9b;}.cls-114{fill:#39619e;}.cls-115{fill:#3c619e;}.cls-116{fill:#38609d;}.cls-117{fill:#5771a9;}.cls-118{fill:#5772a9;}.cls-119{fill:#5772aa;}.cls-120{fill:#5873aa;}.cls-121{fill:#3b619f;}.cls-122{fill:#3c629f;}.cls-123{fill:#8392be;}.cls-124{fill:#2d5a99;}.cls-125{fill:#4c6ba5;}.cls-126{fill:#627aaf;}.cls-127{fill:#6079ae;}.cls-128{fill:#5f78ad;}.cls-129{fill:#7487b7;}.cls-130{fill:#7688b7;}.cls-131{fill:#617aaf;}.cls-132{fill:#5d77ad;}.cls-133{fill:#7788b8;}.cls-134{fill:#7889b8;}.cls-135{fill:#4b6aa4;}.cls-136{fill:#5e77ad;}.cls-137{fill:#506da5;}.cls-138{fill:#4f6ca4;}.cls-139{fill:#7588b8;}.cls-140{fill:#8291bd;}.cls-141{fill:#265898;}.cls-142{fill:#516ea6;}.cls-143{fill:#7b8cb9;}.cls-144{fill:#798ab9;}.cls-145{fill:#4e6ca4;}.cls-2{stroke-width:2.41px;}.cls-2,.cls-3{stroke:#010101;}.cls-146{fill:url(#linear-gradient-8);}.cls-147{fill:url(#linear-gradient-9);}.cls-148{fill:url(#linear-gradient-3);}.cls-149{fill:url(#linear-gradient-4);}.cls-150{fill:url(#linear-gradient-2);}.cls-151{fill:url(#linear-gradient-6);}.cls-152{fill:url(#linear-gradient-7);}.cls-153{fill:url(#linear-gradient-5);}.cls-3{stroke-width:1.21px;}.cls-154{fill:url(#radial-gradient);}.cls-155{fill:url(#linear-gradient-59);}.cls-156{fill:url(#linear-gradient-57);}.cls-157{fill:url(#linear-gradient-58);}.cls-158{fill:url(#linear-gradient-55);}.cls-159{fill:url(#linear-gradient-56);}.cls-160{fill:url(#linear-gradient-53);}.cls-161{fill:url(#linear-gradient-54);}.cls-162{fill:url(#linear-gradient-51);}.cls-163{fill:url(#linear-gradient-52);}.cls-164{fill:url(#linear-gradient-50);}.cls-165{fill:url(#linear-gradient-63);}.cls-166{fill:url(#linear-gradient-60);}.cls-167{fill:url(#linear-gradient-62);}.cls-168{fill:url(#linear-gradient-61);}.cls-169{fill:url(#linear-gradient-41);}.cls-170{fill:url(#linear-gradient-40);}.cls-171{fill:url(#linear-gradient-43);}.cls-172{fill:url(#linear-gradient-42);}.cls-173{fill:url(#linear-gradient-45);}.cls-174{fill:url(#linear-gradient-46);}.cls-175{fill:url(#linear-gradient-44);}.cls-176{fill:url(#linear-gradient-49);}.cls-177{fill:url(#linear-gradient-47);}.cls-178{fill:url(#linear-gradient-48);}.cls-179{fill:url(#linear-gradient-14);}.cls-180{fill:url(#linear-gradient-18);}.cls-181{fill:url(#linear-gradient-22);}.cls-182{fill:url(#linear-gradient-20);}.cls-183{fill:url(#linear-gradient-21);}.cls-184{fill:url(#linear-gradient-23);}.cls-185{fill:url(#linear-gradient-15);}.cls-186{fill:url(#linear-gradient-19);}.cls-187{fill:url(#linear-gradient-16);}.cls-188{fill:url(#linear-gradient-17);}.cls-189{fill:url(#linear-gradient-13);}.cls-190{fill:url(#linear-gradient-12);}.cls-191{fill:url(#linear-gradient-10);}.cls-192{fill:url(#linear-gradient-11);}.cls-193{fill:url(#linear-gradient-27);}.cls-194{fill:url(#linear-gradient-24);}.cls-195{fill:url(#linear-gradient-26);}.cls-196{fill:url(#linear-gradient-38);}.cls-197{fill:url(#linear-gradient-35);}.cls-198{fill:url(#linear-gradient-37);}.cls-199{fill:url(#linear-gradient-34);}.cls-200{fill:url(#linear-gradient-39);}.cls-201{fill:url(#linear-gradient-36);}.cls-202{fill:url(#linear-gradient-25);}.cls-203{fill:url(#linear-gradient-28);}.cls-204{fill:url(#linear-gradient-29);}.cls-205{fill:url(#linear-gradient-33);}.cls-206{fill:url(#linear-gradient-30);}.cls-207{fill:url(#linear-gradient-32);}.cls-208{fill:url(#linear-gradient-31);}</style><linearGradient id="linear-gradient" x1="408.21" y1="-1301.24" x2="372.12" y2="-1059.37" gradientTransform="translate(0 -858) scale(1 -1)" gradientUnits="userSpaceOnUse"><stop offset="0" stop-color="#010101"></stop><stop offset="0" stop-color="#040404"></stop><stop offset=".05" stop-color="#444650"></stop><stop offset=".1" stop-color="#4d546a"></stop><stop offset=".15" stop-color="#455479"></stop><stop offset=".19" stop-color="#345082"></stop><stop offset=".24" stop-color="#1e4b85"></stop><stop offset=".29" stop-color="#044886"></stop><stop offset=".34" stop-color="#0b4686"></stop><stop offset=".38" stop-color="#0e4687"></stop><stop offset="1" stop-color="#0e4687"></stop></linearGradient><linearGradient id="linear-gradient-2" x1="201.92" y1="-1201.94" x2="583.62" y2="-1201.94" gradientTransform="translate(0 -858) scale(1 -1)" gradientUnits="userSpaceOnUse"><stop offset="0" stop-color="#808181"></stop><stop offset=".15" stop-color="#fff"></stop><stop offset=".19" stop-color="#f4f3f4"></stop><stop offset=".3" stop-color="#ddd"></stop><stop offset=".4" stop-color="#cfcece"></stop><stop offset=".48" stop-color="#cac9c9"></stop><stop offset=".49" stop-color="#c0c0bf"></stop><stop offset=".51" stop-color="#989898"></stop><stop offset=".54" stop-color="#767676"></stop><stop offset=".57" stop-color="#5b5b5b"></stop><stop offset=".59" stop-color="#484848"></stop><stop offset=".62" stop-color="#3d3d3d"></stop><stop offset=".65" stop-color="#383938"></stop><stop offset=".84" stop-color="#383938"></stop><stop offset="1" stop-color="#7a7b7b"></stop></linearGradient><linearGradient id="linear-gradient-3" x1="201.92" y1="-1201.94" x2="583.62" y2="-1201.94" gradientTransform="translate(0 -858) scale(1 -1)" gradientUnits="userSpaceOnUse"><stop offset="0" stop-color="#d1d1d1"></stop><stop offset=".46" stop-color="#4e4d4d"></stop><stop offset="1" stop-color="#a6a6a6"></stop></linearGradient><linearGradient id="linear-gradient-4" x1="312.21" y1="-1118.6" x2="468.3" y2="-1280.11" gradientTransform="translate(0 -858) scale(1 -1)" gradientUnits="userSpaceOnUse"><stop offset="0" stop-color="#e7e6e6"></stop><stop offset=".46" stop-color="#5b5a5a"></stop><stop offset=".84" stop-color="#808181"></stop><stop offset="1" stop-color="#d9d9d9"></stop></linearGradient><linearGradient id="linear-gradient-5" x1="321.77" y1="-1160.05" x2="525.88" y2="-1278.98" gradientTransform="translate(0 -858) scale(1 -1)" gradientUnits="userSpaceOnUse"><stop offset="0" stop-color="#f2f2f2"></stop><stop offset=".35" stop-color="#1b1b1b"></stop><stop offset=".59" stop-color="#3d3e3e"></stop><stop offset=".7" stop-color="#494949"></stop><stop offset=".77" stop-color="#535353"></stop><stop offset="1" stop-color="#bdbdbc"></stop></linearGradient><linearGradient id="linear-gradient-6" x1="422.6" y1="-1265.23" x2="471.42" y2="-1265.23" gradientTransform="translate(0 -858) scale(1 -1)" gradientUnits="userSpaceOnUse"><stop offset=".08" stop-color="#9a9999"></stop><stop offset=".17" stop-color="#7c7c7d"></stop><stop offset=".32" stop-color="#535353"></stop><stop offset=".64" stop-color="#4b4a4b"></stop><stop offset=".79" stop-color="#b0b0b0"></stop><stop offset=".89" stop-color="#7a7b7b"></stop><stop offset="1" stop-color="#9e9e9e"></stop></linearGradient><linearGradient id="linear-gradient-7" x1="494.27" y1="-1251.76" x2="494.27" y2="-1254.22" gradientTransform="translate(0 -858) scale(1 -1)" gradientUnits="userSpaceOnUse"><stop offset=".14" stop-color="#e7e6e6"></stop><stop offset=".51" stop-color="#cdcccc"></stop><stop offset=".91" stop-color="#e0e0e0"></stop></linearGradient><linearGradient id="linear-gradient-8" x1="439.4" y1="-1242.71" x2="467.02" y2="-1240.9" gradientTransform="translate(0 -858) scale(1 -1)" gradientUnits="userSpaceOnUse"><stop offset=".08" stop-color="#9a9999"></stop><stop offset=".13" stop-color="#a5a4a4"></stop><stop offset=".32" stop-color="#cfcfcf"></stop><stop offset=".56" stop-color="#d9d9d9"></stop><stop offset=".76" stop-color="#e0e0e0"></stop></linearGradient><linearGradient id="linear-gradient-9" x1="405.09" y1="-1240.62" x2="419.9" y2="-1255.2" gradientTransform="translate(0 -858) scale(1 -1)" gradientUnits="userSpaceOnUse"><stop offset=".08" stop-color="#eeeded"></stop><stop offset=".21" stop-color="#bcbcbb"></stop><stop offset=".32" stop-color="#919191"></stop><stop offset=".56" stop-color="#8c8c8c"></stop><stop offset=".76" stop-color="#9a9999"></stop></linearGradient><linearGradient id="linear-gradient-10" x1="391.08" y1="-1272.79" x2="420.46" y2="-1248.69" gradientTransform="translate(0 -858) scale(1 -1)" gradientUnits="userSpaceOnUse"><stop offset=".08" stop-color="#949494"></stop><stop offset=".16" stop-color="#7c7c7d"></stop><stop offset=".32" stop-color="#535353"></stop><stop offset=".56" stop-color="#4b4a4b"></stop><stop offset=".76" stop-color="#9a9999"></stop></linearGradient><linearGradient id="linear-gradient-11" x1="379.2" y1="-1263.54" x2="393.25" y2="-1287.91" gradientTransform="translate(0 -858) scale(1 -1)" gradientUnits="userSpaceOnUse"><stop offset="0" stop-color="#d9d9d9"></stop><stop offset=".2" stop-color="#6d6d6c"></stop><stop offset=".21" stop-color="#6d6d6d"></stop><stop offset=".45" stop-color="#979797"></stop><stop offset=".56" stop-color="#979797"></stop><stop offset=".76" stop-color="#a8a8a8"></stop></linearGradient><linearGradient id="linear-gradient-12" x1="386.5" y1="-1278.08" x2="389.49" y2="-1278.08" gradientTransform="translate(0 -858) scale(1 -1)" gradientUnits="userSpaceOnUse"><stop offset=".21" stop-color="#979797"></stop><stop offset=".36" stop-color="#aeadad"></stop><stop offset=".51" stop-color="#cac9c9"></stop><stop offset=".74" stop-color="#a3a3a2"></stop><stop offset=".88" stop-color="#9e9e9e"></stop></linearGradient><linearGradient id="linear-gradient-13" x1="357.32" y1="-1253.48" x2="375.41" y2="-1264.03" gradientTransform="translate(0 -858) scale(1 -1)" gradientUnits="userSpaceOnUse"><stop offset="0" stop-color="#a8a8a8"></stop><stop offset=".09" stop-color="#6d6d6c"></stop><stop offset=".37" stop-color="#5f5f5f"></stop><stop offset=".46" stop-color="#636363"></stop><stop offset=".54" stop-color="#6d6d6d"></stop><stop offset=".61" stop-color="#7d7d7e"></stop><stop offset=".68" stop-color="#979797"></stop><stop offset=".69" stop-color="#979797"></stop><stop offset=".85" stop-color="#d9d9d9"></stop></linearGradient><linearGradient id="linear-gradient-14" x1="343.05" y1="-1240.96" x2="390.56" y2="-1240.96" gradientTransform="translate(0 -858) scale(1 -1)" gradientUnits="userSpaceOnUse"><stop offset="0" stop-color="#a8a8a8"></stop><stop offset="1" stop-color="#fff"></stop></linearGradient><linearGradient id="linear-gradient-15" x1="387.96" y1="-1232.96" x2="398.28" y2="-1252.39" gradientTransform="translate(0 -858) scale(1 -1)" gradientUnits="userSpaceOnUse"><stop offset="0" stop-color="#c8c7c7"></stop><stop offset=".08" stop-color="#bdbdbc"></stop><stop offset=".14" stop-color="#8c8c8c"></stop><stop offset=".22" stop-color="#7e7f7f"></stop><stop offset=".33" stop-color="#6d6d6c"></stop><stop offset=".39" stop-color="#5b5a5a"></stop><stop offset=".54" stop-color="#2e2f2f"></stop><stop offset=".57" stop-color="#333"></stop><stop offset=".6" stop-color="#3f3f3f"></stop><stop offset=".64" stop-color="#555454"></stop><stop offset=".67" stop-color="#717171"></stop><stop offset=".7" stop-color="#969696"></stop><stop offset=".73" stop-color="#c2c1c1"></stop><stop offset=".75" stop-color="#e0e0e0"></stop><stop offset=".89" stop-color="#fff"></stop></linearGradient><linearGradient id="linear-gradient-16" x1="387.14" y1="-1231.33" x2="388.49" y2="-1231.33" gradientTransform="translate(0 -858) scale(1 -1)" gradientUnits="userSpaceOnUse"><stop offset="0" stop-color="#fff"></stop><stop offset=".45" stop-color="#bfbebf"></stop><stop offset=".82" stop-color="#c3c2c2"></stop></linearGradient><linearGradient id="linear-gradient-17" x1="350.17" y1="-1254.63" x2="350.19" y2="-1252" gradientTransform="translate(0 -858) scale(1 -1)" gradientUnits="userSpaceOnUse"><stop offset="0" stop-color="#a6a6a6"></stop><stop offset=".45" stop-color="#e7e6e6"></stop><stop offset=".82" stop-color="#b8b8b8"></stop></linearGradient><linearGradient id="linear-gradient-18" x1="493.24" y1="-1252.94" x2="483.51" y2="-1284.44" gradientTransform="translate(0 -858) scale(1 -1)" gradientUnits="userSpaceOnUse"><stop offset="0" stop-color="#fff"></stop><stop offset="0" stop-color="#fff"></stop><stop offset=".04" stop-color="#cccccb"></stop><stop offset=".06" stop-color="#a2a1a1"></stop><stop offset=".09" stop-color="#818282"></stop><stop offset=".12" stop-color="#6b6b6b"></stop><stop offset=".14" stop-color="#5d5d5d"></stop><stop offset=".16" stop-color="#585858"></stop><stop offset=".2" stop-color="#6a6a69"></stop><stop offset=".28" stop-color="#969696"></stop><stop offset=".34" stop-color="#bdbdbc"></stop><stop offset=".45" stop-color="#a2a1a1"></stop><stop offset=".51" stop-color="#919191"></stop><stop offset=".86" stop-color="#b8b8b8"></stop></linearGradient><linearGradient id="linear-gradient-19" x1="470.09" y1="-1237.39" x2="485.51" y2="-1253.16" gradientTransform="translate(0 -858) scale(1 -1)" gradientUnits="userSpaceOnUse"><stop offset=".08" stop-color="#dedede"></stop><stop offset=".24" stop-color="#7d7d7e"></stop><stop offset=".32" stop-color="#535353"></stop><stop offset=".56" stop-color="#747474"></stop><stop offset=".67" stop-color="#a1a0a0"></stop><stop offset=".82" stop-color="#e7e6e6"></stop></linearGradient><linearGradient id="linear-gradient-20" x1="468.36" y1="-1234.77" x2="470.67" y2="-1234.77" gradientTransform="translate(0 -858) scale(1 -1)" gradientUnits="userSpaceOnUse"><stop offset="0" stop-color="#e3e3e2"></stop><stop offset=".45" stop-color="#bababa"></stop><stop offset=".76" stop-color="#dadada"></stop><stop offset=".82" stop-color="#e0e0e0"></stop></linearGradient><linearGradient id="linear-gradient-21" x1="503.04" y1="-1252.34" x2="503.04" y2="-1253.77" gradientTransform="translate(0 -858) scale(1 -1)" gradientUnits="userSpaceOnUse"><stop offset="0" stop-color="#e7e6e6"></stop><stop offset=".05" stop-color="#ddd"></stop><stop offset=".2" stop-color="#cccccb"></stop><stop offset=".36" stop-color="#c0c0bf"></stop><stop offset=".54" stop-color="#bdbdbc"></stop><stop offset=".64" stop-color="#c3c2c2"></stop><stop offset=".77" stop-color="#d0d0d0"></stop><stop offset=".91" stop-color="#e9e8e8"></stop><stop offset="1" stop-color="#fdfdfd"></stop></linearGradient><linearGradient id="linear-gradient-22" x1="468.01" y1="-1272" x2="471.97" y2="-1272" gradientTransform="translate(0 -858) scale(1 -1)" gradientUnits="userSpaceOnUse"><stop offset=".02" stop-color="#878787"></stop><stop offset=".06" stop-color="#8a8a8a"></stop><stop offset=".09" stop-color="#919191"></stop><stop offset=".43" stop-color="#e0e0e0"></stop><stop offset=".77" stop-color="#9e9e9e"></stop><stop offset="1" stop-color="#aeadad"></stop></linearGradient><linearGradient id="linear-gradient-23" x1="457.52" y1="-1206.33" x2="468.07" y2="-1216.72" xlink:href="#linear-gradient-9"></linearGradient><linearGradient id="linear-gradient-24" x1="447.19" y1="-1235.79" x2="476.82" y2="-1211.47" xlink:href="#linear-gradient-10"></linearGradient><linearGradient id="linear-gradient-25" x1="435.39" y1="-1226.48" x2="449.62" y2="-1251.16" xlink:href="#linear-gradient-11"></linearGradient><linearGradient id="linear-gradient-26" x1="442.69" y1="-1241.24" x2="445.7" y2="-1241.24" xlink:href="#linear-gradient-12"></linearGradient><linearGradient id="linear-gradient-27" x1="413.38" y1="-1216.28" x2="431.55" y2="-1226.88" xlink:href="#linear-gradient-13"></linearGradient><linearGradient id="linear-gradient-28" x1="399.05" y1="-1203.55" x2="446.78" y2="-1203.55" xlink:href="#linear-gradient-14"></linearGradient><linearGradient id="linear-gradient-29" x1="444.09" y1="-1195.45" x2="454.56" y2="-1215.15" xlink:href="#linear-gradient-15"></linearGradient><linearGradient id="linear-gradient-30" x1="542.76" y1="-1220.71" x2="517.46" y2="-1226.51" gradientTransform="translate(0 -858) scale(1 -1)" gradientUnits="userSpaceOnUse"><stop offset="0" stop-color="#b8b8b8"></stop><stop offset=".11" stop-color="#a1a0a0"></stop><stop offset=".32" stop-color="#767676"></stop><stop offset=".43" stop-color="#767676"></stop><stop offset=".56" stop-color="#747474"></stop><stop offset=".63" stop-color="#797879"></stop><stop offset=".71" stop-color="#868686"></stop><stop offset=".77" stop-color="#979797"></stop></linearGradient><linearGradient id="linear-gradient-31" x1="537.72" y1="-1210.03" x2="544.94" y2="-1217.24" gradientTransform="translate(0 -858) scale(1 -1)" gradientUnits="userSpaceOnUse"><stop offset="0" stop-color="#e7e6e6"></stop><stop offset=".1" stop-color="#c9c9c9"></stop><stop offset=".27" stop-color="#9d9d9c"></stop><stop offset=".43" stop-color="#a6a6a6"></stop><stop offset=".75" stop-color="#b8b7b7"></stop><stop offset="1" stop-color="#bdbdbc"></stop></linearGradient><linearGradient id="linear-gradient-32" x1="520.57" y1="-1198.19" x2="528.8" y2="-1217.08" gradientTransform="translate(0 -858) scale(1 -1)" gradientUnits="userSpaceOnUse"><stop offset=".14" stop-color="#dedede"></stop><stop offset=".24" stop-color="#a1a0a0"></stop><stop offset=".31" stop-color="#767676"></stop><stop offset=".58" stop-color="#747474"></stop><stop offset=".62" stop-color="#797879"></stop><stop offset=".66" stop-color="#868686"></stop><stop offset=".71" stop-color="#9d9d9d"></stop><stop offset=".77" stop-color="#bdbdbc"></stop><stop offset=".82" stop-color="#e7e6e6"></stop></linearGradient><linearGradient id="linear-gradient-33" x1="470.72" y1="-1204.99" x2="520.94" y2="-1204.99" xlink:href="#linear-gradient-8"></linearGradient><linearGradient id="linear-gradient-34" x1="519.85" y1="-1197.94" x2="521.9" y2="-1197.94" gradientTransform="translate(0 -858) scale(1 -1)" gradientUnits="userSpaceOnUse"><stop offset="0" stop-color="#e3e3e2"></stop><stop offset=".11" stop-color="#dbdbdb"></stop><stop offset=".28" stop-color="#c6c6c6"></stop><stop offset=".45" stop-color="#a8a8a8"></stop><stop offset=".67" stop-color="#c9c9c9"></stop><stop offset=".82" stop-color="#e0e0e0"></stop></linearGradient><linearGradient id="linear-gradient-35" x1="519.12" y1="-1231.74" x2="525.49" y2="-1231.74" gradientTransform="translate(0 -858) scale(1 -1)" gradientUnits="userSpaceOnUse"><stop offset="0" stop-color="#bababa"></stop><stop offset=".11" stop-color="#a1a0a0"></stop><stop offset=".32" stop-color="#767676"></stop><stop offset=".43" stop-color="#767676"></stop><stop offset=".56" stop-color="#747474"></stop><stop offset=".66" stop-color="#797879"></stop><stop offset=".77" stop-color="#868686"></stop></linearGradient><linearGradient id="linear-gradient-36" x1="474.54" y1="-1223.4" x2="518.39" y2="-1223.4" gradientTransform="translate(0 -858) scale(1 -1)" gradientUnits="userSpaceOnUse"><stop offset=".08" stop-color="#9a9999"></stop><stop offset=".17" stop-color="#7c7c7d"></stop><stop offset=".32" stop-color="#535353"></stop><stop offset=".56" stop-color="#404040"></stop><stop offset=".75" stop-color="#9a9999"></stop><stop offset=".87" stop-color="#d1d1d1"></stop></linearGradient><linearGradient id="linear-gradient-37" x1="522.74" y1="-1235.24" x2="513.25" y2="-1226.42" gradientTransform="translate(0 -858) scale(1 -1)" gradientUnits="userSpaceOnUse"><stop offset="0" stop-color="#3b3b3b"></stop><stop offset=".03" stop-color="#3d3e3e"></stop><stop offset=".26" stop-color="#4d4d4d"></stop><stop offset=".44" stop-color="#535353"></stop><stop offset=".5" stop-color="#5a5959"></stop><stop offset=".57" stop-color="#6a6a69"></stop><stop offset=".63" stop-color="#797879"></stop><stop offset=".75" stop-color="#9a9999"></stop><stop offset=".87" stop-color="#d1d1d1"></stop></linearGradient><linearGradient id="linear-gradient-38" x1="406.58" y1="-1215.08" x2="406.58" y2="-1217.62" gradientTransform="translate(0 -858) scale(1 -1)" gradientUnits="userSpaceOnUse"><stop offset="0" stop-color="#bdbdbc"></stop><stop offset=".45" stop-color="#d9d9d9"></stop><stop offset=".82" stop-color="#a8a8a8"></stop></linearGradient><linearGradient id="linear-gradient-39" x1="443.34" y1="-1193.77" x2="444.69" y2="-1193.77" xlink:href="#linear-gradient-16"></linearGradient><linearGradient id="linear-gradient-40" x1="254.22" y1="-1181.59" x2="336.49" y2="-1194.25" gradientTransform="translate(0 -858) scale(1 -1)" gradientUnits="userSpaceOnUse"><stop offset="0" stop-color="#a8a8a8"></stop><stop offset=".09" stop-color="#6d6d6c"></stop><stop offset=".37" stop-color="#4e4d4d"></stop><stop offset=".45" stop-color="#515151"></stop><stop offset=".52" stop-color="#5b5b5b"></stop><stop offset=".59" stop-color="#6d6d6d"></stop><stop offset=".65" stop-color="#858585"></stop><stop offset=".69" stop-color="#979797"></stop><stop offset=".85" stop-color="#f0f0f0"></stop></linearGradient><linearGradient id="linear-gradient-41" x1="233.21" y1="-1150.16" x2="342.25" y2="-1150.16" gradientTransform="translate(0 -858) scale(1 -1)" gradientUnits="userSpaceOnUse"><stop offset="0" stop-color="#a8a8a8"></stop><stop offset=".61" stop-color="#f0f0f0"></stop><stop offset=".74" stop-color="#fff"></stop><stop offset=".8" stop-color="#fcfcfc"></stop><stop offset=".87" stop-color="#eeeded"></stop><stop offset=".94" stop-color="#d7d8d8"></stop><stop offset="1" stop-color="#c3c2c2"></stop></linearGradient><linearGradient id="linear-gradient-42" x1="337.83" y1="-1147.64" x2="386.42" y2="-1147.64" gradientTransform="translate(0 -858) scale(1 -1)" gradientUnits="userSpaceOnUse"><stop offset="0" stop-color="#cfcfcf"></stop><stop offset=".08" stop-color="#d9d9d9"></stop><stop offset=".14" stop-color="#6d6d6c"></stop><stop offset=".19" stop-color="#60605f"></stop><stop offset=".29" stop-color="#4e4d4d"></stop><stop offset=".3" stop-color="#515151"></stop><stop offset=".52" stop-color="#7a7b7b"></stop><stop offset=".58" stop-color="#7f8080"></stop><stop offset=".64" stop-color="#8b8b8b"></stop><stop offset=".7" stop-color="#9f9f9f"></stop><stop offset=".76" stop-color="#bcbcbb"></stop><stop offset=".82" stop-color="#e0e0e0"></stop><stop offset=".97" stop-color="#eeeded"></stop></linearGradient><linearGradient id="linear-gradient-43" x1="338.66" y1="-1125.37" x2="341.49" y2="-1125.37" gradientTransform="translate(0 -858) scale(1 -1)" gradientUnits="userSpaceOnUse"><stop offset="0" stop-color="#d5d5d4"></stop><stop offset=".53" stop-color="#9e9e9e"></stop><stop offset=".82" stop-color="#d9d9d9"></stop></linearGradient><linearGradient id="linear-gradient-44" x1="487.13" y1="-1157.15" x2="477.74" y2="-1174.62" gradientTransform="translate(0 -858) scale(1 -1)" gradientUnits="userSpaceOnUse"><stop offset="0" stop-color="#d1d1d1"></stop><stop offset=".62" stop-color="#fff"></stop><stop offset=".8" stop-color="#d6d7d7"></stop><stop offset="1" stop-color="#ababab"></stop></linearGradient><linearGradient id="linear-gradient-45" x1="524.36" y1="-1172.42" x2="526.87" y2="-1187.14" gradientTransform="translate(0 -858) scale(1 -1)" gradientUnits="userSpaceOnUse"><stop offset=".07" stop-color="#fff"></stop><stop offset=".26" stop-color="#8c8c8c"></stop><stop offset=".31" stop-color="#777778"></stop><stop offset=".41" stop-color="#4e4d4d"></stop><stop offset=".64" stop-color="#4a4a4a"></stop><stop offset=".69" stop-color="#484848"></stop><stop offset="1" stop-color="#ebebeb"></stop></linearGradient><linearGradient id="linear-gradient-46" x1="506.97" y1="-1180.51" x2="497.93" y2="-1215.31" gradientTransform="translate(0 -858) scale(1 -1)" gradientUnits="userSpaceOnUse"><stop offset=".06" stop-color="#e0e0e0"></stop><stop offset=".26" stop-color="#ebebeb"></stop><stop offset=".27" stop-color="#e4e4e3"></stop><stop offset=".41" stop-color="#797879"></stop><stop offset=".47" stop-color="#4e4d4d"></stop><stop offset=".67" stop-color="#4e4d4d"></stop><stop offset=".69" stop-color="#4e4d4d"></stop><stop offset="1" stop-color="#5f5f5f"></stop></linearGradient><linearGradient id="linear-gradient-47" x1="353.47" y1="-1197.94" x2="337.95" y2="-1250.52" gradientTransform="translate(0 -858) scale(1 -1)" gradientUnits="userSpaceOnUse"><stop offset="0" stop-color="#bdbdbc"></stop><stop offset=".23" stop-color="#828383"></stop><stop offset=".26" stop-color="#777778"></stop><stop offset=".41" stop-color="#4e4d4d"></stop><stop offset=".48" stop-color="#515151"></stop><stop offset=".54" stop-color="#5b5b5b"></stop><stop offset=".6" stop-color="#6d6d6d"></stop><stop offset=".65" stop-color="#858585"></stop><stop offset=".69" stop-color="#979797"></stop><stop offset="1" stop-color="#9d9d9c"></stop></linearGradient><linearGradient id="linear-gradient-48" x1="326.4" y1="-1203.23" x2="336.34" y2="-1255.06" gradientTransform="translate(0 -858) scale(1 -1)" gradientUnits="userSpaceOnUse"><stop offset="0" stop-color="#b6b6b5"></stop><stop offset=".23" stop-color="#6d6d6c"></stop><stop offset=".41" stop-color="#4e4d4d"></stop><stop offset=".48" stop-color="#515151"></stop><stop offset=".54" stop-color="#5b5b5b"></stop><stop offset=".6" stop-color="#6d6d6d"></stop><stop offset=".65" stop-color="#858585"></stop><stop offset=".69" stop-color="#979797"></stop><stop offset="1" stop-color="#c3c2c2"></stop></linearGradient><linearGradient id="linear-gradient-49" x1="338.83" y1="-1242.65" x2="341.25" y2="-1242.65" gradientTransform="translate(0 -858) scale(1 -1)" gradientUnits="userSpaceOnUse"><stop offset="0" stop-color="#9a9999"></stop><stop offset=".45" stop-color="#e7e6e6"></stop><stop offset=".82" stop-color="#a3a3a2"></stop></linearGradient><linearGradient id="linear-gradient-50" x1="244.21" y1="-1177.53" x2="244.21" y2="-1181.05" gradientTransform="translate(0 -858) scale(1 -1)" gradientUnits="userSpaceOnUse"><stop offset="0" stop-color="#a8a8a8"></stop><stop offset=".04" stop-color="#b3b2b2"></stop><stop offset=".26" stop-color="#dcdcdc"></stop><stop offset=".43" stop-color="#f5f5f5"></stop><stop offset=".53" stop-color="#fff"></stop><stop offset=".65" stop-color="#ebebeb"></stop><stop offset=".89" stop-color="#b8b8b8"></stop><stop offset="1" stop-color="#9e9e9e"></stop></linearGradient><linearGradient id="linear-gradient-51" x1="362.51" y1="-1204.14" x2="434.55" y2="-1170.69" gradientTransform="translate(0 -858) scale(1 -1)" gradientUnits="userSpaceOnUse"><stop offset="0" stop-color="#bdbdbc"></stop><stop offset=".26" stop-color="#6d6d6c"></stop><stop offset=".41" stop-color="#4e4d4d"></stop><stop offset=".64" stop-color="#4a4a4a"></stop><stop offset=".69" stop-color="#484848"></stop><stop offset="1" stop-color="#555454"></stop></linearGradient><linearGradient id="linear-gradient-52" x1="492.2" y1="-1187.22" x2="462.87" y2="-1181.8" gradientTransform="translate(0 -858) scale(1 -1)" gradientUnits="userSpaceOnUse"><stop offset="0" stop-color="#bfbebf"></stop><stop offset=".26" stop-color="#747474"></stop><stop offset=".41" stop-color="#4e4d4d"></stop><stop offset=".64" stop-color="#4a4a4a"></stop><stop offset=".69" stop-color="#484848"></stop><stop offset="1" stop-color="#555454"></stop></linearGradient><linearGradient id="linear-gradient-53" x1="493.35" y1="-1183.09" x2="498.93" y2="-1206.77" gradientTransform="translate(0 -858) scale(1 -1)" gradientUnits="userSpaceOnUse"><stop offset="0" stop-color="#d1d1d1"></stop><stop offset=".24" stop-color="#9d9d9c"></stop><stop offset=".33" stop-color="#777778"></stop><stop offset=".44" stop-color="#4e4d4d"></stop><stop offset=".65" stop-color="#4a4a4a"></stop><stop offset=".69" stop-color="#484848"></stop><stop offset="1" stop-color="#4e4d4d"></stop></linearGradient><linearGradient id="linear-gradient-54" x1="497.84" y1="-1203.47" x2="500.65" y2="-1203.47" gradientTransform="translate(0 -858) scale(1 -1)" gradientUnits="userSpaceOnUse"><stop offset="0" stop-color="#4b4a4b"></stop><stop offset=".1" stop-color="#4e4d4d"></stop><stop offset=".19" stop-color="#585858"></stop><stop offset=".27" stop-color="#6a6a6a"></stop><stop offset=".34" stop-color="#818282"></stop><stop offset=".41" stop-color="#a1a0a0"></stop><stop offset=".48" stop-color="#c7c6c6"></stop><stop offset=".51" stop-color="#d5d5d4"></stop><stop offset=".55" stop-color="#cbcaca"></stop><stop offset=".62" stop-color="#b0b0b0"></stop><stop offset=".71" stop-color="#868686"></stop><stop offset=".75" stop-color="#717171"></stop><stop offset=".94" stop-color="#50504f"></stop></linearGradient><linearGradient id="linear-gradient-55" x1="506.57" y1="-1185.84" x2="530.62" y2="-1180.17" gradientTransform="translate(0 -858) scale(1 -1)" gradientUnits="userSpaceOnUse"><stop offset="0" stop-color="#e7e6e6"></stop><stop offset=".23" stop-color="#747474"></stop><stop offset=".45" stop-color="#4e4d4d"></stop><stop offset=".63" stop-color="#484848"></stop><stop offset=".69" stop-color="#676767"></stop><stop offset=".79" stop-color="#919292"></stop><stop offset=".88" stop-color="#b3b2b2"></stop><stop offset=".95" stop-color="#c6c6c6"></stop><stop offset="1" stop-color="#cdcccc"></stop></linearGradient><linearGradient id="linear-gradient-56" x1="534.1" y1="-1180.16" x2="534.06" y2="-1178.11" gradientTransform="translate(0 -858) scale(1 -1)" gradientUnits="userSpaceOnUse"><stop offset="0" stop-color="#cac9c9"></stop><stop offset=".25" stop-color="#c7c6c6"></stop><stop offset=".45" stop-color="#bcbcbb"></stop><stop offset=".51" stop-color="#b8b8b8"></stop><stop offset=".55" stop-color="#aeaeaf"></stop><stop offset=".64" stop-color="#949494"></stop><stop offset=".73" stop-color="#717171"></stop><stop offset=".94" stop-color="#50504f"></stop></linearGradient><linearGradient id="linear-gradient-57" x1="509.72" y1="-1175.18" x2="501.84" y2="-1156.75" gradientTransform="translate(0 -858) scale(1 -1)" gradientUnits="userSpaceOnUse"><stop offset="0" stop-color="#fff"></stop><stop offset=".13" stop-color="#a6a6a6"></stop><stop offset=".27" stop-color="#777778"></stop><stop offset=".42" stop-color="#4e4d4d"></stop><stop offset=".73" stop-color="#484848"></stop><stop offset=".99" stop-color="#525252"></stop><stop offset="1" stop-color="#535353"></stop></linearGradient><linearGradient id="linear-gradient-58" x1="497.79" y1="-1157.52" x2="500.45" y2="-1157.52" gradientTransform="translate(0 -858) scale(1 -1)" gradientUnits="userSpaceOnUse"><stop offset="0" stop-color="#d5d5d4"></stop><stop offset=".2" stop-color="#d0d0d0"></stop><stop offset=".37" stop-color="#c7c6c6"></stop><stop offset=".51" stop-color="#b8b8b8"></stop><stop offset=".55" stop-color="#aeaeaf"></stop><stop offset=".62" stop-color="#949494"></stop><stop offset=".7" stop-color="#6b6b6b"></stop><stop offset=".73" stop-color="#5f5f5f"></stop><stop offset=".94" stop-color="#4e4d4d"></stop></linearGradient><linearGradient id="linear-gradient-59" x1="379.04" y1="-1171.45" x2="459.36" y2="-1177.18" gradientTransform="translate(0 -858) scale(1 -1)" gradientUnits="userSpaceOnUse"><stop offset="0" stop-color="#e9e8e8"></stop><stop offset=".62" stop-color="#fff"></stop><stop offset=".8" stop-color="#d6d7d7"></stop><stop offset="1" stop-color="#ababab"></stop></linearGradient><linearGradient id="linear-gradient-60" x1="519.11" y1="-1235.89" x2="523.05" y2="-1235.89" gradientTransform="translate(0 -858) scale(1 -1)" gradientUnits="userSpaceOnUse"><stop offset=".03" stop-color="#4b4a4b"></stop><stop offset=".09" stop-color="#585858"></stop><stop offset=".21" stop-color="#7c7c7c"></stop><stop offset=".36" stop-color="#b3b2b2"></stop><stop offset=".49" stop-color="#d5d5d4"></stop><stop offset=".55" stop-color="#c8c7c7"></stop><stop offset=".66" stop-color="#a5a4a4"></stop><stop offset=".72" stop-color="#919191"></stop><stop offset=".87" stop-color="#767676"></stop></linearGradient><radialGradient id="radial-gradient" cx="324.59" cy="-1168.07" fx="324.59" fy="-1168.07" r="143.36" gradientTransform="translate(0 -858) scale(1 -1)" gradientUnits="userSpaceOnUse"><stop offset=".07" stop-color="#fff"></stop><stop offset=".08" stop-color="#fefefe"></stop><stop offset=".14" stop-color="#d6d6d6"></stop><stop offset=".21" stop-color="#b8b8b8"></stop><stop offset=".26" stop-color="#a7a6a6"></stop><stop offset=".3" stop-color="#a2a1a1"></stop><stop offset=".37" stop-color="#8f8f8f"></stop><stop offset=".48" stop-color="#7d7d7e"></stop><stop offset=".59" stop-color="#727272"></stop><stop offset=".71" stop-color="#6f6f6e"></stop><stop offset="1" stop-color="#6a6a6a"></stop></radialGradient><linearGradient id="linear-gradient-61" x1="467.43" y1="-1201.12" x2="499.98" y2="-1245.12" gradientTransform="translate(0 -858) scale(1 -1)" gradientUnits="userSpaceOnUse"><stop offset="0" stop-color="#aeadad"></stop><stop offset=".09" stop-color="#9a9999"></stop><stop offset=".15" stop-color="#919191"></stop><stop offset=".17" stop-color="#8f8f8f"></stop><stop offset=".34" stop-color="#7d7d7e"></stop><stop offset=".52" stop-color="#727272"></stop><stop offset=".71" stop-color="#6f6f6e"></stop><stop offset="1" stop-color="#8a8a8a"></stop></linearGradient><linearGradient id="linear-gradient-62" x1="466.27" y1="-1283.09" x2="449.6" y2="-1270.63" gradientTransform="translate(0 -858) scale(1 -1)" gradientUnits="userSpaceOnUse"><stop offset="0" stop-color="#e7e6e6"></stop><stop offset=".24" stop-color="#c7c6c6"></stop><stop offset=".56" stop-color="#a5a4a4"></stop><stop offset=".83" stop-color="#8f8f8f"></stop><stop offset="1" stop-color="#878787"></stop></linearGradient><linearGradient id="linear-gradient-63" x1="549.5" y1="-1214.82" x2="549.5" y2="-1217.23" gradientTransform="translate(0 -858) scale(1 -1)" gradientUnits="userSpaceOnUse"><stop offset="0" stop-color="#c3c2c2"></stop><stop offset=".13" stop-color="#bababa"></stop><stop offset=".32" stop-color="#a5a4a4"></stop><stop offset=".45" stop-color="#919191"></stop><stop offset=".72" stop-color="#b2b2b2"></stop><stop offset=".82" stop-color="#bfbebf"></stop></linearGradient></defs><path class="cls-7" d="m190.21,484.43c5.66.73,11.45,1.69,14.82,7.11,2.89,4.1,2.77,9.4,3.01,14.7h-17.84c0-2.05,0-3.98-.97-5.54-3.86-2.89-9.28-1.57-14.23-1.93-9.92.06-19.29-.24-28.45.72-1.08.36-2.41,1.69-2.77,2.77-.36,1.69-.36,3.74,1.08,4.94l1.93,1.45c15.67,1.33,30.86,1.57,46.65,2.77,5.3.72,10.61,2.77,13.62,7.95,4.46,7.84,3.61,20.13-2.05,27.24-4.22,4.94-10.12,5.79-16.27,5.91-14.95.72-30.86.97-45.68-.24-5.18-.6-10-2.17-13.38-6.63-3.01-4.82-3.47-11-3.59-17.03l17.93.16c-.12,3.02-.12,6.15,2.77,7.71,13.86.97,29.17,1.21,42.91-.24,1.32-.48,2.29-1.93,2.65-3.25.37-2.41-.12-4.7-2.16-6.03l-3.02-.72-44.84-2.65c-6.15-.96-13.14-4.1-15.19-10.73-1.81-6.51-2.05-14.46,2.05-20.01,7.59-10.48,21.1-7.84,32.67-8.92l28.33.48Z"></path><path class="cls-7" d="m234.52,531.53c.73,1.57,2.05,3.37,3.73,4.22,12.06,1.2,26.4,1.8,38.22-.6,1.93-1.08,3.13-3.13,3-5.42v-45.32h18.38s-.24,52.06-.24,52.06c-.97,5.18-2.8,10.47-8.97,14.6-3.87,2.41-8.68,2.53-13.39,2.65l-42.19-.24c-5.79-.48-11.57-5.18-14.34-10.61l-1.81-5.42-.24-53.04h17.6l.24,47.13Z"></path><path class="cls-7" d="m591.84,531.65c.73,1.56,1.93,3.37,3.62,4.22,11.57,1.45,24.83,1.21,36.52.24,1.69-.36,3.13-1.81,4.22-3.25l.49-2.53v-45.8l18.11.06v52.44c-.95,5.06-3.59,10.4-8.65,13.17-3.86,2.41-8.85,3.02-13.56,3.14l-42.19-.24c-5.79-.48-11.69-4.69-14.46-10.11-1.2-2.89-1.93-6.15-2.05-9.64v-48.82l18.04.06-.08,47.07Z"></path><path class="cls-7" d="m558.34,520.53l2.49-1.78c6.88-8.07,4.97-18.56,1.48-26.03-5.04-7.9-11.44-7.78-14.41-8.14l-62.01-.06-.15,68.52h18.15l.07-24.28v-.13h36.53c7.01.76,7.41,5.31,7.53,11.47,0,4.39.07,9.26.07,12.99h17.96c0-12.16,2.28-26.42-7.7-32.57Zm-14.36-8.31l-1.09.02-39.24.1.07-12.76,39.42.24c1.56.6,3.12,1.68,3.73,3.25.36,2.54,1.62,7.01-2.89,9.14Z"></path><path class="cls-7" d="m444.22,484.58l-20.65-.06-37.48,68.81h20.74c2.16-3.98,3.94-7.66,6.63-12.05h39.89c2.61,4.28,4.28,7.6,6.53,11.75l21.47.12-37.13-68.58Zm-23.42,42.24c3.75-8.32,8.57-16.03,12.43-24.23,4.7,7.59,8.19,16.03,12.65,23.99l-25.08.24Z"></path><path class="cls-7" d="m379.89,516.34c6.51-4.1,6.27-12.9,4.95-19.77-1.45-6.27-8.2-11.21-14.1-11.93l-63.42-.1v68.75h.61s55.81.01,55.81.01c5.18,0,10.25-.48,14.58-2.42,5.18-2.53,7.71-7.83,8.68-12.9.96-8.08.35-17.56-7.12-21.65Zm-54.93-16.87l38.93.24c1.32.48,3.01,1.57,3.5,3.02.36,1.93.36,4.34-1.21,5.66-1.2,1.45-2.9,1.69-4.46,2.05h-36.77v-10.97Zm42.19,36.28c-2.9,2.17-6.88,2.05-10.73,1.93-10.37-.12-20.85.24-31.23-.24v-12.66l38.46.24c1.69.6,3.5,1.45,4.46,3.25.84,2.29.84,5.55-.96,7.48Z"></path><path class="cls-7" d="m668.12,546.76c3.32,0,5.96,2.7,5.96,6.07s-2.64,6.09-5.99,6.09-6.01-2.67-6.01-6.09,2.7-6.07,6.01-6.07h.03Zm-.03.94c-2.67,0-4.85,2.29-4.85,5.12s2.18,5.15,4.88,5.15c2.7.03,4.85-2.27,4.85-5.12s-2.16-5.15-4.85-5.15h-.03Zm-1.13,8.65h-1.07v-6.77c.56-.08,1.1-.16,1.91-.16,1.03,0,1.7.22,2.11.51.4.29.62.76.62,1.4,0,.89-.59,1.43-1.32,1.64v.05c.59.11,1,.65,1.13,1.65.16,1.05.32,1.46.43,1.67h-1.13c-.16-.21-.32-.83-.46-1.72-.16-.87-.59-1.19-1.45-1.19h-.76v2.91Zm0-3.75h.78c.89,0,1.65-.32,1.65-1.16,0-.59-.43-1.19-1.65-1.19-.35,0-.59.03-.78.06v2.29Z"></path><path class="cls-72" d="m569.36,344.14c0,50.27-78.87,91.03-176.18,91.03s-176.18-40.76-176.18-91.03,78.88-91.02,176.18-91.02c97.31,0,176.18,40.75,176.18,91.02Z"></path><g><path class="cls-72" d="m485.7,317.7c.6,21.7-55.15,74.13-137.41,74.13s-135.74-15.68-135.74-61.23,66.75-79.31,148.97-82.49c101.89-3.94,122.91,23.74,124.18,69.59Z"></path><path class="cls-72" d="m484.73,317.63c.6,21.6-54.84,73.72-136.65,73.72s-134.99-15.61-134.99-60.91c0-45.3,66.38-78.87,148.13-82.02,101.3-3.91,122.24,23.62,123.51,69.21Z"></path><path class="cls-63" d="m483.76,317.56c.59,21.5-54.55,73.31-135.89,73.31s-134.24-15.54-134.24-60.58,66-78.42,147.29-81.56c100.7-3.89,121.57,23.5,122.83,68.83Z"></path><path class="cls-68" d="m482.79,317.49c.59,21.4-54.25,72.9-135.12,72.9s-133.48-15.47-133.48-60.26,65.62-77.98,146.45-81.09c100.11-3.86,120.9,23.38,122.16,68.45Z"></path><path class="cls-68" d="m481.82,317.42c.58,21.3-53.95,72.49-134.36,72.49s-132.73-15.41-132.73-59.93,65.25-77.53,145.61-80.63c99.51-3.83,120.23,23.26,121.48,68.07Z"></path><path class="cls-68" d="m480.84,317.35c.58,21.2-53.65,72.08-133.59,72.08s-131.98-15.34-131.98-59.61,64.87-77.09,144.77-80.16c98.92-3.81,119.57,23.14,120.8,67.69Z"></path><path class="cls-67" d="m479.87,317.28c.58,21.1-53.35,71.67-132.83,71.67s-131.22-15.27-131.22-59.28,64.49-76.65,143.92-79.7c98.33-3.78,118.9,23.01,120.13,67.31Z"></path><path class="cls-15" d="m478.9,317.21c.58,21-53.05,71.26-132.06,71.26s-130.47-15.2-130.47-58.96,64.11-76.2,143.08-79.23c97.73-3.76,118.23,22.89,119.45,66.93Z"></path><path class="cls-15" d="m477.93,317.14c.57,20.9-52.75,70.85-131.3,70.85s-129.72-15.13-129.72-58.63,63.74-75.76,142.24-78.76c97.14-3.73,117.56,22.77,118.77,66.55Z"></path><path class="cls-8" d="m476.96,317.07c.57,20.8-52.45,70.44-130.54,70.44s-128.96-15.07-128.96-58.31,63.36-75.31,141.4-78.3c96.54-3.7,116.89,22.65,118.1,66.17Z"></path><path class="cls-8" d="m475.98,317c.56,20.71-52.15,70.03-129.77,70.03s-128.21-15-128.21-57.98,62.99-74.87,140.56-77.83c95.95-3.68,116.23,22.53,117.42,65.79Z"></path><path class="cls-8" d="m475.01,316.93c.56,20.61-51.85,69.62-129.01,69.62s-127.46-14.93-127.46-57.66,62.61-74.42,139.72-77.37c95.35-3.65,115.56,22.41,116.74,65.41Z"></path><path class="cls-6" d="m474.04,316.86c.56,20.51-51.55,69.21-128.24,69.21s-126.7-14.86-126.7-57.33,62.23-73.98,138.88-76.9c94.76-3.62,114.89,22.29,116.06,65.03Z"></path><path class="cls-6" d="m473.07,316.79c.55,20.41-51.25,68.8-127.48,68.8s-125.95-14.8-125.95-57.01,61.86-73.53,138.04-76.44c94.16-3.6,114.22,22.17,115.39,64.65Z"></path><path class="cls-14" d="m472.09,316.72c.55,20.31-50.95,68.39-126.72,68.39s-125.2-14.73-125.2-56.68,61.48-73.09,137.2-75.97c93.57-3.57,113.56,22.05,114.71,64.27Z"></path><path class="cls-14" d="m471.12,316.65c.54,20.21-50.65,67.98-125.95,67.98s-124.45-14.66-124.45-56.36,61.1-72.64,136.36-75.51c92.98-3.55,112.89,21.92,114.04,63.89Z"></path><path class="cls-9" d="m470.15,316.58c.54,20.11-50.35,67.57-125.19,67.57s-123.69-14.59-123.69-56.04,60.72-72.2,135.52-75.04c92.38-3.52,112.22,21.8,113.36,63.51Z"></path><path class="cls-10" d="m469.18,316.51c.53,20.01-50.05,67.16-124.42,67.16s-122.94-14.53-122.94-55.71,60.35-71.75,134.68-74.57c91.79-3.49,111.55,21.68,112.68,63.13Z"></path><path class="cls-11" d="m468.21,316.44c.53,19.91-49.75,66.75-123.66,66.75s-122.19-14.46-122.19-55.39,59.97-71.31,133.84-74.11c91.19-3.46,110.88,21.56,112.01,62.75Z"></path><path class="cls-5" d="m467.24,316.37c.53,19.81-49.45,66.34-122.9,66.34s-121.43-14.39-121.43-55.06,59.59-70.87,133-73.64c90.6-3.44,110.21,21.44,111.33,62.37Z"></path><path class="cls-5" d="m466.26,316.3c.52,19.72-49.15,65.93-122.13,65.93s-120.68-14.32-120.68-54.74,59.22-70.42,132.16-73.18c90.01-3.42,109.55,21.32,110.66,61.99Z"></path><path class="cls-13" d="m465.29,316.23c.52,19.62-48.85,65.52-121.37,65.52s-119.93-14.25-119.93-54.41,58.84-69.98,131.32-72.71c89.41-3.39,108.88,21.2,109.98,61.61Z"></path><path class="cls-12" d="m464.32,316.15c.52,19.52-48.55,65.11-120.6,65.11s-119.17-14.19-119.17-54.09,58.46-69.53,130.47-72.25c88.82-3.36,108.21,21.08,109.3,61.23Z"></path><path class="cls-64" d="m463.35,316.08c.51,19.42-48.25,64.7-119.84,64.7s-118.42-14.12-118.42-53.76,58.09-69.09,129.63-71.78c88.22-3.34,107.54,20.95,108.63,60.85Z"></path><path class="cls-73" d="m462.37,316.01c.51,19.32-47.95,64.29-119.07,64.29s-117.67-14.05-117.67-53.44,57.71-68.64,128.79-71.32c87.63-3.31,106.87,20.83,107.95,60.47Z"></path><path class="cls-70" d="m461.4,315.94c.5,19.22-47.65,63.87-118.31,63.87s-116.92-13.98-116.92-53.11,57.33-68.2,127.95-70.85c87.03-3.28,106.21,20.71,107.27,60.09Z"></path><path class="cls-58" d="m460.43,315.87c.5,19.12-47.35,63.46-117.55,63.46s-116.16-13.92-116.16-52.79,56.96-67.75,127.11-70.38c86.44-3.26,105.54,20.59,106.6,59.71Z"></path><path class="cls-80" d="m459.46,315.8c.5,19.02-47.05,63.05-116.78,63.05s-115.41-13.85-115.41-52.46,56.58-67.31,126.27-69.92c85.85-3.23,104.87,20.47,105.92,59.33Z"></path><path class="cls-69" d="m458.49,315.73c.49,18.92-46.75,62.64-116.02,62.64s-114.66-13.78-114.66-52.14,56.2-66.87,125.43-69.45c85.25-3.2,104.2,20.35,105.24,58.95Z"></path><path class="cls-71" d="m457.52,315.66c.49,18.82-46.45,62.23-115.25,62.23s-113.9-13.71-113.9-51.81,55.83-66.42,124.59-68.99c84.66-3.18,103.53,20.23,104.57,58.57Z"></path><path class="cls-74" d="m456.54,315.59c.48,18.72-46.15,61.82-114.49,61.82s-113.15-13.65-113.15-51.49,55.45-65.98,123.75-68.52c84.06-3.16,102.86,20.11,103.89,58.19Z"></path><path class="cls-62" d="m455.57,315.52c.48,18.62-45.85,61.41-113.73,61.41s-112.4-13.58-112.4-51.16,55.07-65.53,122.91-68.06c83.47-3.13,102.2,19.99,103.21,57.81Z"></path><path class="cls-61" d="m454.6,315.45c.47,18.53-45.55,61-112.96,61s-111.64-13.51-111.64-50.84,54.7-65.09,122.07-67.59c82.88-3.1,101.53,19.87,102.54,57.43Z"></path><path class="cls-60" d="m453.63,315.38c.47,18.43-45.25,60.59-112.2,60.59s-110.89-13.44-110.89-50.51,54.32-64.64,121.23-67.13c82.28-3.08,100.86,19.75,101.86,57.05Z"></path><path class="cls-59" d="m452.66,315.31c.47,18.33-44.95,60.18-111.43,60.18s-110.14-13.37-110.14-50.19,53.94-64.2,120.39-66.66c81.69-3.05,100.19,19.62,101.18,56.67Z"></path><path class="cls-141" d="m451.68,315.24c.46,18.23-44.65,59.77-110.67,59.77s-109.38-13.31-109.38-49.86,53.57-63.75,119.55-66.19c81.09-3.02,99.53,19.5,100.51,56.29Z"></path><path class="cls-100" d="m450.71,315.17c.46,18.13-44.35,59.36-109.91,59.36s-108.63-13.24-108.63-49.54,53.19-63.31,118.71-65.73c80.5-3,98.86,19.38,99.83,55.91Z"></path><path class="cls-104" d="m449.74,315.1c.46,18.03-44.05,58.95-109.14,58.95s-107.88-13.17-107.88-49.21,52.81-62.86,117.86-65.26c79.9-2.97,98.19,19.26,99.16,55.53Z"></path><path class="cls-103" d="m448.77,315.03c.45,17.93-43.75,58.54-108.38,58.54s-107.13-13.1-107.13-48.89,52.44-62.42,117.02-64.8c79.31-2.95,97.52,19.14,98.48,55.15Z"></path><path class="cls-124" d="m447.8,314.96c.45,17.83-43.45,58.13-107.61,58.13s-106.37-13.04-106.37-48.57,52.06-61.97,116.18-64.33c78.72-2.92,96.85,19.02,97.8,54.76Z"></path><path class="cls-112" d="m446.82,314.89c.44,17.73-43.15,57.72-106.85,57.72s-105.62-12.97-105.62-48.24,51.68-61.53,115.34-63.87c78.12-2.89,96.19,18.9,97.13,54.38Z"></path><path class="cls-113" d="m445.85,314.82c.44,17.63-42.85,57.31-106.08,57.31s-104.87-12.9-104.87-47.91,51.31-61.09,114.5-63.4c77.53-2.87,95.52,18.78,96.45,54.01Z"></path><path class="cls-45" d="m444.88,314.75c.44,17.53-42.55,56.9-105.32,56.9s-104.11-12.83-104.11-47.59,50.93-60.64,113.66-62.94c76.93-2.84,94.85,18.66,95.77,53.63Z"></path><path class="cls-46" d="m443.91,314.68c.43,17.44-42.25,56.49-104.56,56.49s-103.36-12.76-103.36-47.27,50.55-60.2,112.82-62.47c76.34-2.82,94.18,18.53,95.1,53.24Z"></path><path class="cls-44" d="m442.94,314.61c.43,17.34-41.95,56.08-103.79,56.08s-102.61-12.7-102.61-46.94,50.18-59.75,111.98-62c75.75-2.79,93.51,18.41,94.42,52.86Z"></path><path class="cls-48" d="m441.96,314.53c.42,17.24-41.65,55.67-103.03,55.67s-101.85-12.63-101.85-46.62,49.8-59.31,111.14-61.54c75.15-2.76,92.85,18.29,93.74,52.48Z"></path><path class="cls-76" d="m440.99,314.46c.42,17.14-41.35,55.26-102.26,55.26s-101.1-12.56-101.1-46.29,49.42-58.86,110.3-61.07c74.56-2.74,92.18,18.17,93.07,52.1Z"></path><path class="cls-116" d="m440.02,314.39c.42,17.04-41.05,54.85-101.5,54.85s-100.35-12.49-100.35-45.97,49.04-58.42,109.46-60.61c73.96-2.71,91.51,18.05,92.39,51.72Z"></path><path class="cls-114" d="m439.05,314.32c.41,16.94-40.75,54.44-100.74,54.44s-99.59-12.43-99.59-45.64,48.67-57.98,108.62-60.14c73.37-2.68,90.84,17.93,91.71,51.34Z"></path><path class="cls-121" d="m438.08,314.25c.41,16.84-40.45,54.03-99.97,54.03s-98.84-12.36-98.84-45.32,48.29-57.53,107.78-59.68c72.77-2.66,90.17,17.81,91.04,50.96Z"></path><path class="cls-115" d="m437.1,314.18c.4,16.74-40.15,53.62-99.21,53.62s-98.09-12.29-98.09-44.99,47.91-57.09,106.94-59.21c72.18-2.63,89.5,17.69,90.36,50.58Z"></path><path class="cls-122" d="m436.13,314.11c.4,16.64-39.86,53.21-98.44,53.21s-97.34-12.22-97.34-44.67,47.54-56.64,106.09-58.75c71.59-2.61,88.84,17.57,89.69,50.2Z"></path><path class="cls-79" d="m435.16,314.04c.4,16.54-39.55,52.8-97.68,52.8s-96.58-12.16-96.58-44.34,47.16-56.2,105.25-58.28c70.99-2.58,88.17,17.44,89.01,49.82Z"></path><path class="cls-78" d="m434.19,313.97c.39,16.45-39.25,52.39-96.92,52.39s-95.83-12.09-95.83-44.02,46.78-55.75,104.41-57.81c70.4-2.56,87.5,17.32,88.33,49.44Z"></path><path class="cls-66" d="m433.22,313.9c.39,16.35-38.96,51.98-96.15,51.98s-95.08-12.02-95.08-43.69,46.41-55.31,103.57-57.35c69.8-2.53,86.83,17.2,87.65,49.06Z"></path><path class="cls-75" d="m432.24,313.83c.38,16.25-38.65,51.57-95.39,51.57s-94.32-11.95-94.32-43.37,46.03-54.86,102.73-56.88c69.21-2.5,86.17,17.08,86.98,48.68Z"></path><path class="cls-65" d="m431.27,313.76c.38,16.15-38.36,51.16-94.62,51.16s-93.57-11.89-93.57-43.04,45.66-54.42,101.89-56.42c68.61-2.48,85.5,16.96,86.3,48.3Z"></path><path class="cls-77" d="m430.3,313.69c.38,16.05-38.05,50.75-93.86,50.75s-92.82-11.82-92.82-42.72,45.28-53.98,101.05-55.95c68.02-2.45,84.83,16.84,85.62,47.92Z"></path><path class="cls-90" d="m429.33,313.62c.37,15.95-37.76,50.34-93.1,50.34s-92.06-11.75-92.06-42.39,44.9-53.53,100.21-55.49c67.43-2.42,84.16,16.72,84.95,47.54Z"></path><path class="cls-108" d="m428.36,313.55c.37,15.85-37.46,49.93-92.33,49.93s-91.31-11.68-91.31-42.07,44.52-53.09,99.37-55.02c66.83-2.4,83.49,16.6,84.27,47.16Z"></path><path class="cls-107" d="m427.38,313.48c.36,15.75-37.16,49.52-91.57,49.52s-90.56-11.61-90.56-41.74,44.15-52.64,98.53-54.56c66.24-2.37,82.83,16.48,83.6,46.78Z"></path><path class="cls-106" d="m426.41,313.41c.36,15.65-36.86,49.11-90.8,49.11s-89.81-11.55-89.81-41.42,43.77-52.2,97.69-54.09c65.64-2.35,82.16,16.35,82.92,46.4Z"></path><path class="cls-106" d="m425.44,313.34c.36,15.55-36.56,48.7-90.04,48.7s-89.05-11.48-89.05-41.09,43.39-51.75,96.85-53.62c65.05-2.32,81.49,16.23,82.24,46.02Z"></path><path class="cls-135" d="m424.47,313.27c.35,15.45-36.26,48.29-89.27,48.29s-88.3-11.41-88.3-40.77,43.02-51.31,96.01-53.16c64.45-2.29,80.82,16.11,81.56,45.64Z"></path><path class="cls-125" d="m423.5,313.2c.35,15.35-35.96,47.88-88.51,47.88s-87.55-11.34-87.55-40.44,42.64-50.86,95.17-52.69c63.86-2.27,80.15,15.99,80.89,45.26Z"></path><path class="cls-145" d="m422.52,313.13c.34,15.26-35.66,47.47-87.75,47.47s-86.79-11.28-86.79-40.12,42.26-50.42,94.33-52.23c63.27-2.24,79.49,15.87,80.21,44.88Z"></path><path class="cls-138" d="m421.55,313.06c.34,15.16-35.36,47.06-86.98,47.06s-86.04-11.21-86.04-39.8,41.89-49.97,93.49-51.76c62.67-2.22,78.82,15.75,79.54,44.5Z"></path><path class="cls-137" d="m420.58,312.98c.34,15.06-35.06,46.65-86.22,46.65s-85.29-11.14-85.29-39.47,41.51-49.53,92.65-51.3c62.08-2.19,78.15,15.63,78.86,44.12Z"></path><path class="cls-142" d="m419.61,312.91c.33,14.96-34.76,46.24-85.46,46.24s-84.53-11.07-84.53-39.15,41.13-49.08,91.81-50.83c61.48-2.16,77.48,15.51,78.18,43.74Z"></path><path class="cls-91" d="m418.64,312.84c.33,14.86-34.46,45.83-84.69,45.83s-83.78-11.01-83.78-38.82,40.76-48.64,90.96-50.37c60.89-2.14,76.81,15.39,77.51,43.36Z"></path><path class="cls-89" d="m417.66,312.77c.32,14.76-34.16,45.42-83.93,45.42s-83.03-10.94-83.03-38.5,40.38-48.2,90.12-49.9c60.3-2.11,76.15,15.27,76.83,42.98Z"></path><path class="cls-101" d="m416.69,312.7c.32,14.66-33.86,45.01-83.16,45.01s-82.27-10.87-82.27-38.17,40-47.75,89.28-49.44c59.7-2.09,75.48,15.14,76.15,42.6Z"></path><path class="cls-102" d="m415.72,312.63c.32,14.56-33.56,44.6-82.4,44.6s-81.52-10.8-81.52-37.85,39.63-47.31,88.44-48.97c59.11-2.06,74.81,15.02,75.48,42.22Z"></path><path class="cls-117" d="m414.75,312.56c.31,14.46-33.26,44.19-81.63,44.19s-80.77-10.74-80.77-37.52,39.25-46.86,87.6-48.5c58.51-2.03,74.14,14.9,74.8,41.84Z"></path><path class="cls-118" d="m413.77,312.49c.31,14.37-32.96,43.77-80.87,43.77s-80.02-10.67-80.02-37.2,38.87-46.42,86.76-48.04c57.92-2.01,73.47,14.78,74.12,41.46Z"></path><path class="cls-119" d="m412.8,312.42c.3,14.27-32.66,43.36-80.11,43.36s-79.26-10.6-79.26-36.87,38.5-45.97,85.92-47.57c57.32-1.98,72.81,14.66,73.45,41.08Z"></path><path class="cls-120" d="m411.83,312.35c.3,14.17-32.36,42.95-79.34,42.95s-78.51-10.53-78.51-36.55,38.12-45.53,85.08-47.11c56.73-1.96,72.14,14.54,72.77,40.7Z"></path><path class="cls-109" d="m410.86,312.28c.3,14.07-32.06,42.54-78.58,42.54s-77.76-10.46-77.76-36.22,37.74-45.08,84.24-46.64c56.14-1.93,71.47,14.42,72.1,40.32Z"></path><path class="cls-110" d="m409.89,312.21c.29,13.97-31.76,42.13-77.81,42.13s-77-10.4-77-35.9,37.37-44.64,83.4-46.18c55.54-1.9,70.8,14.3,71.42,39.94Z"></path><path class="cls-111" d="m408.92,312.14c.29,13.87-31.46,41.72-77.05,41.72s-76.25-10.33-76.25-35.57,36.99-44.19,82.56-45.71c54.95-1.88,70.13,14.18,70.74,39.56Z"></path><path class="cls-132" d="m407.94,312.07c.28,13.77-31.16,41.31-76.28,41.31s-75.5-10.26-75.5-35.25,36.61-43.75,81.72-45.24c54.35-1.85,69.46,14.06,70.06,39.18Z"></path><path class="cls-136" d="m406.97,312c.28,13.67-30.86,40.9-75.52,40.9s-74.74-10.19-74.74-34.92,36.24-43.31,80.88-44.78c53.76-1.82,68.8,13.93,69.39,38.8Z"></path><path class="cls-128" d="m406,311.93c.28,13.57-30.56,40.49-74.76,40.49s-73.99-10.12-73.99-34.6,35.86-42.86,80.04-44.31c53.16-1.8,68.13,13.81,68.71,38.42Z"></path><path class="cls-127" d="m405.03,311.86c.27,13.47-30.26,40.08-73.99,40.08s-73.24-10.06-73.24-34.27,35.48-42.42,79.19-43.85c52.57-1.77,67.46,13.69,68.04,38.04Z"></path><path class="cls-131" d="m404.06,311.79c.27,13.37-29.96,39.67-73.23,39.67s-72.48-9.99-72.48-33.95,35.11-41.97,78.35-43.38c51.98-1.75,66.79,13.57,67.36,37.66Z"></path><path class="cls-126" d="m403.08,311.72c.26,13.27-29.66,39.26-72.47,39.26s-71.73-9.92-71.73-33.63,34.73-41.53,77.51-42.92c51.38-1.72,66.13,13.45,66.68,37.28Z"></path><path class="cls-105" d="m402.11,311.65c.26,13.17-29.36,38.85-71.7,38.85s-70.98-9.85-70.98-33.3,34.35-41.08,76.67-42.45c50.79-1.69,65.46,13.33,66.01,36.9Z"></path><path class="cls-20" d="m401.14,311.58c.26,13.08-29.06,38.44-70.94,38.44s-70.23-9.79-70.23-32.98,33.98-40.64,75.83-41.99c50.19-1.67,64.79,13.21,65.33,36.52Z"></path><path class="cls-43" d="m400.17,311.51c.25,12.98-28.76,38.03-70.17,38.03s-69.47-9.72-69.47-32.65,33.6-40.19,74.99-41.52c49.6-1.64,64.12,13.09,64.65,36.14Z"></path><path class="cls-16" d="m399.2,311.43c.25,12.88-28.46,37.62-69.41,37.62s-68.72-9.65-68.72-32.33,33.22-39.75,74.15-41.05c49-1.62,63.45,12.96,63.98,35.76Z"></path><path class="cls-17" d="m398.22,311.36c.24,12.78-28.16,37.21-68.64,37.21s-67.97-9.58-67.97-32,32.84-39.31,73.31-40.59c48.41-1.59,62.78,12.84,63.3,35.38Z"></path><path class="cls-27" d="m397.25,311.3c.24,12.68-27.86,36.8-67.88,36.8s-67.21-9.52-67.21-31.68,32.47-38.86,72.47-40.12c47.82-1.56,62.12,12.72,62.62,35Z"></path><path class="cls-24" d="m396.28,311.22c.24,12.58-27.56,36.39-67.12,36.39s-66.46-9.45-66.46-31.35,32.09-38.42,71.63-39.66c47.22-1.54,61.45,12.6,61.95,34.62Z"></path><path class="cls-92" d="m395.31,311.15c.23,12.48-27.26,35.98-66.35,35.98s-65.71-9.38-65.71-31.03,31.71-37.97,70.79-39.19c46.63-1.51,60.78,12.48,61.27,34.24Z"></path><path class="cls-83" d="m394.34,311.08c.25,12.38-26.96,35.57-65.59,35.57s-64.95-9.31-64.95-30.7,31.34-37.53,69.95-38.73c46.03-1.49,60.16,12.36,60.6,33.86Z"></path><path class="cls-84" d="m393.36,311.01c.25,12.28-26.66,35.16-64.82,35.16s-64.2-9.25-64.2-30.38,30.96-37.08,69.11-38.26c45.44-1.46,59.49,12.24,59.92,33.48Z"></path><path class="cls-96" d="m392.39,310.94c.24,12.18-26.36,34.75-64.06,34.75s-63.45-9.18-63.45-30.05,30.58-36.64,68.27-37.8c44.84-1.43,58.82,12.12,59.24,33.1Z"></path><path class="cls-95" d="m391.42,310.87c.24,12.08-26.06,34.34-63.3,34.34s-62.7-9.11-62.7-29.73,30.21-36.19,67.43-37.33c44.25-1.41,58.15,12,58.57,32.72Z"></path><path class="cls-86" d="m390.45,310.8c.24,11.98-25.76,33.93-62.53,33.93s-61.94-9.04-61.94-29.4,29.83-35.75,66.58-36.87c43.66-1.38,57.48,11.88,57.89,32.34Z"></path><path class="cls-22" d="m389.48,310.73c.23,11.89-25.46,33.52-61.77,33.52s-61.19-8.97-61.19-29.08,29.45-35.31,65.74-36.4c43.06-1.36,56.82,11.75,57.21,31.96Z"></path><path class="cls-19" d="m388.5,310.66c.23,11.79-25.16,33.11-61,33.11s-60.44-8.91-60.44-28.75,29.08-34.86,64.9-35.93c42.47-1.33,56.15,11.63,56.54,31.58Z"></path><path class="cls-129" d="m387.53,310.59c.23,11.69-24.86,32.7-60.24,32.7s-59.68-8.84-59.68-28.43,28.7-34.42,64.06-35.47c41.88-1.3,55.48,11.51,55.86,31.2Z"></path><path class="cls-139" d="m386.56,310.52c.22,11.59-24.56,32.29-59.47,32.29s-58.93-8.77-58.93-28.1,28.32-33.97,63.22-35c41.28-1.28,54.81,11.39,55.18,30.82Z"></path><path class="cls-130" d="m385.59,310.45c.22,11.49-24.26,31.88-58.71,31.88s-58.18-8.7-58.18-27.78,27.95-33.53,62.38-34.54c40.69-1.25,54.14,11.27,54.51,30.44Z"></path><path class="cls-133" d="m384.62,310.38c.21,11.39-23.96,31.47-57.95,31.47s-57.42-8.64-57.42-27.45,27.57-33.08,61.54-34.07c40.09-1.22,53.47,11.15,53.83,30.06Z"></path><path class="cls-134" d="m383.64,310.31c.21,11.29-23.66,31.06-57.18,31.06s-56.67-8.57-56.67-27.13,27.19-32.64,60.7-33.61c39.5-1.2,52.81,11.03,53.15,29.68Z"></path><path class="cls-144" d="m382.67,310.24c.21,11.19-23.36,30.65-56.42,30.65s-55.92-8.5-55.92-26.8,26.82-32.19,59.86-33.14c38.9-1.17,52.14,10.9,52.48,29.3Z"></path><path class="cls-143" d="m381.7,310.17c.2,11.09-23.06,30.24-55.65,30.24s-55.17-8.43-55.17-26.48,26.44-31.75,59.02-32.67c38.31-1.15,51.47,10.78,51.8,28.92Z"></path><path class="cls-25" d="m380.73,310.1c.2,10.99-22.76,29.83-54.89,29.83s-54.41-8.37-54.41-26.15,26.06-31.3,58.18-32.21c37.72-1.12,50.8,10.66,51.12,28.54Z"></path><path class="cls-18" d="m379.76,310.03c.19,10.9-22.46,29.42-54.13,29.42s-53.66-8.3-53.66-25.83,25.69-30.86,57.34-31.74c37.12-1.1,50.13,10.54,50.45,28.16Z"></path><path class="cls-21" d="m378.78,309.96c.19,10.8-22.16,29.01-53.36,29.01s-52.9-8.23-52.9-25.5,25.31-30.41,56.5-31.28c36.53-1.07,49.47,10.42,49.77,27.77Z"></path><path class="cls-98" d="m377.81,309.89c.19,10.7-21.87,28.6-52.6,28.6s-52.15-8.16-52.15-25.18,24.93-29.97,55.66-30.81c35.93-1.04,48.8,10.3,49.09,27.4Z"></path><path class="cls-97" d="m376.84,309.81c.18,10.6-21.56,28.19-51.83,28.19s-51.4-8.1-51.4-24.85,24.56-29.53,54.82-30.35c35.34-1.02,48.13,10.18,48.42,27.01Z"></path><path class="cls-99" d="m375.87,309.75c.18,10.5-21.27,27.78-51.07,27.78s-50.65-8.03-50.65-24.53,24.18-29.08,53.98-29.88c34.74-.99,47.46,10.06,47.74,26.63Z"></path><path class="cls-140" d="m374.9,309.67c.17,10.4-20.97,27.37-50.31,27.37s-49.89-7.96-49.89-24.21,23.8-28.64,53.14-29.42c34.15-.96,46.79,9.94,47.06,26.26Z"></path><path class="cls-123" d="m373.92,309.6c.17,10.3-20.67,26.96-49.54,26.96s-49.14-7.89-49.14-23.88,23.43-28.19,52.29-28.95c33.55-.94,46.13,9.82,46.39,25.87Z"></path><path class="cls-50" d="m372.95,309.53c.17,10.2-20.37,26.55-48.78,26.55s-48.39-7.82-48.39-23.56,23.05-27.75,51.45-28.49c32.96-.91,45.46,9.7,45.71,25.5Z"></path><path class="cls-51" d="m371.98,309.46c.16,10.1-20.07,26.14-48.01,26.14s-47.63-7.76-47.63-23.23,22.67-27.3,50.61-28.02c32.37-.89,44.79,9.58,45.04,25.12Z"></path><path class="cls-81" d="m371.01,309.39c.16,10-19.77,25.73-47.25,25.73s-46.88-7.69-46.88-22.91,22.3-26.86,49.77-27.55c31.77-.86,44.12,9.45,44.36,24.73Z"></path><path class="cls-35" d="m370.04,309.32c.15,9.9-19.46,25.32-46.49,25.32s-46.13-7.62-46.13-22.58,21.92-26.42,48.93-27.09c31.18-.83,43.45,9.33,43.68,24.35Z"></path><path class="cls-34" d="m369.06,309.25c.15,9.8-19.17,24.91-45.72,24.91s-45.38-7.55-45.38-22.26,21.54-25.97,48.09-26.62c30.59-.81,42.78,9.21,43.01,23.97Z"></path><path class="cls-33" d="m368.09,309.18c.14,9.71-18.87,24.5-44.96,24.5s-44.62-7.49-44.62-21.93,21.17-25.53,47.25-26.16c29.99-.78,42.11,9.09,42.33,23.59Z"></path><path class="cls-38" d="m367.12,309.11c.14,9.61-18.57,24.09-44.19,24.09s-43.87-7.42-43.87-21.61,20.79-25.08,46.41-25.69c29.4-.76,41.45,8.97,41.65,23.21Z"></path><path class="cls-39" d="m366.15,309.04c.14,9.51-18.27,23.67-43.43,23.67s-43.12-7.35-43.12-21.28,20.41-24.64,45.57-25.23c28.8-.73,40.78,8.85,40.98,22.83Z"></path><path class="cls-47" d="m365.18,308.97c.13,9.41-17.97,23.26-42.67,23.26s-42.36-7.28-42.36-20.96,20.03-24.19,44.73-24.76c28.21-.71,40.11,8.73,40.3,22.45Z"></path><path class="cls-49" d="m364.2,308.9c.13,9.31-17.67,22.85-41.9,22.85s-41.61-7.21-41.61-20.63,19.66-23.75,43.89-24.3c27.61-.68,39.44,8.61,39.62,22.07Z"></path><path class="cls-40" d="m363.23,308.83c.12,9.21-17.37,22.44-41.14,22.44s-40.86-7.15-40.86-20.31,19.28-23.3,43.05-23.83c27.02-.65,38.77,8.49,38.95,21.7Z"></path><path class="cls-41" d="m362.26,308.76c.12,9.11-17.07,22.03-40.37,22.03s-40.1-7.08-40.1-19.98,18.91-22.86,42.21-23.36c26.43-.63,38.1,8.36,38.27,21.31Z"></path><path class="cls-28" d="m361.29,308.69c.11,9.01-16.77,21.62-39.61,21.62s-39.35-7.01-39.35-19.66,18.53-22.41,41.36-22.9c25.83-.6,37.43,8.24,37.6,20.93Z"></path><path class="cls-32" d="m360.32,308.62c.11,8.91-16.47,21.21-38.84,21.21s-38.6-6.94-38.6-19.33,18.15-21.97,40.52-22.43c25.24-.57,36.76,8.12,36.92,20.55Z"></path><path class="cls-31" d="m359.35,308.55c.11,8.82-16.17,20.8-38.08,20.8s-37.84-6.88-37.84-19.01,17.78-21.53,39.68-21.97c24.64-.55,36.09,8,36.24,20.17Z"></path><path class="cls-85" d="m358.37,308.48c.1,8.72-15.87,20.39-37.32,20.39s-37.09-6.81-37.09-18.68,17.4-21.08,38.84-21.5c24.05-.52,35.43,7.88,35.56,19.79Z"></path><path class="cls-88" d="m357.4,308.41c.1,8.62-15.57,19.98-36.55,19.98s-36.34-6.74-36.34-18.36,17.02-20.64,38-21.04c23.45-.5,34.76,7.76,34.89,19.41Z"></path><path class="cls-23" d="m356.43,308.34c.09,8.52-15.27,19.57-35.79,19.57s-35.59-6.67-35.59-18.03,16.64-20.19,37.16-20.57c22.86-.47,34.09,7.64,34.21,19.03Z"></path><path class="cls-26" d="m355.46,308.27c.09,8.42-14.97,19.16-35.03,19.16s-34.83-6.61-34.83-17.71,16.27-19.75,36.32-20.11c22.27-.44,33.42,7.52,33.54,18.65Z"></path><path class="cls-42" d="m354.48,308.2c.08,8.32-14.67,18.75-34.26,18.75s-34.08-6.54-34.08-17.39,15.89-19.3,35.48-19.64c21.67-.42,32.75,7.4,32.86,18.27Z"></path><path class="cls-94" d="m353.51,308.12c.08,8.22-14.37,18.34-33.5,18.34s-33.33-6.47-33.33-17.06,15.51-18.86,34.64-19.17c21.08-.39,32.08,7.27,32.18,17.89Z"></path><path class="cls-93" d="m352.54,308.05c.07,8.12-14.07,17.93-32.73,17.93s-32.57-6.4-32.57-16.74,15.14-18.41,33.8-18.71c20.48-.36,31.41,7.15,31.51,17.51Z"></path><path class="cls-94" d="m351.57,307.98c.07,8.02-13.77,17.52-31.97,17.52s-31.82-6.34-31.82-16.41,14.76-17.97,32.96-18.24c19.89-.34,30.74,7.03,30.83,17.13Z"></path><path class="cls-36" d="m350.6,307.91c.07,7.92-13.47,17.11-31.2,17.11s-31.07-6.27-31.07-16.09,14.38-17.52,32.12-17.78c19.29-.31,30.07,6.91,30.15,16.75Z"></path><path class="cls-37" d="m349.62,307.84c.04,7.82-13.17,16.7-30.44,16.7s-30.32-6.2-30.32-15.76,14.01-17.08,31.28-17.31c18.7-.29,29.38,6.79,29.48,16.37Z"></path><path class="cls-37" d="m348.65,307.77c.05,7.73-12.87,16.29-29.68,16.29s-29.56-6.13-29.56-15.44,13.63-16.64,30.44-16.85c18.11-.26,28.73,6.67,28.8,15.99Z"></path><path class="cls-30" d="m347.68,307.7c.04,7.63-12.57,15.88-28.91,15.88s-28.81-6.06-28.81-15.11,13.25-16.19,29.6-16.38c17.51-.23,28.05,6.55,28.12,15.61Z"></path><path class="cls-29" d="m346.71,307.63c.03,7.53-12.27,15.47-28.15,15.47s-28.05-6-28.05-14.79,12.88-15.75,28.76-15.92c16.92-.21,27.38,6.43,27.45,15.23Z"></path><path class="cls-87" d="m345.74,307.56c.03,7.43-11.97,15.06-27.38,15.06s-27.3-5.93-27.3-14.46,12.5-15.3,27.92-15.45c16.32-.18,26.71,6.31,26.77,14.85Z"></path><path class="cls-82" d="m344.76,307.49c.02,7.33-11.67,14.65-26.62,14.65s-26.55-5.86-26.55-14.14,12.12-14.86,27.07-14.98c15.73-.16,26.04,6.18,26.09,14.47Z"></path><path class="cls-52" d="m343.79,307.42c.02,7.23-11.37,14.24-25.85,14.24s-25.8-5.79-25.8-13.81,11.75-14.41,26.23-14.52c15.13-.13,25.38,6.06,25.42,14.09Z"></path><path class="cls-55" d="m342.82,307.35c.02,7.13-11.07,13.83-25.09,13.83s-25.04-5.73-25.04-13.49,11.37-13.97,25.39-14.05c14.54-.11,24.71,5.94,24.74,13.71Z"></path><path class="cls-54" d="m341.85,307.28c.01,7.03-10.77,13.42-24.33,13.42s-24.29-5.66-24.29-13.16,10.99-13.52,24.55-13.59c13.95-.08,24.04,5.82,24.07,13.33Z"></path><path class="cls-57" d="m340.88,307.21c0,6.93-10.47,13.01-23.56,13.01s-23.54-5.59-23.54-12.84,10.62-13.08,23.71-13.12c13.35-.05,23.37,5.7,23.39,12.95Z"></path><path class="cls-53" d="m339.9,307.14c0,6.83-10.17,12.6-22.8,12.6s-22.78-5.52-22.78-12.51,10.24-12.64,22.87-12.66c12.76-.03,22.7,5.58,22.71,12.57Z"></path><path class="cls-56" d="m338.93,307.07c0,6.73-9.87,12.19-22.03,12.19s-22.03-5.46-22.03-12.19,9.86-12.19,22.03-12.19c12.16,0,22.03,5.46,22.03,12.19Z"></path></g><path class="cls-4" d="m438.3,256.13c26.84,13.94,43.47,33.27,43.47,54.65,0,42.5-65.75,76.95-146.85,76.95-47.09,0-89.01-11.62-115.88-29.68,12.96,43.67,85.99,77.12,174.14,77.12,97.31,0,176.18-40.76,176.18-91.03,0-42.21-55.62-77.71-131.06-88Z"></path><g><g><path class="cls-2" d="m583.62,343.94c0,56.81-85.45,102.86-190.86,102.86s-190.84-46.05-190.84-102.86,85.45-102.86,190.84-102.86,190.86,46.05,190.86,102.86Z"></path><path class="cls-3" d="m567.96,343.54c0,49.93-78.34,90.4-174.98,90.4s-174.98-40.47-174.98-90.4,78.35-90.41,174.98-90.41c96.64,0,174.98,40.47,174.98,90.41Z"></path><path class="cls-1" d="m583.62,343.94c0,56.81-85.45,102.86-190.86,102.86s-190.84-46.05-190.84-102.86,85.45-102.86,190.84-102.86,190.86,46.05,190.86,102.86Z"></path><path class="cls-1" d="m580.41,342.93c0,54.92-83.92,99.45-187.44,99.45s-187.43-44.52-187.43-99.45,83.91-99.44,187.43-99.44c103.51,0,187.44,44.52,187.44,99.44Z"></path><path class="cls-150" d="m392.77,241.08c-105.4,0-190.84,46.05-190.84,102.86s85.45,102.86,190.84,102.86,190.86-46.05,190.86-102.86-85.45-102.86-190.86-102.86Zm.2,201.3c-103.52,0-187.43-44.52-187.43-99.45s83.91-99.44,187.43-99.44,187.44,44.52,187.44,99.44c0,54.92-83.92,99.45-187.44,99.45Z"></path><path class="cls-1" d="m567.96,343.54c0,49.93-78.34,90.4-174.98,90.4s-174.98-40.47-174.98-90.4,78.35-90.41,174.98-90.41c96.64,0,174.98,40.47,174.98,90.41Z"></path><path class="cls-148" d="m392.77,241.08c-105.4,0-190.84,46.05-190.84,102.86s85.45,102.86,190.84,102.86,190.86-46.05,190.86-102.86-85.45-102.86-190.86-102.86Zm.2,192.86c-96.63,0-174.98-40.47-174.98-90.4s78.35-90.41,174.98-90.41,174.98,40.47,174.98,90.41-78.34,90.4-174.98,90.4Z"></path><path class="cls-149" d="m392.17,245.3c-102.07,0-184.82,43.89-184.82,98.03s82.75,98.04,184.82,98.04,184.82-43.89,184.82-98.04c0-54.14-82.74-98.03-184.82-98.03Zm.81,188.64c-96.63,0-174.98-40.47-174.98-90.4s78.35-90.41,174.98-90.41,174.98,40.47,174.98,90.41-78.34,90.4-174.98,90.4Z"></path><path class="cls-153" d="m392.97,251.68c-98.19,0-177.79,41.13-177.79,91.86s79.6,91.86,177.79,91.86,177.79-41.13,177.79-91.86c0-50.73-79.6-91.86-177.79-91.86Zm0,182.26c-96.63,0-174.98-40.47-174.98-90.4s78.35-90.41,174.98-90.41,174.98,40.47,174.98,90.41-78.34,90.4-174.98,90.4Z"></path><path class="cls-2" d="m361.33,392.15s-18.38,1.4-18.28,3.41c.1,2.01,15.17,3.52,17.67,3.82,2.51.3,12.36,1.41,15.17,2.41,2.81,1.01,4.72,1.81,5.83,4.93,1.1,3.11,3.81,12.35,3.81,12.35,0,0,1.3,5.12,2.41,5.12s2.41-5.42,2.41-5.42c0,0,2.72-11.55,4.73-13.66,2.01-2.11,2.31-2.91,11.25-4.32,8.94-1.41,17.77-3.01,24.51-3.01s8.04.1,12.15.6c4.13.5,12.96,1.61,16.48,2.71,3.52,1.1,4.73,3.62,5.63,5.93.91,2.31,2.91,8.43,2.91,8.43,0,0,.5,2.51,1.71,2.51s1.7-2.61,1.7-2.61c0,0,3.22-10.24,5.02-11.85,1.81-1.61,3.12-3.11,12.06-4.22,8.94-1.11,14.26-2.21,17.38-2.41,3.11-.2,5.32-.6,5.32-1.61s-1.21-1.41-5.62-2.01c-4.42-.6-17.58-2.01-24.52-3.52-6.92-1.5-7.33-7.03-8.34-9.74-1-2.71-1.7-7.03-3.31-7.03s-2.01,2.91-2.31,3.82c-.3.9-1.91,6.63-3.11,8.54-1.21,1.91-2.12,4.02-6.83,4.92-4.72.9-13.56,2.81-21.9,3.01-8.34.2-13.06-.4-19.59-1.2-6.53-.81-12.55-1.1-17.07-3.12-4.52-2.01-6.83-8.63-8.04-12.65-1.2-4.02-2-5.93-2.71-5.93s-2,3.01-2.81,5.62c-.8,2.61-2.92,10.35-6.03,12.26-3.12,1.9-8.34,3.01-17.68,3.91Z"></path><path class="cls-151" d="m471.22,410.03c-.2.9-.6,2.51-1.5,2.51s-1.21-1-1.61-2.31c-.4-1.31-.8-4.72-2.31-8.34-1.51-3.62-8.04-4.02-12.65-4.42s-23.34-1.27-27.22-.9c-.54.05-1.49.07-2.71.15l-.61,1.62c2.97-.35,5.75-.57,8.24-.57,6.73,0,8.04.1,12.15.6,4.13.5,12.96,1.61,16.48,2.71,3.52,1.1,4.73,3.62,5.63,5.93.91,2.31,2.91,8.43,2.91,8.43,0,0,.5,2.51,1.71,2.51s1.7-2.61,1.7-2.61l-.2-5.32Z"></path><path class="cls-152" d="m477.35,391.75c3.82,1.51,13.27,2.15,14.78,2.15s4.1-.15,4.1,1.16-1.5,1.41-3.31,1.51l12.96.3c3.11-.2,5.32-.6,5.32-1.61s-1.21-1.41-5.62-2.01c-4.42-.6-17.58-2.01-24.52-3.52l-3.72,2.01Z"></path><path class="cls-146" d="m471.22,381.91c-.3-1.71-1-3.21-1.81-3.21s-1.5,1.91-1.81,3.32c-.3,1.4-.19,6.33-3.41,8.43-3.21,2.11-6.73,2.97-17.89,3.58-11.14.6-20.48.24-23.89.14l-.12-1.34c3.79.37,7.65.57,12.97.44,8.34-.2,17.17-2.11,21.9-3.01,4.72-.91,5.62-3.02,6.83-4.92,1.2-1.91,2.81-7.63,3.11-8.54.3-.91.7-3.82,2.31-3.82s2.31,4.32,3.31,7.03l-1.5,1.91Z"></path><path class="cls-147" d="m397.19,388.12c.44.32.91.6,1.41.81,4.52,2.01,10.55,2.31,17.07,3.12,6.53.8,11.25,1.4,19.59,1.2l.07.98c-6.03.09-10.73-.01-12.93-.08-3.42-.1-21.2-.6-26.82-2.51-.54-.22-1.04-.48-1.5-.79l3.1-2.73Z"></path><path class="cls-191" d="m425.92,396.57c-3.31.1-21.8,1.71-26.72,2.01-4.92.3-6.63,3.41-7.33,4.82-.71,1.4-2.71,11.15-2.92,11.95-.2.8-.5,2.41-1,2.41v6.43c1.11,0,2.41-5.42,2.41-5.42,0,0,2.72-11.55,4.73-13.66,2.01-2.11,2.31-2.91,11.25-4.32,6.92-1.09,13.79-2.3,19.67-2.79l-.08-1.43Z"></path><path class="cls-192" d="m370.57,397.98s6.03.3,8.44,1.4c2.41,1.1,4.52,2.31,5.12,4.72.6,2.41,2.62,11.05,2.81,11.85.2.8.5,1.81,1.01,1.81s.8-1.61,1-2.41l1.4,3.42s-1.3,5.42-2.41,5.42-2.41-5.12-2.41-5.12c0,0-2.71-9.24-3.81-12.35-1.11-3.11-3.02-3.92-5.83-4.93-1.07-.38-3.17-.78-5.49-1.14l.16-2.67Z"></path><path class="cls-190" d="m386.95,415.96c.2.8.5,1.81,1.01,1.81.38,0,.64-.9.83-1.7l.26,6.76c-.36.78-.73,1.36-1.1,1.36s-.75-.55-1.1-1.29l.1-6.95Z"></path><path class="cls-189" d="m375.9,401.8c-2.81-1-12.66-2.11-15.17-2.41-2.51-.3-17.57-1.81-17.67-3.82-.1-2.01,18.28-3.41,18.28-3.41l.5,1.91c-3.01.4-5.53.3-5.53,1.31s1.91,1.71,5.63,1.91c3.72.2,8.64.7,8.64.7,0,0,6.03.3,8.44,1.4l-3.11,2.41Z"></path><path class="cls-179" d="m343.05,395.57c-.1-2.01,18.28-3.41,18.28-3.41,9.34-.91,14.57-2.01,17.68-3.91,3.11-1.91,5.23-9.65,6.03-12.26.8-2.61,2.11-5.62,2.81-5.62s1.51,1.91,2.71,5.93l-1,4.22c-.6-3.61-.9-4.52-1.8-4.52s-1.51,2.71-2.01,5.12c-.5,2.41-1.25,9.08-6.02,10.55-5.23,1.61-8.14,2.11-17.88,2.41-3.01.4-5.53.3-5.53,1.31l-13.25.2Z"></path><path class="cls-185" d="m395.59,391.65c-3.22-1.3-4.92-4.11-6.03-11.15-.6-3.61-.9-4.52-1.8-4.52l.1-5.62c.71,0,1.51,1.91,2.71,5.93,1.21,4.02,3.52,10.65,8.04,12.65l-3.01,2.72Z"></path><path class="cls-187" d="m387.23,376.31c.16-.21.33-.33.52-.33.27,0,.48.08.66.29l.08-5.43c-.22-.32-.44-.48-.64-.48s-.44.23-.7.63l.08,5.32Z"></path><path class="cls-188" d="m357.3,396.45c-.66-.3-.99-.66-.99-1.09,0-.38.36-.6.96-.75l-11.46-.42c-1.67.41-2.78.87-2.75,1.37.02.51,1.01.99,2.53,1.43l11.72-.54Z"></path><path class="cls-180" d="m469.72,417.97c1.2,0,1.7-2.61,1.7-2.61,0,0,3.22-10.24,5.02-11.85,1.81-1.61,3.12-3.11,12.06-4.22,8.94-1.11,14.26-2.21,17.38-2.41,3.11-.2,5.32-.6,5.32-1.61l-14.97-.2c0,1.31-1.5,1.41-3.31,1.51-1.81.1-9.94.8-15.17,1.8-5.23,1.01-6.33,10.75-6.53,11.66-.2.9-.6,2.51-1.5,2.51v5.43h0Z"></path><path class="cls-186" d="m484.32,393.17c-2.67-.32-5.35-.77-6.98-1.42-3.81-1.5-5.22-4.12-6.12-9.84-.3-1.71-1-3.21-1.81-3.21s-1.5,1.91-1.81,3.32l-.5-5.22c.3-.91.7-3.82,2.31-3.82s2.31,4.32,3.31,7.03c1.01,2.71,1.42,8.24,8.34,9.74,1.27.28,2.73.55,4.31.81l-1.05,2.62Z"></path><path class="cls-182" d="m468.06,373.95c.31-.56.75-.98,1.35-.98.44,0,.82.33,1.15.86l.27,6.58s-.03-.08-.04-.11c-.35-.94-.84-1.6-1.37-1.6s-1.04.88-1.4,1.88l.05-6.62Z"></path><path class="cls-183" d="m508.92,396.54c1.42-.25,2.28-.65,2.28-1.27,0-.67-.53-1.07-2.19-1.44l-14.13.1c.77.16,1.35.49,1.35,1.14,0,.37-.12.64-.33.85l13.02.63Z"></path><path class="cls-181" d="m471.22,410.03c-.2.9-.6,2.51-1.5,2.51s-1.21-1-1.61-2.31l-.1,5.22s.5,2.47,1.71,2.51c1.5.05,2.25-4.42,2.25-4.42l-.75-3.51Z"></path><path class="cls-2" d="m487.04,360.52c-6.73-.01-15.57,1.64-24.51,3.07-8.94,1.44-9.24,2.25-11.24,4.4-2.02,2.15-4.73,13.92-4.73,13.92,0,0-1.3,5.53-2.41,5.53s-2.41-5.22-2.41-5.22c0,0-2.71-9.41-3.81-12.59-1.11-3.17-3.01-3.99-5.83-5.02-2.82-1.02-12.66-2.15-15.17-2.45-2.51-.3-17.57-1.84-17.68-3.89-.1-2.05,18.28-3.48,18.28-3.48,9.33-.92,14.56-2.05,17.67-3.99,3.12-1.94,5.23-9.82,6.03-12.48.8-2.66,2.11-5.73,2.81-5.73s1.51,1.94,2.71,6.04c1.21,4.09,3.51,10.85,8.04,12.89,4.52,2.04,10.55,2.35,17.07,3.17,0,0,7.79,1.5,16.02,1.3,8.24-.2,13.36-1.61,16.58-2.11,3.21-.5,9.24-1.51,11.14-5.93,1.91-4.42,3.82-10.85,5.23-10.95,1.4-.1,3.61,7.03,3.61,7.03,0,0,1.61,6.93,7.04,8.13,5.42,1.21,13.96,3.22,18.38,3.82,4.41.61,5.82,1.01,5.82,2.21s-5.92,1.81-5.92,1.81c0,0-15.98,1.81-19.19,3.82-3.22,2.01-5.13,3.42-7.54,14.26-.9,2.81-1.1,4.12-2.01,4.12s-2.41-4.52-4.22-10.75c-1.81-6.22-3.31-7.93-12.26-9.24-8.94-1.31-12.75-1.69-17.52-1.7Z"></path><path class="cls-184" d="m478.76,356.92c-3.42-.1-21.28-.61-26.94-2.55-.55-.22-1.04-.49-1.51-.81l3.12-2.77c.44.32.91.6,1.41.83,4.54,2.04,10.59,2.34,17.16,3.16"></path><path class="cls-194" d="m482.29,359.37c-3.33.1-21.9,1.74-26.84,2.04-4.93.3-6.66,3.47-7.36,4.9-.71,1.43-2.72,11.32-2.93,12.14-.2.81-.51,2.45-1.01,2.45v6.53c1.11,0,2.42-5.51,2.42-5.51,0,0,2.72-11.73,4.74-13.88,2.02-2.14,2.32-2.95,11.3-4.38,6.96-1.11,13.85-2.34,19.75-2.83l-.07-1.46Z"></path><path class="cls-202" d="m426.7,360.8s6.05.3,8.47,1.42c2.43,1.12,4.55,2.35,5.15,4.8.61,2.45,2.63,11.22,2.83,12.04.2.81.5,1.83,1.01,1.83s.81-1.63,1.01-2.45l1.42,3.47s-1.31,5.51-2.42,5.51-2.42-5.2-2.42-5.2c0,0-2.73-9.38-3.83-12.55-1.12-3.16-3.04-3.98-5.86-5-1.07-.39-3.18-.79-5.51-1.16l.17-2.71Z"></path><path class="cls-195" d="m443.14,379.06c.2.81.5,1.83,1.01,1.83.38,0,.65-.91.83-1.72l.27,6.86c-.36.79-.74,1.38-1.11,1.38s-.75-.56-1.11-1.31l.1-7.05Z"></path><path class="cls-193" d="m432.04,364.68c-2.82-1.02-12.71-2.14-15.24-2.45-2.52-.31-17.65-1.83-17.76-3.88-.11-2.04,18.37-3.47,18.37-3.47l.5,1.94c-3.03.41-5.54.31-5.54,1.33s1.91,1.74,5.65,1.94c3.73.21,8.68.72,8.68.72,0,0,6.05.3,8.47,1.42l-3.12,2.45Z"></path><path class="cls-203" d="m399.05,358.35c-.11-2.04,18.37-3.47,18.37-3.47,9.38-.92,14.63-2.04,17.75-3.98,3.14-1.94,5.25-9.79,6.06-12.45.81-2.65,2.11-5.71,2.82-5.71s1.52,1.94,2.72,6.02l-1.01,4.28c-.61-3.67-.91-4.59-1.81-4.59s-1.52,2.76-2.02,5.2c-.51,2.45-1.26,9.22-6.05,10.71-5.25,1.63-8.17,2.14-17.96,2.45-3.03.41-5.54.31-5.54,1.33l-13.33.21Z"></path><path class="cls-204" d="m451.83,354.37c-3.24-1.33-4.94-4.18-6.06-11.32-.61-3.67-.91-4.59-1.81-4.59l.1-5.71c.7,0,1.52,1.94,2.72,6.02,1.21,4.08,3.53,10.81,8.07,12.85l-3.02,2.75Z"></path><path class="cls-1" d="m482.29,359.37c-3.33.08-21.9,1.74-26.84,2.04-4.93.3-6.66,3.47-7.36,4.9-.71,1.43-2.72,11.32-2.93,12.14-.2.81-.51,2.45-1.01,2.45s-.81-1.02-1.01-1.83c-.2-.81-2.22-9.59-2.83-12.04-.6-2.45-2.72-3.67-5.15-4.8-2.42-1.12-8.47-1.42-8.47-1.42,0,0-4.94-.51-8.68-.72-3.74-.21-5.65-.92-5.65-1.94s2.51-.92,5.54-1.33c9.79-.3,12.71-.82,17.96-2.45,4.79-1.5,5.55-8.26,6.05-10.71.5-2.45,1.11-5.2,2.02-5.2s1.21.92,1.81,4.59c1.12,7.14,2.82,10,6.06,11.32,5.65,1.94,23.51,2.45,26.94,2.55,0,0,10.64.17,16.16-.13,5.53-.3,15.28-1.3,17.48-1.8,2.21-.51,5.32-1.71,5.93-5.33.6-3.61,1.5-7.74,2.61-7.74s1.71,3.11,1.91,3.92c0,0,.84,6.94,4.78,8.37,3.95,1.42,9.96,1.89,12.41,2.05,2.45.16,4.58.63,4.58,1.74s-3.16,1.82-4.5,1.82-8.29.24-10.75,1.34c-2.45,1.11-4.59,1.9-5.53,6.64-.95,4.74-1.43,6.32-1.43,6.32,0,0-.15,1.97-1.42,1.97s-1.59-2.53-1.59-2.53c0,0-1.5-7.43-2.52-9.09-1.03-1.66-2.22-4.03-11.94-4.34-9.73-.32-14.03-.99-22.66-.77Z"></path><path class="cls-206" d="m523.84,367.81c.94-4.74,3.08-5.53,5.53-6.64,2.45-1.11,9.41-1.34,10.75-1.34s4.5-.71,4.5-1.82l11.08.2c0,1.2-5.92,1.81-5.92,1.81,0,0-15.98,1.81-19.19,3.82-2.41,1.51-4.09,2.67-5.79,7.74l-.95-3.76Z"></path><path class="cls-208" d="m527.63,354.22c3.95,1.42,9.96,1.89,12.41,2.05,2.45.16,4.58.63,4.58,1.74s-3.16,1.82-4.5,1.82l9.66.19s5.92-.6,5.92-1.81-1.41-1.61-5.82-2.21c-4.42-.6-12.96-2.61-18.38-3.82l-3.86,2.04Z"></path><path class="cls-207" d="m532.3,355.39c-1.65-.29-3.28-.67-4.67-1.17-3.94-1.43-4.78-8.37-4.78-8.37-.2-.8-.8-3.92-1.91-3.92s-2.01,4.12-2.61,7.74l-2.72-1.71c1.91-4.42,3.82-10.85,5.23-10.95,1.4-.1,3.61,7.03,3.61,7.03,0,0,1.61,6.93,7.04,8.13.89.2,1.89.42,2.92.66l-2.12,2.55Z"></path><path class="cls-205" d="m520.85,337.01c-1.41.1-3.32,6.53-5.23,10.95-1.9,4.42-7.93,5.42-11.14,5.93-3.22.5-8.34,1.91-16.58,2.11-8.23.2-16.02-1.3-16.02-1.3l-1.15,1.92c3.71.19,6.8.28,8.04.31,0,0,10.64.17,16.16-.13,5.53-.3,15.28-1.3,17.48-1.8,2.21-.51,5.32-1.71,5.93-5.33.6-3.61,1.5-7.74,2.61-7.74l-.1-4.92Z"></path><path class="cls-199" d="m520.03,342.87c.29-.59.59-.94.92-.94.38,0,.69.36.95.87v-4.89c-.36-.56-.73-.92-1.05-.89-.32.02-.66.37-1.03.94l.21,4.93Z"></path><path class="cls-197" d="m525.49,369.71c-.8,1.92-1.58,4.57-2.44,8.38-.9,2.81-1.1,4.12-2.01,4.12-.48,0-1.14-1.3-1.92-3.47l.3-5.16s.31,2.53,1.59,2.53,1.42-1.97,1.42-1.97c0,0,.48-1.58,1.43-6.32.2-1.02.46-1.85.76-2.54l.89,4.45Z"></path><path class="cls-201" d="m518.39,369.05c-.48-1.89-1.04-3.81-1.5-4.57-1.03-1.66-2.22-4.03-11.94-4.34-9.73-.32-14.03-.99-22.66-.77-1.16.03-4.14.24-7.75.53l.2,1.74c4.5-.66,8.71-1.13,12.3-1.12,4.78.01,8.58.39,17.53,1.7,8.94,1.31,10.45,3.02,12.26,9.24l1.57-2.41Z"></path><path class="cls-198" d="m517.37,365.56c.95,2.63,2.04,8.01,2.04,8.01,0,0,.31,2.53,1.59,2.53l.04,6.1c-.9,0-2.41-4.52-4.22-10.75-.39-1.34-.76-2.48-1.21-3.44l1.75-2.46Z"></path><path class="cls-196" d="m401.87,359.88c-1.67-.46-2.79-.97-2.82-1.53-.02-.53,1.2-1.02,3.03-1.45l12.03.34c-1.06.15-1.73.38-1.73.9,0,.36.23.68.69.95l-11.19.78Z"></path><path class="cls-200" d="m443.42,338.79c.16-.21.34-.33.53-.33.27,0,.49.08.67.29l.07-5.51c-.22-.33-.44-.49-.64-.49s-.44.24-.71.65l.08,5.4Z"></path><path class="cls-2" d="m259.13,316.67l-22,3.01s-3.92.15-3.92,1.66,3.32,1.51,4.52,1.66c1.21.15,24.71,3.31,24.71,3.31,0,0,37.52,5.12,41.13,5.73,3.62.6,13.71,1.96,18.08,5.88,4.37,3.92,8.14,12.35,10.85,24.86,2.71,12.51,5.57,23.2,5.57,23.2,0,0,.45,3.77,1.95,3.77s1.97-3.92,1.97-3.92c0,0,7.38-29.38,9.19-34.5,1.8-5.12,4.37-15.97,20.79-18.53,16.42-2.56,47.01-6.03,47.01-6.03,0,0,29.83-3.62,40.09-3.02,10.24.6,21.69,2.11,24.56,2.56,2.86.45,7.48.95,9.49,5.98,2,5.02,4.22,14.46,4.22,14.46,0,0,.7,2.91,1.81,2.91s1.81-2.71,1.81-2.71c0,0,3.31-11.45,4.52-14.36,1.21-2.92,3.62-5.42,12.56-6.53,8.94-1.11,18.38-3.11,18.38-3.11,0,0,4.52-.1,4.52-1.81s-4.82-1.8-4.82-1.8l-20.49-3.32s-8.24-.6-10.34-6.03c-2.11-5.42-4.32-11.35-4.32-11.35,0,0-.4-2.41-1.61-2.41s-1.81,2.91-1.81,2.91c0,0-2.41,8.34-4.32,11.05s-4.22,5.42-14.36,6.43c-10.14,1-15.47,2.11-19.48,2.21-4.02.1-12.36.1-18.99-.7-6.62-.8-49.52-6.03-49.52-6.03,0,0-17.17-1.91-22.6-3.72-5.42-1.81-13.36-2.11-19.48-21.3-6.13-19.18-6.53-20.59-6.53-20.59,0,0-.51-3.51-2.22-3.51s-2.2,3.91-2.2,3.91c0,0-6.84,22.2-10.05,28.83-3.21,6.63-5.52,12.86-32.34,15.87-23.81,3.11-36.31,5.07-36.31,5.07Z"></path><path class="cls-170" d="m325.39,332.69c-3.01-2.16-6.37-2.92-9.46-3.51-7.08-1.36-34.05-4.07-34.05-4.07l-26.67-2.26s-5.13-.45-5.13-1.66,5.13-1.36,5.13-1.36l-18.08-.15s-3.92.15-3.92,1.66,3.32,1.51,4.52,1.66c1.21.15,24.71,3.31,24.71,3.31,0,0,37.52,5.12,41.13,5.73,3.62.6,13.71,1.96,18.08,5.88l3.73-5.23Z"></path><path class="cls-169" d="m342.25,266.49s-.51-3.51-2.22-3.51-2.2,3.91-2.2,3.91c0,0-6.84,22.2-10.05,28.83-3.21,6.63-5.52,12.86-32.34,15.87-23.81,3.11-36.31,5.07-36.31,5.07l-22,3.01s-3.92.15-3.92,1.66l16.88-.15c0-1.2,5.13-1.36,5.13-1.36l20.19-1.81s22.91-1.89,33.9-3.01c11-1.13,19.13-7.31,22.14-13.56,3.02-6.25,6.41-25.39,6.41-25.39,0,0,.6-6.18,2.17-6.18s2.04,6.03,2.04,6.03l.18-9.42Z"></path><path class="cls-172" d="m386.42,311.56c-5.48-.69-14.5-1.96-18.16-3.18-5.42-1.81-13.36-2.11-19.48-21.3-6.13-19.18-6.53-20.59-6.53-20.59,0,0-.51-3.51-2.22-3.51s-2.2,3.91-2.2,3.91l.02,9.17s.6-6.18,2.17-6.18c1.06,0,1.61,2.63,1.87,4.42.13.92.19,1.5.19,1.5,0,0,.07.48.22,1.13.81,3.62,3.61,15.84,4.89,20.82,1.5,5.88,5.65,11.9,12.35,14.69,6.71,2.79,22.76,3.77,25.62,3.84l1.26-4.73Z"></path><path class="cls-171" d="m338.69,271.71c.33-1.03.78-1.83,1.34-1.83.6,0,1.03.83,1.33,1.87l.13-7.66c-.34-.62-.81-1.11-1.46-1.11-.59,0-1.04.48-1.37,1.11l.03,7.62Z"></path><path class="cls-175" d="m501.01,305.92c-.41-2.11-.65-3.97-1.66-3.97s-1.46,2.46-1.76,4.02c-.3,1.56-1.25,8.18-3.87,9.94-2.62,1.76-7.64,3.06-13.56,3.36s-18.43.8-21.8.8l1.01-1.25c4.02-.1,9.34-1.2,19.48-2.21,10.15-1,12.45-3.72,14.36-6.43,1.91-2.71,4.32-11.05,4.32-11.05,0,0,.6-2.91,1.81-2.91s1.61,2.41,1.61,2.41l.06,7.28Z"></path><path class="cls-173" d="m509.53,318.01c2.16.48,4.42.63,6.09.77,3.11.25,9.6.96,9.6.96,0,0,3.62.3,3.62,1.35s-3.47,1.46-3.47,1.46l11.05.4s4.52-.1,4.52-1.81-4.82-1.8-4.82-1.8l-20.49-3.32s-.91-.06-2.2-.36l-3.89,2.35Z"></path><path class="cls-174" d="m504.82,326.61c-2.26,1.96-3,8.24-3.21,9.44-.2,1.2-1.1,5.22-1.1,5.22,0,0-.35,1.96-1.1,1.96l-.26,6.43c1.11,0,1.81-2.71,1.81-2.71,0,0,3.31-11.45,4.52-14.36.39-.96.92-1.87,1.76-2.7l-2.42-3.27Z"></path><path class="cls-177" d="m340.03,381.31c1.82,0,1.97-4.07,1.97-4.07,0,0,3.92-23.96,4.52-26.82.6-2.86,2.56-12.51,6.78-16.12l4.56,4.87c-4.27,4.13-5.6,9.14-6.67,12.16-1.81,5.12-9.19,34.5-9.19,34.5,0,0-.45,3.92-1.97,3.92v-8.43h0Z"></path><path class="cls-178" d="m342,377.24s-.15,4.07-1.97,4.07-1.8-4.07-1.8-4.07c0,0-1.66-8.89-4.22-26.67-2.57-17.78-11-20.04-18.08-21.39l-1.05,5.29c2.65.84,5.12,1.96,6.78,3.45,4.37,3.92,8.14,12.35,10.85,24.86,2.71,12.51,5.57,23.2,5.57,23.2,0,0,.45,3.77,1.95,3.77s1.97-3.92,1.97-3.92v-8.59h0Z"></path><path class="cls-176" d="m338.49,387.85c.3.94.79,1.89,1.54,1.89.69,0,1.16-.81,1.47-1.7l.06-8.3c-.29.83-.75,1.56-1.53,1.56s-1.26-.83-1.5-1.74l-.04,8.28Z"></path><path class="cls-164" d="m255.21,322.85s-5.13-.45-5.13-1.66,5.13-1.36,5.13-1.36l-18.08-.15s-3.92.15-3.92,1.66,3.32,1.51,4.52,1.66l17.48-.15Z"></path><path class="cls-162" d="m357.36,339.66c2.98-3.09,7.49-5.76,14.62-6.87,16.42-2.56,47.01-6.03,47.01-6.03,0,0,15.53-1.88,28.02-2.71l.16-1.82c-5.88,0-47.17,3.62-66.75,4.97-19.59,1.36-22.9,3.47-27.13,7.08l4.07,5.36Z"></path><path class="cls-163" d="m491.54,329.66c-2.3-2.61-5.65-3-7.91-3.35-2.86-.45-14.32-1.96-24.56-2.56-3.48-.2-9.21.08-15.27.54l-.2-1.89c1.63-.1,2.86-.15,3.57-.15,5.87,0,14.62,0,22.75.6,8.14.6,17.63.75,22,2.71,1,.46,1.8,1.24,2.44,2.19l-2.82,1.91Z"></path><path class="cls-160" d="m490.95,329.07c.87.79,1.62,1.83,2.17,3.22,2,5.02,4.22,14.46,4.22,14.46,0,0,.7,2.91,1.81,2.91s1.81-2.71,1.81-2.71l-.45-5.68s-.35,1.96-1.1,1.96-.91-1.06-1.21-1.96c-.31-.9-.86-3.82-1.16-5.17-.25-1.13-.82-6.41-3.35-9.22l-2.73,2.18Z"></path><path class="cls-161" d="m497.34,346.75s.7,2.91,1.81,2.91,1.81-2.71,1.81-2.71l-.45-5.68s-.35,1.96-1.1,1.96-.91-1.06-1.21-1.96l-.86,5.48Z"></path><path class="cls-158" d="m506.74,330.43c.17-.21.36-.41.57-.61,1.74-1.68,4.79-3.02,10.72-3.76,8.94-1.11,18.38-3.11,18.38-3.11,0,0,4.52-.1,4.52-1.81l-12.1-.05c0,1.05-3.47,1.46-3.47,1.46,0,0-3.16.8-9.09,1.2-5.92.4-9.19.91-11.46,2.86-.13.11-.24.24-.36.37l2.28,3.44Z"></path><path class="cls-159" d="m527.2,320.06c.83.21,1.63.53,1.63,1.03,0,.34-.36.61-.85.82l12.15.28c.47-.26.8-.6.8-1.06,0-.99-1.64-1.44-3.01-1.64l-10.72.56Z"></path><path class="cls-156" d="m499.35,301.95c1.01,0,1.25,1.86,1.66,3.97.4,2.11,1,7.48,3.66,9.89,1.42,1.28,3.53,1.96,5.67,2.36l3.96-2.34c-2.42-.42-7.45-1.78-9.02-5.85-2.11-5.42-4.32-11.35-4.32-11.35,0,0-.4-2.41-1.61-2.41v5.72h0Z"></path><path class="cls-157" d="m498.49,296.77c.24-.32.53-.55.86-.55.39,0,.7.26.94.61l-.04,5.91c-.22-.5-.5-.8-.9-.8-.38,0-.68.35-.92.86l.06-6.04Z"></path><path class="cls-155" d="m467.66,317.95c-3.53.47-6.1.82-8.29.88-4.02.1-12.36.1-18.99-.7-6.62-.8-49.52-6.03-49.52-6.03,0,0-2.6-.29-6.1-.75l-.13,5.02c2.86.07,42.99,2.91,49.37,3.21,6.37.3,20.99.5,24.35.5,1.64,0,5.44-.12,9.59-.27l-.3-1.86Z"></path><path class="cls-166" d="m519.41,373.57s.31,2.53,1.59,2.53,1.42-1.97,1.42-1.97l.64,3.96c-.9,2.81-1.1,4.12-2.01,4.12-.48,0-1.14-1.3-1.92-3.47l.3-5.16Z"></path><path class="cls-154" d="m275.4,318.02l-20.19,1.81s-5.13.15-5.13,1.36,5.13,1.66,5.13,1.66l26.67,2.26s26.97,2.71,34.05,4.07c7.08,1.35,15.51,3.61,18.08,21.39,2.56,17.78,4.22,26.67,4.22,26.67,0,0,0,4.07,1.8,4.07s1.97-4.07,1.97-4.07c0,0,3.92-23.96,4.52-26.82.6-2.86,2.56-12.51,6.78-16.12,4.23-3.62,7.54-5.73,27.13-7.08,19.59-1.35,60.88-4.97,66.75-4.97s14.62,0,22.75.6c8.14.6,17.63.75,22,2.71,4.07,1.86,4.82,9.19,5.12,10.55.3,1.35.85,4.27,1.16,5.17.3.91.45,1.96,1.21,1.96s1.1-1.96,1.1-1.96c0,0,.9-4.02,1.1-5.22.21-1.21.95-7.49,3.21-9.44,2.26-1.96,5.53-2.46,11.46-2.86,5.93-.4,9.09-1.2,9.09-1.2,0,0,3.47-.4,3.47-1.46s-3.62-1.35-3.62-1.35c0,0-6.48-.71-9.6-.96-3.11-.25-8.28-.55-10.95-2.96-2.66-2.41-3.26-7.79-3.66-9.89-.41-2.11-.65-3.97-1.66-3.97s-1.46,2.46-1.76,4.02c-.3,1.56-1.25,8.18-3.87,9.94-2.62,1.76-7.64,3.06-13.56,3.36s-18.43.8-21.8.8-17.98-.2-24.35-.5c-6.38-.3-45.98-3.21-48.85-3.29-2.86-.07-18.91-1.05-25.62-3.84-6.7-2.79-10.85-8.81-12.35-14.69-1.51-5.87-5.01-21.94-5.01-21.94,0,0-.8-5.98-2.16-5.93-1.57.07-2.17,6.18-2.17,6.18,0,0-3.39,19.13-6.41,25.39-3.01,6.25-11.14,12.43-22.14,13.56-11,1.12-33.9,3.01-33.9,3.01Z"></path><path class="cls-168" d="m482.29,359.37c-3.33.08-21.9,1.74-26.84,2.04-4.93.3-6.66,3.47-7.36,4.9-.71,1.43-2.72,11.32-2.93,12.14-.2.81-.51,2.45-1.01,2.45s-.81-1.02-1.01-1.83c-.2-.81-2.22-9.59-2.83-12.04-.6-2.45-2.72-3.67-5.15-4.8-2.42-1.12-8.47-1.42-8.47-1.42,0,0-4.94-.51-8.68-.72-3.74-.21-5.65-.92-5.65-1.94s2.51-.92,5.54-1.33c9.79-.3,12.71-.82,17.96-2.45,4.79-1.5,5.55-8.26,6.05-10.71.5-2.45,1.11-5.2,2.02-5.2s1.21.92,1.81,4.59c1.12,7.14,2.82,10,6.06,11.32,5.65,1.94,23.51,2.45,26.94,2.55,0,0,10.64.17,16.16-.13,5.53-.3,15.28-1.3,17.48-1.8,2.21-.51,5.32-1.71,5.93-5.33.6-3.61,1.5-7.74,2.61-7.74s1.71,3.11,1.91,3.92c0,0,.84,6.94,4.78,8.37,3.95,1.42,9.96,1.89,12.41,2.05,2.45.16,4.58.63,4.58,1.74s-3.16,1.82-4.5,1.82-8.29.24-10.75,1.34c-2.45,1.11-4.59,1.9-5.53,6.64-.95,4.74-1.43,6.32-1.43,6.32,0,0-.15,1.97-1.42,1.97s-1.59-2.53-1.59-2.53c0,0-1.5-7.43-2.52-9.09-1.03-1.66-2.22-4.03-11.94-4.34-9.73-.32-14.03-.99-22.66-.77Z"></path></g><path class="cls-167" d="m370.57,397.98s6.03.3,8.44,1.4c2.41,1.1,4.52,2.31,5.12,4.72.6,2.41,2.62,11.05,2.81,11.85.2.8.5,1.81,1.01,1.81s.8-1.61,1-2.41c.2-.8,2.21-10.55,2.92-11.95.7-1.41,2.41-4.52,7.33-4.82,4.92-.3,23.4-1.91,26.72-2.01,3.31-.1,22.6.5,27.22.9,4.62.4,11.14.8,12.65,4.42,1.51,3.62,1.91,7.03,2.31,8.34.4,1.31.7,2.31,1.61,2.31s1.3-1.61,1.5-2.51c.2-.91,1.3-10.65,6.53-11.66,5.22-1,13.36-1.7,15.17-1.8,1.81-.1,3.31-.2,3.31-1.51s-2.31-1.3-3.82-1.3-11.24-.5-15.06-2.01c-3.81-1.5-5.22-4.12-6.12-9.84-.3-1.71-1-3.21-1.81-3.21s-1.5,1.91-1.81,3.32c-.3,1.4-.19,6.33-3.41,8.43-3.21,2.11-6.63,2.81-17.78,3.42-11.14.6-20.59.4-24,.3-3.42-.1-21.2-.6-26.82-2.51-3.22-1.3-4.92-4.11-6.03-11.15-.6-3.61-.9-4.52-1.8-4.52s-1.51,2.71-2.01,5.12c-.5,2.41-1.25,9.08-6.02,10.55-5.23,1.61-8.14,2.11-17.88,2.41-3.01.4-5.53.3-5.53,1.31s1.91,1.71,5.63,1.91c3.71.2,8.63.7,8.63.7Z"></path><path class="cls-165" d="m544.16,357.22c.3.22.46.48.46.79,0,.47-.56.87-1.32,1.17l9.18.43c1.56-.3,3.22-.77,3.22-1.41,0-.88-.74-1.32-2.82-1.74l-8.71.75Z"></path></g></svg> 