<?xml version="1.0" encoding="UTF-8"?> <svg xmlns="http://www.w3.org/2000/svg" id="Layer_1" viewBox="0 0 800 800"><defs><style>.cls-1{fill:#e1111a;}.cls-2{fill:#1f3d8a;}</style></defs><g id="layer1"><g id="g3532"><path id="path3534" class="cls-1" d="m509.82,386.95s-20.6,5.95-60.46,30.45c-35.73,21.99-49.74,36.77-49.74,36.77l-110.23-76.18s46.38-34.1,85.13-7.98l51.98,35.66,6.34-4.17-143.42-100.48s20.61-5.96,60.45-30.44c35.75-22,49.77-36.79,49.77-36.79l110.23,76.18s-46.37,34.1-85.13,7.98l-51.98-35.66-6.34,4.16,143.42,100.5Z"></path></g><g id="g3536"><path id="path3538" class="cls-2" d="m424.45,490.88h-83.9v18.66h40.53l-41.95,39.17v15.63h85.17v-18.73h-42.38l42.53-39.07v-15.65Z"></path></g><g id="g3540"><path id="path3542" class="cls-2" d="m291.15,566.21c33.55,0,42.15-8.57,42.15-27.47v-47.87h-26.58v45.01c0,7.56-6.47,12.06-15.57,12.06s-15.55-4.53-15.55-12.18v-44.89h-26.58v47.87c0,18.9,8.59,27.47,42.13,27.47"></path></g><g id="g3544"><path id="path3546" class="cls-2" d="m473.16,566.21c33.55,0,42.15-8.57,42.15-27.47v-47.87h-26.59v45.01c0,7.56-6.47,12.06-15.56,12.06s-15.57-4.53-15.57-12.18v-44.89h-26.57v47.87c0,18.9,8.59,27.47,42.15,27.47"></path></g><path id="path3548" class="cls-2" d="m648,490.88h-27.72v73.46h27.72v-73.46h0Z"></path><g id="g3550"><path id="path3552" class="cls-2" d="m616.06,490.88h-36.47l-29.51,25.35v-25.35h-27.73v73.46h27.73v-26.05l27.41,26.05h37.24l-40.53-37.69,41.86-35.77Z"></path></g><g id="g3554"><path id="path3556" class="cls-2" d="m183.5,511.18c0-5.68,8.41-5.86,11.25-5.86s9.26,1.14,13.63,8.3h31.35c0-13.84-13.12-24.85-44.87-24.85-35.27,0-41.28,15.48-41.28,24.37,0,16.39,12.7,21.19,40.3,24.14,2.36.25,16.72-.43,16.72,6.47,0,5.11-8.07,5.46-11.05,5.46s-8.47-.48-13.04-8.61h-34.52c0,16.13,10.87,25.45,47.51,25.45,33.74,0,42.7-13.77,42.7-24.25s-6.98-20.52-35.75-24.2c-12-1.55-22.95-2.21-22.95-6.41"></path></g></g></svg> 