<?xml version="1.0" encoding="UTF-8"?> <svg xmlns="http://www.w3.org/2000/svg" id="Layer_1" viewBox="0 0 800 800"><defs><style>.cls-1{fill:#020303;}</style></defs><path class="cls-1" d="m64.41,365.9c1.77,6.68,7.08,11.99,13.76,13.76h21.62l.98.2v54.24h13.36v-54.05l1.38-.59h21.62c6.68-1.77,11.99-7.08,13.76-13.76h-86.48v.2Zm468.94,0h-13.36v68.39h61.32c5.9-2.16,10.22-7.27,11.79-13.36h-59.55v-55.23l-.2.2Zm-102.79,13.36c7.08-1.97,12.97-7.47,14.54-13.56l-74.88.2v40.49h61.12v14.15h-47.95c-7.47,1.97-13.56,6.88-17.1,13.76h78.42v-41.27h-61.32v-13.76h47.17Zm228.38,55.03h13.17v-27.52h48.35v27.52h13.17v-41.27h-74.68v41.27Zm-426.88-54.83h51.1c6.88-1.57,12.19-6.88,13.95-13.76h-78.81c1.77,6.88,7.08,12.19,13.76,13.76Zm0,27.12h51.1c6.88-1.57,12.19-6.88,13.95-13.76h-78.81c1.77,6.88,7.08,12.19,13.76,13.76Zm0,27.71h51.1c6.88-1.57,12.19-6.88,13.95-13.76h-78.81c1.77,6.88,7.08,12.19,13.76,13.76Zm438.67-54.83h51.1c6.68-1.77,11.99-7.08,13.76-13.76h-78.61c1.77,6.88,7.08,12.19,13.76,13.76Z"></path></svg> 