<?xml version="1.0" encoding="UTF-8"?> <svg xmlns="http://www.w3.org/2000/svg" id="Layer_1" viewBox="0 0 800 800"><defs><style>.cls-1{fill:#e41724;}</style></defs><path class="cls-1" d="m183.79,349.44h-86.89v19.21h32.07v81.91h22.75v-81.91h32.07v-19.21m84.97,66.79c-3.55,8.98-11.5,15.48-21.01,17.18-1.74.31-3.51.46-5.28.47-1.79,0-3.56-.17-5.26-.47-9.51-1.7-17.45-8.2-21-17.18-2.03-5.17-3.07-10.68-3.06-16.23,0-5.73,1.09-11.22,3.06-16.24,3.55-8.98,11.5-15.48,21-17.18,3.48-.64,7.06-.64,10.54,0,9.51,1.7,17.45,8.19,21.01,17.17,4.07,10.44,4.07,22.03,0,32.48m-26.29-69.83c-29.59,0-53.6,24-53.6,53.6s24.01,53.59,53.6,53.59,53.6-24,53.6-53.59-23.99-53.6-53.6-53.6Zm53.96,3.04h26.8l25.03,43.48,25.03-43.48h26.79l-40.44,63.71v37.41h-22.75v-37.41l-40.45-63.71m157.67,84.45c1.79,0,3.56-.18,5.26-.48,9.51-1.69,17.45-8.19,21-17.17,4.1-10.43,4.1-22.04,0-32.47-3.54-8.98-11.49-15.48-21-17.18-3.49-.62-7.06-.62-10.55,0-9.5,1.69-17.45,8.2-20.99,17.18-2.03,5.17-3.07,10.68-3.07,16.23,0,5.73,1.09,11.2,3.07,16.24,3.54,8.98,11.48,15.48,20.99,17.17,1.75.32,3.52.48,5.29.48m-53.61-33.89c0-29.6,23.99-53.61,53.61-53.61s53.6,24,53.6,53.61c0,29.58-24.01,53.6-53.6,53.6s-53.61-24.02-53.61-53.6Zm262.39,10.54l-14.89-39.95-14.91,39.95h29.8m6.6,17.69h-43.04l-8.28,22.27h-25.31l40.97-101.13h28.31l40.98,101.13h-25.28l-8.34-22.27Zm-69.95-78.79h-86.89v19.21h32.09v81.91s22.75,0,22.75,0v-81.91s32.05,0,32.05,0v-19.21"></path></svg> 