<?xml version="1.0" encoding="UTF-8"?> <svg xmlns="http://www.w3.org/2000/svg" id="Layer_1" viewBox="0 0 800 800"><defs><style>.cls-1{fill:#010101;}.cls-2{fill:#4e5457;}</style></defs><polygon class="cls-1" points="567.09 446.19 567.09 460.46 564.89 460.46 564.89 446.19 560.26 446.19 560.26 444.35 571.74 444.35 571.74 446.19 567.09 446.19"></polygon><polygon class="cls-1" points="547.98 446.16 547.98 451.41 554.42 451.41 554.42 453.18 547.98 453.18 547.98 460.46 545.78 460.46 545.78 444.35 554.83 444.35 554.83 446.16 547.98 446.16"></polygon><path class="cls-1" d="m536.39,460.46l-1.31-3.84h-6.85l-1.34,3.84h-2.24l5.78-16.11h2.67l5.75,16.11h-2.46Zm-4.03-11.76c-.26-.79-.48-1.55-.69-2.27h-.02c-.19.72-.43,1.48-.67,2.24l-2.2,6.2h5.78l-2.19-6.18Z"></path><polygon class="cls-1" points="515.33 460.46 515.33 453.04 507.12 453.04 507.12 460.46 504.92 460.46 504.92 444.35 507.12 444.35 507.12 451.17 515.33 451.17 515.33 444.35 517.52 444.35 517.52 460.46 515.33 460.46"></polygon><path class="cls-1" d="m496.13,460c-1.31.38-2.79.64-4.37.64-5.04,0-7.21-3.25-7.21-7.87,0-4.89,2.46-8.57,7.75-8.57,1.24,0,2.53.19,3.63.55v2.17c-1.29-.55-2.62-.84-3.91-.84-3.58,0-5.11,2.86-5.11,6.44,0,3.91,1.74,6.16,5.25,6.16,1.19,0,2.72-.26,3.96-.64v1.96h0Z"></path><path class="cls-1" d="m475.11,446.38c-.86-.24-1.98-.43-2.91-.43-2.15,0-3.27.91-3.27,2.41,0,3.53,7.42,2.29,7.42,7.61,0,2.7-2.03,4.7-5.8,4.7-1.31,0-2.62-.17-3.63-.43v-2.15c1.02.41,2.46.69,3.75.69,1.96,0,3.39-.76,3.39-2.65,0-3.72-7.37-2.41-7.37-7.61,0-2.58,2.08-4.39,5.66-4.39.93,0,1.91.1,2.77.26v1.98h0Z"></path><polygon class="cls-1" points="450.75 460.46 450.75 444.35 452.95 444.35 452.95 458.6 459.39 458.6 459.39 460.46 450.75 460.46"></polygon><polygon class="cls-1" points="434.01 460.46 434.01 444.35 436.2 444.35 436.2 458.6 442.65 458.6 442.65 460.46 434.01 460.46"></polygon><polygon class="cls-1" points="415.12 460.46 415.12 444.35 424.23 444.35 424.23 446.16 417.31 446.16 417.31 451.27 423.66 451.27 423.66 453.04 417.31 453.04 417.31 458.62 424.33 458.62 424.33 460.46 415.12 460.46"></polygon><path class="cls-1" d="m404.36,446.38c-.86-.24-1.98-.43-2.91-.43-2.15,0-3.27.91-3.27,2.41,0,3.53,7.42,2.29,7.42,7.61,0,2.7-2.03,4.7-5.8,4.7-1.31,0-2.63-.17-3.63-.43v-2.15c1.03.41,2.46.69,3.75.69,1.96,0,3.39-.76,3.39-2.65,0-3.72-7.37-2.41-7.37-7.61,0-2.58,2.08-4.39,5.66-4.39.93,0,1.91.1,2.77.26v1.98h0Z"></path><polygon class="cls-1" points="377.38 460.46 377.38 444.35 386.5 444.35 386.5 446.16 379.58 446.16 379.58 451.27 385.93 451.27 385.93 453.04 379.58 453.04 379.58 458.62 386.59 458.62 386.59 460.46 377.38 460.46"></polygon><path class="cls-1" d="m366.85,459.74c-1.6.6-3.56.93-5.32.93-5.04,0-7.99-3.03-7.99-7.95s2.96-8.59,8.66-8.59c1.39,0,2.86.24,4.11.57v2.15c-1.36-.55-2.94-.84-4.32-.84-4.34,0-6.11,3.05-6.11,6.4,0,4.01,2.22,6.35,5.96,6.35,1.07,0,1.98-.17,2.84-.43v-6.09h2.17v7.49h0Z"></path><path class="cls-1" d="m342.37,460.46l-5.97-9.45c-1.14-1.81-1.6-2.65-2.1-3.7h-.05c.09,1.81.21,5.78.21,8.64v4.51h-2.15v-16.11h2.51l5.63,8.88c1.03,1.62,1.74,2.89,2.2,3.84h.05c-.12-2.08-.21-5.68-.21-8.66v-4.06h2.15v16.11h-2.27Z"></path><polygon class="cls-1" points="313.15 460.46 313.15 444.35 322.26 444.35 322.26 446.16 315.34 446.16 315.34 451.27 321.69 451.27 321.69 453.04 315.34 453.04 315.34 458.62 322.36 458.62 322.36 460.46 313.15 460.46"></polygon><polygon class="cls-1" points="299.62 460.46 299.62 454.55 299.62 444.35 301.82 444.35 301.82 460.46 299.62 460.46"></polygon><polygon class="cls-1" points="286.58 446.19 286.58 460.46 284.38 460.46 284.38 446.19 279.75 446.19 279.75 444.35 291.23 444.35 291.23 446.19 286.58 446.19"></polygon><polygon class="cls-1" points="271.74 460.46 265.04 452.49 265.04 460.46 262.84 460.46 262.84 444.35 265.04 444.35 265.04 451.94 271.5 444.35 274.15 444.35 267.4 452.06 274.56 460.46 271.74 460.46"></polygon><path class="cls-1" d="m252.92,460.46l-1.31-3.84h-6.85l-1.34,3.84h-2.24l5.77-16.11h2.67l5.75,16.11h-2.46Zm-4.03-11.76c-.26-.79-.48-1.55-.69-2.27h-.02c-.19.72-.43,1.48-.67,2.24l-2.19,6.2h5.77l-2.19-6.18Z"></path><path class="cls-2" d="m682.91,400.38l-18.92-30.44c-3.39-5.43-5.26-8.99-7.04-12.99h-.18c.44,6.05.89,17.35.89,27.05v16.38h-11.24v-60.08h13.2l17.75,28.48c3.12,4.89,5.53,9.43,7.22,13.17h.18c-.45-6.58-.89-17.18-.89-27.05v-14.6h11.25v60.08h-12.22Z"></path><polygon class="cls-2" points="594.15 400.38 594.15 340.3 630.46 340.3 630.46 350 605.75 350 605.75 364.87 628.5 364.87 628.5 374.12 605.75 374.12 605.75 390.41 630.73 390.41 630.73 400.38 594.15 400.38"></polygon><path class="cls-2" d="m576.32,397.53c-5.98,2.4-13.38,3.74-20.61,3.74-19.81,0-30.42-11.75-30.42-29.64,0-19.04,11.69-32.22,33.45-32.22,5.08,0,10.71.8,15.17,2.05v11.3c-4.91-2.05-10.71-3.03-15.88-3.03-14.27,0-20.16,9.43-20.16,20.65,0,12.64,6.69,20.47,19.18,20.47,2.86,0,5.35-.35,7.67-1.07v-20.92h11.6v28.66s0,0,0,0Z"></path><path class="cls-2" d="m505.93,400.38l-4.11-12.82h-22.66l-4.19,12.82h-11.69l20.16-60.08h15.08l20.25,60.08h-12.85Zm-12.94-40.76c-.98-3.12-1.79-6.14-2.41-8.99h-.18c-.62,2.85-1.43,5.96-2.32,8.9l-6.24,18.87h17.4l-6.25-18.78Z"></path><path class="cls-2" d="m445.63,400.38h-14.36l-9.19-32.84c-.8-3.2-1.52-7.3-1.96-10.95h-.18c-.54,3.83-1.07,7.74-1.87,10.95l-9.01,32.84h-14.45l-15.08-60.08h12.4l8.03,32.84c1.16,5.61,1.96,10.41,2.59,14.95h.18c.63-4.54,1.52-9.52,2.85-14.78l9.1-33.02h11.6l9.37,33.38c1.25,4.45,2.41,9.61,3.12,14.42h.18c.62-4.63,1.34-9.52,2.32-14.24l7.94-33.55h11.42l-14.99,60.08Z"></path><path class="cls-2" d="m367.48,350.63c-3.3-.98-7.58-1.69-11.15-1.69-6.6,0-9.99,2.67-9.99,6.94,0,10.95,26.14,7.12,26.14,26.88,0,10.77-8.21,18.6-22.93,18.6-5,0-10.08-.62-14.01-1.69v-11.04c3.93,1.51,9.64,2.67,14.45,2.67,5.89,0,10.08-2.22,10.08-7.48,0-11.57-25.78-7.3-25.78-26.88,0-10.41,8.39-17.62,22.75-17.62,3.3,0,7.23.44,10.44,1.07v10.24h0Z"></path><polygon class="cls-2" points="313.25 400.38 292.19 371.54 292.19 400.38 280.6 400.38 280.6 340.3 292.19 340.3 292.19 367.54 312.53 340.3 326.27 340.3 304.06 368.96 327.7 400.38 313.25 400.38"></polygon><polygon class="cls-2" points="235.9 400.38 235.9 340.3 247.5 340.3 247.5 390.32 269.45 390.32 269.45 400.38 235.9 400.38"></polygon><path class="cls-2" d="m193.27,401.36c-18.11,0-27.66-11.04-27.66-29.9,0-20.82,13.56-32.13,29.53-32.13,18.11,0,27.66,11.04,27.66,29.9,0,20.83-13.56,32.13-29.53,32.13Zm.89-51.62c-9.46,0-16.15,7.12-16.15,20.29s5.35,20.91,16.15,20.91c9.46,0,16.24-7.12,16.24-20.38s-5.35-20.83-16.24-20.83Z"></path><path class="cls-2" d="m140.19,400.38h-15.08l-20.25-60.08h12.85l11.6,35.96c1.16,4,2.59,9.17,3.57,13.35h.18c.98-4.1,2.32-9.17,3.66-13.53l11.69-35.78h11.96l-20.16,60.08Z"></path></svg> 