<?xml version="1.0" encoding="UTF-8"?> <svg xmlns="http://www.w3.org/2000/svg" id="Layer_1" viewBox="0 0 800 800"><defs><style>.cls-1{fill:#010101;}</style></defs><path class="cls-1" d="m98.02,381.6l21.49,41.93h24.86l21.1-41.95h10.58v-7.6h-31.83v7.6h9.19l-15.37,30.54-15.57-30.53h11.17v-7.6h-46.14v7.6l10.52.02Z"></path><path class="cls-1" d="m271.98,373.97c-21.38,0-32.73,11.46-32.73,25.85s10.93,26.21,32.87,26.21,32.73-11.63,32.73-26.21c-.01-14.39-11.49-25.85-32.87-25.85Zm-.23,44.19c-7.81-.15-11.24-9.43-11.09-18.64.15-9.55,4.42-17.87,11.71-17.73,7.29.14,11.17,8.62,11.02,18.16-.15,9-3.61,18.37-11.65,18.21h0Z"></path><path class="cls-1" d="m368.07,381.55v-7.58h42.58v7.58h-10.62v34.22h9.83c1.94.17,3.88-.1,5.72-.79,1.83-.69,3.51-1.79,4.93-3.22,1.42-1.43,2.55-3.17,3.31-5.11.76-1.93,1.14-4.02,1.12-6.12h7.02v22.91h-63.9v-7.67h10.74v-34.22h-10.73Z"></path><path class="cls-1" d="m505.67,381.6l21.49,41.93h24.86l21.1-41.95h10.57v-7.6h-31.82v7.6h9.19l-15.37,30.54-15.57-30.53h11.17v-7.6h-46.14v7.6l10.51.02Z"></path><path class="cls-1" d="m679.63,373.97c-21.38,0-32.73,11.46-32.73,25.85s10.93,26.21,32.87,26.21,32.73-11.63,32.73-26.21c-.01-14.39-11.49-25.85-32.87-25.85Zm-.23,44.19c-7.81-.15-11.24-9.43-11.09-18.64.15-9.55,4.42-17.87,11.72-17.73,7.29.14,11.18,8.62,11.02,18.16-.16,9-3.62,18.37-11.65,18.21Z"></path></svg> 