<svg id="Layer_1" data-name="Layer 1" xmlns="http://www.w3.org/2000/svg" xmlns:xlink="http://www.w3.org/1999/xlink" viewBox="0 0 39.66 39.66"><defs><style>.cls-1,.cls-4{fill:none;}.cls-2{clip-path:url(#clip-path);}.cls-3{fill:#004e7c;}.cls-4{stroke:#004e7c;stroke-miterlimit:10;stroke-width:0.79px;}</style><clipPath id="clip-path"><rect class="cls-1" width="39.66" height="39.66"/></clipPath></defs><g id="Verify"><g class="cls-2"><g class="cls-2"><path class="cls-3" d="M19.83,39.26a3,3,0,0,1-2.12-.87,3.07,3.07,0,0,0-2.08-.77,2.55,2.55,0,0,0-1,.17,2.93,2.93,0,0,1-1.14.22,3,3,0,0,1-2.77-1.84A3.06,3.06,0,0,0,8.2,34.45a3,3,0,0,1-3-3,3,3,0,0,0-1.72-2.57A3,3,0,0,1,1.87,25a3,3,0,0,0-.6-3,3,3,0,0,1,0-4.24,3,3,0,0,0,.6-3,3,3,0,0,1,0-2.29,3,3,0,0,1,1.62-1.62A3.06,3.06,0,0,0,5.21,8.2a3,3,0,0,1,3-3,3.06,3.06,0,0,0,2.57-1.72,3,3,0,0,1,2.77-1.85,2.94,2.94,0,0,1,1.14.23,2.55,2.55,0,0,0,1,.17,3.07,3.07,0,0,0,2.08-.77,3,3,0,0,1,4.24,0A3.05,3.05,0,0,0,24,2,2.55,2.55,0,0,0,25,1.87a2.94,2.94,0,0,1,1.14-.23,3,3,0,0,1,2.77,1.85,3,3,0,0,0,2.57,1.72,3,3,0,0,1,3,3,3.06,3.06,0,0,0,1.72,2.57,2.94,2.94,0,0,1,1.61,1.62,3,3,0,0,1,0,2.29,3,3,0,0,0,.6,3,3,3,0,0,1,0,4.24,3,3,0,0,0-.6,3,3,3,0,0,1-1.62,3.91,3,3,0,0,0-1.72,2.57,3,3,0,0,1-3,3,3,3,0,0,0-2.57,1.72A3,3,0,0,1,26.12,38,2.93,2.93,0,0,1,25,37.79a2.55,2.55,0,0,0-.95-.17,3.05,3.05,0,0,0-2.08.77,3,3,0,0,1-2.12.87m-4.2-2.62A4,4,0,0,1,18.4,37.7a2,2,0,0,0,1.43.59,2,2,0,0,0,1.42-.59A4,4,0,0,1,24,36.64a3.49,3.49,0,0,1,1.32.24A2,2,0,0,0,28,35.79a4,4,0,0,1,3.48-2.32,2,2,0,0,0,2-2A4,4,0,0,1,35.79,28a2,2,0,0,0,1.09-2.63,4,4,0,0,1,.82-4.1,2,2,0,0,0,.58-1.42,2,2,0,0,0-.58-1.43,4,4,0,0,1-.82-4.09,2,2,0,0,0,0-1.54,2,2,0,0,0-1.09-1.1A4,4,0,0,1,33.47,8.2a2,2,0,0,0-2-2A4,4,0,0,1,28,3.86a2,2,0,0,0-2.63-1.09A3.49,3.49,0,0,1,24,3,4.07,4.07,0,0,1,21.25,2a2,2,0,0,0-1.42-.59A2,2,0,0,0,18.4,2,4,4,0,0,1,15.63,3a3.49,3.49,0,0,1-1.32-.25,2,2,0,0,0-2.64,1.1A4,4,0,0,1,8.2,6.19a2,2,0,0,0-2,2,4,4,0,0,1-2.32,3.47,2,2,0,0,0-1.09,1.1,2,2,0,0,0,0,1.54A4,4,0,0,1,2,18.4a2,2,0,0,0,0,2.85,4,4,0,0,1,.82,4.1A2,2,0,0,0,3.87,28a4,4,0,0,1,2.32,3.48,2,2,0,0,0,2,2,4,4,0,0,1,3.47,2.32,2,2,0,0,0,2.64,1.09,3.49,3.49,0,0,1,1.32-.24"/><path class="cls-4" d="M19.83,39.26a3,3,0,0,1-2.12-.87,3.07,3.07,0,0,0-2.08-.77,2.55,2.55,0,0,0-1,.17,2.93,2.93,0,0,1-1.14.22,3,3,0,0,1-2.77-1.84A3.06,3.06,0,0,0,8.2,34.45a3,3,0,0,1-3-3,3,3,0,0,0-1.72-2.57A3,3,0,0,1,1.87,25a3,3,0,0,0-.6-3,3,3,0,0,1,0-4.24,3,3,0,0,0,.6-3,3,3,0,0,1,0-2.29,3,3,0,0,1,1.62-1.62A3.06,3.06,0,0,0,5.21,8.2a3,3,0,0,1,3-3,3.06,3.06,0,0,0,2.57-1.72,3,3,0,0,1,2.77-1.85,2.94,2.94,0,0,1,1.14.23,2.55,2.55,0,0,0,1,.17,3.07,3.07,0,0,0,2.08-.77,3,3,0,0,1,4.24,0A3.05,3.05,0,0,0,24,2,2.55,2.55,0,0,0,25,1.87a2.94,2.94,0,0,1,1.14-.23,3,3,0,0,1,2.77,1.85,3,3,0,0,0,2.57,1.72,3,3,0,0,1,3,3,3.06,3.06,0,0,0,1.72,2.57,2.94,2.94,0,0,1,1.61,1.62,3,3,0,0,1,0,2.29,3,3,0,0,0,.6,3,3,3,0,0,1,0,4.24,3,3,0,0,0-.6,3,3,3,0,0,1-1.62,3.91,3,3,0,0,0-1.72,2.57,3,3,0,0,1-3,3,3,3,0,0,0-2.57,1.72A3,3,0,0,1,26.12,38,2.93,2.93,0,0,1,25,37.79a2.55,2.55,0,0,0-.95-.17,3.05,3.05,0,0,0-2.08.77A3,3,0,0,1,19.83,39.26Zm-4.2-2.62A4,4,0,0,1,18.4,37.7a2,2,0,0,0,1.43.59,2,2,0,0,0,1.42-.59A4,4,0,0,1,24,36.64a3.49,3.49,0,0,1,1.32.24A2,2,0,0,0,28,35.79a4,4,0,0,1,3.48-2.32,2,2,0,0,0,2-2A4,4,0,0,1,35.79,28a2,2,0,0,0,1.09-2.63,4,4,0,0,1,.82-4.1,2,2,0,0,0,.58-1.42,2,2,0,0,0-.58-1.43,4,4,0,0,1-.82-4.09,2,2,0,0,0,0-1.54,2,2,0,0,0-1.09-1.1A4,4,0,0,1,33.47,8.2a2,2,0,0,0-2-2A4,4,0,0,1,28,3.86a2,2,0,0,0-2.63-1.09A3.49,3.49,0,0,1,24,3,4.07,4.07,0,0,1,21.25,2a2,2,0,0,0-1.42-.59A2,2,0,0,0,18.4,2,4,4,0,0,1,15.63,3a3.49,3.49,0,0,1-1.32-.25,2,2,0,0,0-2.64,1.1A4,4,0,0,1,8.2,6.19a2,2,0,0,0-2,2,4,4,0,0,1-2.32,3.47,2,2,0,0,0-1.09,1.1,2,2,0,0,0,0,1.54A4,4,0,0,1,2,18.4a2,2,0,0,0,0,2.85,4,4,0,0,1,.82,4.1A2,2,0,0,0,3.87,28a4,4,0,0,1,2.32,3.48,2,2,0,0,0,2,2,4,4,0,0,1,3.47,2.32,2,2,0,0,0,2.64,1.09A3.49,3.49,0,0,1,15.63,36.64Z"/><path class="cls-3" d="M18.08,27.61a.79.79,0,0,1-.62-.3l-4.77-6.26a.77.77,0,0,1,1.23-.94L18,25.45l9-15.34A.77.77,0,0,1,28,9.84a.78.78,0,0,1,.28,1.06L18.75,27.23a.78.78,0,0,1-.63.38h0"/><path class="cls-4" d="M18.08,27.61a.79.79,0,0,1-.62-.3l-4.77-6.26a.77.77,0,0,1,1.23-.94L18,25.45l9-15.34A.77.77,0,0,1,28,9.84a.78.78,0,0,1,.28,1.06L18.75,27.23a.78.78,0,0,1-.63.38Z"/></g></g></g></svg>